<?xml version="1.0" encoding="UTF-8" standalone="no"?>
<!DOCTYPE svg PUBLIC "-//W3C//DTD SVG 1.1//EN"
 "http://www.w3.org/Graphics/SVG/1.1/DTD/svg11.dtd">
<!-- Generated by graphviz version 2.47.0 (20210316.0004)
 -->
<!-- Title: dependencies Pages: 1 -->
<svg width="775pt" height="284pt"
 viewBox="0.00 0.00 775.00 284.00" xmlns="http://www.w3.org/2000/svg" xmlns:xlink="http://www.w3.org/1999/xlink">
<g id="graph0" class="graph" transform="scale(1 1) rotate(0) translate(4 280)">
<title>dependencies</title>
<polygon fill="white" stroke="transparent" points="-4,4 -4,-280 771,-280 771,4 -4,4"/>
<text text-anchor="start" x="362.51" y="-42.4" font-family="Times-12" font-weight="bold" font-size="14.00">Legend</text>
<polygon fill="#ffffb3" stroke="transparent" points="149.5,-10 149.5,-30 169.5,-30 169.5,-10 149.5,-10"/>
<text text-anchor="start" x="173.13" y="-15.4" font-family="Times-12" font-size="14.00"> &#160;Declarations</text>
<polygon fill="#8dd3c7" stroke="transparent" points="262.5,-10 262.5,-30 282.5,-30 282.5,-10 262.5,-10"/>
<text text-anchor="start" x="286.23" y="-15.4" font-family="Times-12" font-size="14.00"> &#160;Module</text>
<polygon fill="#80b1d3" stroke="transparent" points="348.5,-10 348.5,-30 368.5,-30 368.5,-10 348.5,-10"/>
<text text-anchor="start" x="372.28" y="-15.4" font-family="Times-12" font-size="14.00"> &#160;Bootstrap</text>
<polygon fill="#fdb462" stroke="transparent" points="445.5,-10 445.5,-30 465.5,-30 465.5,-10 445.5,-10"/>
<text text-anchor="start" x="469.17" y="-15.4" font-family="Times-12" font-size="14.00"> &#160;Providers</text>
<polygon fill="#fb8072" stroke="transparent" points="541.5,-10 541.5,-30 561.5,-30 561.5,-10 541.5,-10"/>
<text text-anchor="start" x="565.23" y="-15.4" font-family="Times-12" font-size="14.00"> &#160;Exports</text>
<g id="clust1" class="cluster">
<title>cluster_FkHierarchicalDialogModule</title>
<polygon fill="none" stroke="black" stroke-dasharray="1,5" points="8,-70 8,-268 759,-268 759,-70 8,-70"/>
</g>
<g id="clust5" class="cluster">
<title>cluster_FkHierarchicalDialogModule_exports</title>
<polygon fill="none" stroke="black" points="254,-208 254,-260 476,-260 476,-208 254,-208"/>
</g>
<g id="clust2" class="cluster">
<title>cluster_FkHierarchicalDialogModule_declarations</title>
<polygon fill="none" stroke="black" points="531,-78 531,-130 751,-130 751,-78 531,-78"/>
</g>
<g id="clust4" class="cluster">
<title>cluster_FkHierarchicalDialogModule_imports</title>
<polygon fill="none" stroke="black" points="16,-78 16,-130 523,-130 523,-78 16,-78"/>
</g>
<!-- FkHierarchicalDialogComponent -->
<g id="node1" class="node">
<title>FkHierarchicalDialogComponent</title>
<polygon fill="#ffffb3" stroke="black" points="742.89,-122 539.11,-122 539.11,-86 742.89,-86 742.89,-122"/>
<text text-anchor="middle" x="641" y="-99.8" font-family="Times,serif" font-size="14.00">FkHierarchicalDialogComponent</text>
</g>
<!-- FkHierarchicalDialogModule -->
<g id="node2" class="node">
<title>FkHierarchicalDialogModule</title>
<polygon fill="#8dd3c7" stroke="black" points="455.61,-187 452.61,-191 431.61,-191 428.61,-187 274.39,-187 274.39,-151 455.61,-151 455.61,-187"/>
<text text-anchor="middle" x="365" y="-164.8" font-family="Times,serif" font-size="14.00">FkHierarchicalDialogModule</text>
</g>
<!-- FkHierarchicalDialogComponent&#45;&gt;FkHierarchicalDialogModule -->
<g id="edge1" class="edge">
<title>FkHierarchicalDialogComponent&#45;&gt;FkHierarchicalDialogModule</title>
<path fill="none" stroke="black" d="M641,-122.11C641,-141.34 641,-169 641,-169 641,-169 465.75,-169 465.75,-169"/>
<polygon fill="black" stroke="black" points="465.76,-165.5 455.75,-169 465.75,-172.5 465.76,-165.5"/>
</g>
<!-- FkHierarchicalDialogComponent  -->
<g id="node6" class="node">
<title>FkHierarchicalDialogComponent </title>
<polygon fill="#fb8072" stroke="black" points="468.39,-252 261.61,-252 261.61,-216 468.39,-216 468.39,-252"/>
<text text-anchor="middle" x="365" y="-229.8" font-family="Times,serif" font-size="14.00">FkHierarchicalDialogComponent </text>
</g>
<!-- FkHierarchicalDialogModule&#45;&gt;FkHierarchicalDialogComponent  -->
<g id="edge5" class="edge">
<title>FkHierarchicalDialogModule&#45;&gt;FkHierarchicalDialogComponent </title>
<path fill="none" stroke="black" stroke-dasharray="5,2" d="M365,-187.11C365,-187.11 365,-205.99 365,-205.99"/>
<polygon fill="black" stroke="black" points="361.5,-205.99 365,-215.99 368.5,-205.99 361.5,-205.99"/>
</g>
<!-- ConfirmationModule -->
<g id="node3" class="node">
<title>ConfirmationModule</title>
<polygon fill="#8dd3c7" stroke="black" points="515.48,-122 512.48,-126 491.48,-126 488.48,-122 380.52,-122 380.52,-86 515.48,-86 515.48,-122"/>
<text text-anchor="middle" x="448" y="-99.8" font-family="Times,serif" font-size="14.00">ConfirmationModule</text>
</g>
<!-- ConfirmationModule&#45;&gt;FkHierarchicalDialogModule -->
<g id="edge2" class="edge">
<title>ConfirmationModule&#45;&gt;FkHierarchicalDialogModule</title>
<path fill="none" stroke="black" d="M418.16,-122.11C418.16,-122.11 418.16,-140.99 418.16,-140.99"/>
<polygon fill="black" stroke="black" points="414.66,-140.99 418.16,-150.99 421.66,-140.99 414.66,-140.99"/>
</g>
<!-- DataTreeWrapperModule -->
<g id="node4" class="node">
<title>DataTreeWrapperModule</title>
<polygon fill="#8dd3c7" stroke="black" points="362.08,-122 359.08,-126 338.08,-126 335.08,-122 201.92,-122 201.92,-86 362.08,-86 362.08,-122"/>
<text text-anchor="middle" x="282" y="-99.8" font-family="Times,serif" font-size="14.00">DataTreeWrapperModule</text>
</g>
<!-- DataTreeWrapperModule&#45;&gt;FkHierarchicalDialogModule -->
<g id="edge3" class="edge">
<title>DataTreeWrapperModule&#45;&gt;FkHierarchicalDialogModule</title>
<path fill="none" stroke="black" d="M318.24,-122.11C318.24,-122.11 318.24,-140.99 318.24,-140.99"/>
<polygon fill="black" stroke="black" points="314.74,-140.99 318.24,-150.99 321.74,-140.99 314.74,-140.99"/>
</g>
<!-- SelectedElementsModule -->
<g id="node5" class="node">
<title>SelectedElementsModule</title>
<polygon fill="#8dd3c7" stroke="black" points="183.57,-122 180.57,-126 159.57,-126 156.57,-122 24.43,-122 24.43,-86 183.57,-86 183.57,-122"/>
<text text-anchor="middle" x="104" y="-99.8" font-family="Times,serif" font-size="14.00">SelectedElementsModule</text>
</g>
<!-- SelectedElementsModule&#45;&gt;FkHierarchicalDialogModule -->
<g id="edge4" class="edge">
<title>SelectedElementsModule&#45;&gt;FkHierarchicalDialogModule</title>
<path fill="none" stroke="black" d="M104,-122.11C104,-141.34 104,-169 104,-169 104,-169 264.08,-169 264.08,-169"/>
<polygon fill="black" stroke="black" points="264.08,-172.5 274.08,-169 264.08,-165.5 264.08,-172.5"/>
</g>
</g>
</svg>
