<?xml version="1.0" encoding="UTF-8" standalone="no"?>
<!DOCTYPE svg PUBLIC "-//W3C//DTD SVG 1.1//EN"
 "http://www.w3.org/Graphics/SVG/1.1/DTD/svg11.dtd">
<!-- Generated by graphviz version 2.47.0 (20210316.0004)
 -->
<!-- Title: dependencies Pages: 1 -->
<svg width="504pt" height="284pt"
 viewBox="0.00 0.00 504.00 284.00" xmlns="http://www.w3.org/2000/svg" xmlns:xlink="http://www.w3.org/1999/xlink">
<g id="graph0" class="graph" transform="scale(1 1) rotate(0) translate(4 280)">
<title>dependencies</title>
<polygon fill="white" stroke="transparent" points="-4,4 -4,-280 500,-280 500,4 -4,4"/>
<text text-anchor="start" x="227.01" y="-42.4" font-family="Times-12" font-weight="bold" font-size="14.00">Legend</text>
<polygon fill="#ffffb3" stroke="transparent" points="14,-10 14,-30 34,-30 34,-10 14,-10"/>
<text text-anchor="start" x="37.63" y="-15.4" font-family="Times-12" font-size="14.00"> &#160;Declarations</text>
<polygon fill="#8dd3c7" stroke="transparent" points="127,-10 127,-30 147,-30 147,-10 127,-10"/>
<text text-anchor="start" x="150.73" y="-15.4" font-family="Times-12" font-size="14.00"> &#160;Module</text>
<polygon fill="#80b1d3" stroke="transparent" points="213,-10 213,-30 233,-30 233,-10 213,-10"/>
<text text-anchor="start" x="236.78" y="-15.4" font-family="Times-12" font-size="14.00"> &#160;Bootstrap</text>
<polygon fill="#fdb462" stroke="transparent" points="310,-10 310,-30 330,-30 330,-10 310,-10"/>
<text text-anchor="start" x="333.67" y="-15.4" font-family="Times-12" font-size="14.00"> &#160;Providers</text>
<polygon fill="#fb8072" stroke="transparent" points="406,-10 406,-30 426,-30 426,-10 406,-10"/>
<text text-anchor="start" x="429.73" y="-15.4" font-family="Times-12" font-size="14.00"> &#160;Exports</text>
<g id="clust1" class="cluster">
<title>cluster_DataTilesModule</title>
<polygon fill="none" stroke="black" stroke-dasharray="1,5" points="9,-70 9,-268 487,-268 487,-70 9,-70"/>
</g>
<g id="clust2" class="cluster">
<title>cluster_DataTilesModule_declarations</title>
<polygon fill="none" stroke="black" points="179,-78 179,-130 479,-130 479,-78 179,-78"/>
</g>
<g id="clust5" class="cluster">
<title>cluster_DataTilesModule_imports</title>
<polygon fill="none" stroke="black" points="17,-78 17,-130 171,-130 171,-78 17,-78"/>
</g>
<g id="clust6" class="cluster">
<title>cluster_DataTilesModule_exports</title>
<polygon fill="none" stroke="black" points="177,-208 177,-260 333,-260 333,-208 177,-208"/>
</g>
<!-- DataTileComponent -->
<g id="node1" class="node">
<title>DataTileComponent</title>
<polygon fill="#ffffb3" stroke="black" points="471.31,-122 340.69,-122 340.69,-86 471.31,-86 471.31,-122"/>
<text text-anchor="middle" x="406" y="-99.8" font-family="Times,serif" font-size="14.00">DataTileComponent</text>
</g>
<!-- DataTilesModule -->
<g id="node3" class="node">
<title>DataTilesModule</title>
<polygon fill="#8dd3c7" stroke="black" points="311.97,-187 308.97,-191 287.97,-191 284.97,-187 198.03,-187 198.03,-151 311.97,-151 311.97,-187"/>
<text text-anchor="middle" x="255" y="-164.8" font-family="Times,serif" font-size="14.00">DataTilesModule</text>
</g>
<!-- DataTileComponent&#45;&gt;DataTilesModule -->
<g id="edge1" class="edge">
<title>DataTileComponent&#45;&gt;DataTilesModule</title>
<path fill="none" stroke="black" d="M406,-122.11C406,-141.34 406,-169 406,-169 406,-169 322.09,-169 322.09,-169"/>
<polygon fill="black" stroke="black" points="322.09,-165.5 312.09,-169 322.09,-172.5 322.09,-165.5"/>
</g>
<!-- DataTilesComponent -->
<g id="node2" class="node">
<title>DataTilesComponent</title>
<polygon fill="#ffffb3" stroke="black" points="322.75,-122 187.25,-122 187.25,-86 322.75,-86 322.75,-122"/>
<text text-anchor="middle" x="255" y="-99.8" font-family="Times,serif" font-size="14.00">DataTilesComponent</text>
</g>
<!-- DataTilesComponent&#45;&gt;DataTilesModule -->
<g id="edge2" class="edge">
<title>DataTilesComponent&#45;&gt;DataTilesModule</title>
<path fill="none" stroke="black" d="M255,-122.11C255,-122.11 255,-140.99 255,-140.99"/>
<polygon fill="black" stroke="black" points="251.5,-140.99 255,-150.99 258.5,-140.99 251.5,-140.99"/>
</g>
<!-- DataTilesComponent  -->
<g id="node5" class="node">
<title>DataTilesComponent </title>
<polygon fill="#fb8072" stroke="black" points="324.75,-252 185.25,-252 185.25,-216 324.75,-216 324.75,-252"/>
<text text-anchor="middle" x="255" y="-229.8" font-family="Times,serif" font-size="14.00">DataTilesComponent </text>
</g>
<!-- DataTilesModule&#45;&gt;DataTilesComponent  -->
<g id="edge4" class="edge">
<title>DataTilesModule&#45;&gt;DataTilesComponent </title>
<path fill="none" stroke="black" stroke-dasharray="5,2" d="M255,-187.11C255,-187.11 255,-205.99 255,-205.99"/>
<polygon fill="black" stroke="black" points="251.5,-205.99 255,-215.99 258.5,-205.99 251.5,-205.99"/>
</g>
<!-- BusyIndicatorModule -->
<g id="node4" class="node">
<title>BusyIndicatorModule</title>
<polygon fill="#8dd3c7" stroke="black" points="163.36,-122 160.36,-126 139.36,-126 136.36,-122 24.64,-122 24.64,-86 163.36,-86 163.36,-122"/>
<text text-anchor="middle" x="94" y="-99.8" font-family="Times,serif" font-size="14.00">BusyIndicatorModule</text>
</g>
<!-- BusyIndicatorModule&#45;&gt;DataTilesModule -->
<g id="edge3" class="edge">
<title>BusyIndicatorModule&#45;&gt;DataTilesModule</title>
<path fill="none" stroke="black" d="M94,-122.11C94,-141.34 94,-169 94,-169 94,-169 187.78,-169 187.78,-169"/>
<polygon fill="black" stroke="black" points="187.78,-172.5 197.78,-169 187.78,-165.5 187.78,-172.5"/>
</g>
</g>
</svg>
