<?xml version="1.0" encoding="UTF-8" standalone="no"?>
<!DOCTYPE svg PUBLIC "-//W3C//DTD SVG 1.1//EN"
 "http://www.w3.org/Graphics/SVG/1.1/DTD/svg11.dtd">
<!-- Generated by graphviz version 2.47.0 (20210316.0004)
 -->
<!-- Title: dependencies Pages: 1 -->
<svg width="518pt" height="284pt"
 viewBox="0.00 0.00 518.00 284.00" xmlns="http://www.w3.org/2000/svg" xmlns:xlink="http://www.w3.org/1999/xlink">
<g id="graph0" class="graph" transform="scale(1 1) rotate(0) translate(4 280)">
<title>dependencies</title>
<polygon fill="white" stroke="transparent" points="-4,4 -4,-280 514,-280 514,4 -4,4"/>
<text text-anchor="start" x="234.01" y="-42.4" font-family="Times-12" font-weight="bold" font-size="14.00">Legend</text>
<polygon fill="#ffffb3" stroke="transparent" points="21,-10 21,-30 41,-30 41,-10 21,-10"/>
<text text-anchor="start" x="44.63" y="-15.4" font-family="Times-12" font-size="14.00"> &#160;Declarations</text>
<polygon fill="#8dd3c7" stroke="transparent" points="134,-10 134,-30 154,-30 154,-10 134,-10"/>
<text text-anchor="start" x="157.73" y="-15.4" font-family="Times-12" font-size="14.00"> &#160;Module</text>
<polygon fill="#80b1d3" stroke="transparent" points="220,-10 220,-30 240,-30 240,-10 220,-10"/>
<text text-anchor="start" x="243.78" y="-15.4" font-family="Times-12" font-size="14.00"> &#160;Bootstrap</text>
<polygon fill="#fdb462" stroke="transparent" points="317,-10 317,-30 337,-30 337,-10 317,-10"/>
<text text-anchor="start" x="340.67" y="-15.4" font-family="Times-12" font-size="14.00"> &#160;Providers</text>
<polygon fill="#fb8072" stroke="transparent" points="413,-10 413,-30 433,-30 433,-10 413,-10"/>
<text text-anchor="start" x="436.73" y="-15.4" font-family="Times-12" font-size="14.00"> &#160;Exports</text>
<g id="clust1" class="cluster">
<title>cluster_InfoModalDialogModule</title>
<polygon fill="none" stroke="black" stroke-dasharray="1,5" points="8,-70 8,-268 502,-268 502,-70 8,-70"/>
</g>
<g id="clust2" class="cluster">
<title>cluster_InfoModalDialogModule_declarations</title>
<polygon fill="none" stroke="black" points="16,-78 16,-130 494,-130 494,-78 16,-78"/>
</g>
<g id="clust7" class="cluster">
<title>cluster_InfoModalDialogModule_exports</title>
<polygon fill="none" stroke="black" points="93,-208 93,-260 417,-260 417,-208 93,-208"/>
</g>
<!-- InfoBadgeComponent -->
<g id="node1" class="node">
<title>InfoBadgeComponent</title>
<polygon fill="#ffffb3" stroke="black" points="486.42,-122 345.58,-122 345.58,-86 486.42,-86 486.42,-122"/>
<text text-anchor="middle" x="416" y="-99.8" font-family="Times,serif" font-size="14.00">InfoBadgeComponent</text>
</g>
<!-- InfoModalDialogModule -->
<g id="node4" class="node">
<title>InfoModalDialogModule</title>
<polygon fill="#8dd3c7" stroke="black" points="334.52,-187 331.52,-191 310.52,-191 307.52,-187 177.48,-187 177.48,-151 334.52,-151 334.52,-187"/>
<text text-anchor="middle" x="256" y="-164.8" font-family="Times,serif" font-size="14.00">InfoModalDialogModule</text>
</g>
<!-- InfoBadgeComponent&#45;&gt;InfoModalDialogModule -->
<g id="edge1" class="edge">
<title>InfoBadgeComponent&#45;&gt;InfoModalDialogModule</title>
<path fill="none" stroke="black" d="M345.48,-104C336.89,-104 331.07,-104 331.07,-104 331.07,-104 331.07,-140.89 331.07,-140.89"/>
<polygon fill="black" stroke="black" points="327.57,-140.89 331.07,-150.89 334.57,-140.89 327.57,-140.89"/>
</g>
<!-- InfoButtonComponent -->
<g id="node2" class="node">
<title>InfoButtonComponent</title>
<polygon fill="#ffffb3" stroke="black" points="327.27,-122 184.73,-122 184.73,-86 327.27,-86 327.27,-122"/>
<text text-anchor="middle" x="256" y="-99.8" font-family="Times,serif" font-size="14.00">InfoButtonComponent</text>
</g>
<!-- InfoButtonComponent&#45;&gt;InfoModalDialogModule -->
<g id="edge2" class="edge">
<title>InfoButtonComponent&#45;&gt;InfoModalDialogModule</title>
<path fill="none" stroke="black" d="M256,-122.11C256,-122.11 256,-140.99 256,-140.99"/>
<polygon fill="black" stroke="black" points="252.5,-140.99 256,-150.99 259.5,-140.99 252.5,-140.99"/>
</g>
<!-- InfoDialogComponent -->
<g id="node3" class="node">
<title>InfoDialogComponent</title>
<polygon fill="#ffffb3" stroke="black" points="166.26,-122 23.74,-122 23.74,-86 166.26,-86 166.26,-122"/>
<text text-anchor="middle" x="95" y="-99.8" font-family="Times,serif" font-size="14.00">InfoDialogComponent</text>
</g>
<!-- InfoDialogComponent&#45;&gt;InfoModalDialogModule -->
<g id="edge3" class="edge">
<title>InfoDialogComponent&#45;&gt;InfoModalDialogModule</title>
<path fill="none" stroke="black" d="M166.35,-104C175.04,-104 180.93,-104 180.93,-104 180.93,-104 180.93,-140.89 180.93,-140.89"/>
<polygon fill="black" stroke="black" points="177.43,-140.89 180.93,-150.89 184.43,-140.89 177.43,-140.89"/>
</g>
<!-- InfoBadgeComponent  -->
<g id="node5" class="node">
<title>InfoBadgeComponent </title>
<polygon fill="#fb8072" stroke="black" points="408.92,-252 265.08,-252 265.08,-216 408.92,-216 408.92,-252"/>
<text text-anchor="middle" x="337" y="-229.8" font-family="Times,serif" font-size="14.00">InfoBadgeComponent </text>
</g>
<!-- InfoModalDialogModule&#45;&gt;InfoBadgeComponent  -->
<g id="edge4" class="edge">
<title>InfoModalDialogModule&#45;&gt;InfoBadgeComponent </title>
<path fill="none" stroke="black" stroke-dasharray="5,2" d="M299.9,-187.11C299.9,-187.11 299.9,-205.99 299.9,-205.99"/>
<polygon fill="black" stroke="black" points="296.4,-205.99 299.9,-215.99 303.4,-205.99 296.4,-205.99"/>
</g>
<!-- InfoButtonComponent  -->
<g id="node6" class="node">
<title>InfoButtonComponent </title>
<polygon fill="#fb8072" stroke="black" points="247.27,-252 100.73,-252 100.73,-216 247.27,-216 247.27,-252"/>
<text text-anchor="middle" x="174" y="-229.8" font-family="Times,serif" font-size="14.00">InfoButtonComponent </text>
</g>
<!-- InfoModalDialogModule&#45;&gt;InfoButtonComponent  -->
<g id="edge5" class="edge">
<title>InfoModalDialogModule&#45;&gt;InfoButtonComponent </title>
<path fill="none" stroke="black" stroke-dasharray="5,2" d="M212.19,-187.11C212.19,-187.11 212.19,-205.99 212.19,-205.99"/>
<polygon fill="black" stroke="black" points="208.69,-205.99 212.19,-215.99 215.69,-205.99 208.69,-205.99"/>
</g>
</g>
</svg>
