<?xml version="1.0" encoding="UTF-8" standalone="no"?>
<!DOCTYPE svg PUBLIC "-//W3C//DTD SVG 1.1//EN"
 "http://www.w3.org/Graphics/SVG/1.1/DTD/svg11.dtd">
<!-- Generated by graphviz version 2.47.0 (20210316.0004)
 -->
<!-- Title: dependencies Pages: 1 -->
<svg width="1879pt" height="284pt"
 viewBox="0.00 0.00 1879.00 284.00" xmlns="http://www.w3.org/2000/svg" xmlns:xlink="http://www.w3.org/1999/xlink">
<g id="graph0" class="graph" transform="scale(1 1) rotate(0) translate(4 280)">
<title>dependencies</title>
<polygon fill="white" stroke="transparent" points="-4,4 -4,-280 1875,-280 1875,4 -4,4"/>
<text text-anchor="start" x="914.51" y="-42.4" font-family="Times-12" font-weight="bold" font-size="14.00">Legend</text>
<polygon fill="#ffffb3" stroke="transparent" points="701.5,-10 701.5,-30 721.5,-30 721.5,-10 701.5,-10"/>
<text text-anchor="start" x="725.13" y="-15.4" font-family="Times-12" font-size="14.00"> &#160;Declarations</text>
<polygon fill="#8dd3c7" stroke="transparent" points="814.5,-10 814.5,-30 834.5,-30 834.5,-10 814.5,-10"/>
<text text-anchor="start" x="838.23" y="-15.4" font-family="Times-12" font-size="14.00"> &#160;Module</text>
<polygon fill="#80b1d3" stroke="transparent" points="900.5,-10 900.5,-30 920.5,-30 920.5,-10 900.5,-10"/>
<text text-anchor="start" x="924.28" y="-15.4" font-family="Times-12" font-size="14.00"> &#160;Bootstrap</text>
<polygon fill="#fdb462" stroke="transparent" points="997.5,-10 997.5,-30 1017.5,-30 1017.5,-10 997.5,-10"/>
<text text-anchor="start" x="1021.17" y="-15.4" font-family="Times-12" font-size="14.00"> &#160;Providers</text>
<polygon fill="#fb8072" stroke="transparent" points="1093.5,-10 1093.5,-30 1113.5,-30 1113.5,-10 1093.5,-10"/>
<text text-anchor="start" x="1117.23" y="-15.4" font-family="Times-12" font-size="14.00"> &#160;Exports</text>
<g id="clust1" class="cluster">
<title>cluster_DataSourceToolbarModule</title>
<polygon fill="none" stroke="black" stroke-dasharray="1,5" points="8,-70 8,-268 1863,-268 1863,-70 8,-70"/>
</g>
<g id="clust9" class="cluster">
<title>cluster_DataSourceToolbarModule_imports</title>
<polygon fill="none" stroke="black" points="1439,-78 1439,-130 1855,-130 1855,-78 1439,-78"/>
</g>
<g id="clust10" class="cluster">
<title>cluster_DataSourceToolbarModule_exports</title>
<polygon fill="none" stroke="black" points="626,-208 626,-260 1472,-260 1472,-208 626,-208"/>
</g>
<g id="clust2" class="cluster">
<title>cluster_DataSourceToolbarModule_declarations</title>
<polygon fill="none" stroke="black" points="206,-78 206,-130 1431,-130 1431,-78 206,-78"/>
</g>
<g id="clust12" class="cluster">
<title>cluster_DataSourceToolbarModule_providers</title>
<polygon fill="none" stroke="black" points="16,-78 16,-130 198,-130 198,-78 16,-78"/>
</g>
<!-- AdditionalInfosComponent -->
<g id="node1" class="node">
<title>AdditionalInfosComponent</title>
<polygon fill="#ffffb3" stroke="black" points="1422.98,-122 1253.02,-122 1253.02,-86 1422.98,-86 1422.98,-122"/>
<text text-anchor="middle" x="1338" y="-99.8" font-family="Times,serif" font-size="14.00">AdditionalInfosComponent</text>
</g>
<!-- DataSourceToolbarModule -->
<g id="node7" class="node">
<title>DataSourceToolbarModule</title>
<polygon fill="#8dd3c7" stroke="black" points="1112.67,-187 1109.67,-191 1088.67,-191 1085.67,-187 943.33,-187 943.33,-151 1112.67,-151 1112.67,-187"/>
<text text-anchor="middle" x="1028" y="-164.8" font-family="Times,serif" font-size="14.00">DataSourceToolbarModule</text>
</g>
<!-- AdditionalInfosComponent&#45;&gt;DataSourceToolbarModule -->
<g id="edge1" class="edge">
<title>AdditionalInfosComponent&#45;&gt;DataSourceToolbarModule</title>
<path fill="none" stroke="black" d="M1256.56,-122.24C1256.56,-137.57 1256.56,-157 1256.56,-157 1256.56,-157 1122.78,-157 1122.78,-157"/>
<polygon fill="black" stroke="black" points="1122.78,-153.5 1112.78,-157 1122.78,-160.5 1122.78,-153.5"/>
</g>
<!-- DataSourcePaginatorComponent -->
<g id="node2" class="node">
<title>DataSourcePaginatorComponent</title>
<polygon fill="#ffffb3" stroke="black" points="1235.29,-122 1034.71,-122 1034.71,-86 1235.29,-86 1235.29,-122"/>
<text text-anchor="middle" x="1135" y="-99.8" font-family="Times,serif" font-size="14.00">DataSourcePaginatorComponent</text>
</g>
<!-- DataSourcePaginatorComponent&#45;&gt;DataSourceToolbarModule -->
<g id="edge2" class="edge">
<title>DataSourcePaginatorComponent&#45;&gt;DataSourceToolbarModule</title>
<path fill="none" stroke="black" d="M1073.72,-122.11C1073.72,-122.11 1073.72,-140.99 1073.72,-140.99"/>
<polygon fill="black" stroke="black" points="1070.22,-140.99 1073.72,-150.99 1077.22,-140.99 1070.22,-140.99"/>
</g>
<!-- DataSourceToolbarComponent -->
<g id="node3" class="node">
<title>DataSourceToolbarComponent</title>
<polygon fill="#ffffb3" stroke="black" points="1016.45,-122 825.55,-122 825.55,-86 1016.45,-86 1016.45,-122"/>
<text text-anchor="middle" x="921" y="-99.8" font-family="Times,serif" font-size="14.00">DataSourceToolbarComponent</text>
</g>
<!-- DataSourceToolbarComponent&#45;&gt;DataSourceToolbarModule -->
<g id="edge3" class="edge">
<title>DataSourceToolbarComponent&#45;&gt;DataSourceToolbarModule</title>
<path fill="none" stroke="black" d="M979.95,-122.11C979.95,-122.11 979.95,-140.99 979.95,-140.99"/>
<polygon fill="black" stroke="black" points="976.45,-140.99 979.95,-150.99 983.45,-140.99 976.45,-140.99"/>
</g>
<!-- DataSourceToolbarCustomComponent -->
<g id="node4" class="node">
<title>DataSourceToolbarCustomComponent</title>
<polygon fill="#ffffb3" stroke="black" points="807.01,-122 572.99,-122 572.99,-86 807.01,-86 807.01,-122"/>
<text text-anchor="middle" x="690" y="-99.8" font-family="Times,serif" font-size="14.00">DataSourceToolbarCustomComponent</text>
</g>
<!-- DataSourceToolbarCustomComponent&#45;&gt;DataSourceToolbarModule -->
<g id="edge4" class="edge">
<title>DataSourceToolbarCustomComponent&#45;&gt;DataSourceToolbarModule</title>
<path fill="none" stroke="black" d="M799.62,-122.24C799.62,-137.57 799.62,-157 799.62,-157 799.62,-157 933.29,-157 933.29,-157"/>
<polygon fill="black" stroke="black" points="933.29,-160.5 943.29,-157 933.29,-153.5 933.29,-160.5"/>
</g>
<!-- FilterTreeComponent -->
<g id="node5" class="node">
<title>FilterTreeComponent</title>
<polygon fill="#ffffb3" stroke="black" points="554.8,-122 417.2,-122 417.2,-86 554.8,-86 554.8,-122"/>
<text text-anchor="middle" x="486" y="-99.8" font-family="Times,serif" font-size="14.00">FilterTreeComponent</text>
</g>
<!-- FilterTreeComponent&#45;&gt;DataSourceToolbarModule -->
<g id="edge5" class="edge">
<title>FilterTreeComponent&#45;&gt;DataSourceToolbarModule</title>
<path fill="none" stroke="black" d="M486,-122.02C486,-139.37 486,-163 486,-163 486,-163 933.31,-163 933.31,-163"/>
<polygon fill="black" stroke="black" points="933.31,-166.5 943.31,-163 933.31,-159.5 933.31,-166.5"/>
</g>
<!-- SaveConfigDialogComponent -->
<g id="node6" class="node">
<title>SaveConfigDialogComponent</title>
<polygon fill="#ffffb3" stroke="black" points="399.53,-122 214.47,-122 214.47,-86 399.53,-86 399.53,-122"/>
<text text-anchor="middle" x="307" y="-99.8" font-family="Times,serif" font-size="14.00">SaveConfigDialogComponent</text>
</g>
<!-- SaveConfigDialogComponent&#45;&gt;DataSourceToolbarModule -->
<g id="edge6" class="edge">
<title>SaveConfigDialogComponent&#45;&gt;DataSourceToolbarModule</title>
<path fill="none" stroke="black" d="M307,-122.11C307,-141.34 307,-169 307,-169 307,-169 933.17,-169 933.17,-169"/>
<polygon fill="black" stroke="black" points="933.17,-172.5 943.17,-169 933.17,-165.5 933.17,-172.5"/>
</g>
<!-- DataSourcePaginatorComponent  -->
<g id="node11" class="node">
<title>DataSourcePaginatorComponent </title>
<polygon fill="#fb8072" stroke="black" points="1463.78,-252 1260.22,-252 1260.22,-216 1463.78,-216 1463.78,-252"/>
<text text-anchor="middle" x="1362" y="-229.8" font-family="Times,serif" font-size="14.00">DataSourcePaginatorComponent </text>
</g>
<!-- DataSourceToolbarModule&#45;&gt;DataSourcePaginatorComponent  -->
<g id="edge10" class="edge">
<title>DataSourceToolbarModule&#45;&gt;DataSourcePaginatorComponent </title>
<path fill="none" stroke="black" stroke-dasharray="5,2" d="M1112.85,-181C1205.71,-181 1341.55,-181 1341.55,-181 1341.55,-181 1341.55,-205.76 1341.55,-205.76"/>
<polygon fill="black" stroke="black" points="1338.05,-205.76 1341.55,-215.76 1345.05,-205.76 1338.05,-205.76"/>
</g>
<!-- DataSourceToolbarComponent  -->
<g id="node12" class="node">
<title>DataSourceToolbarComponent </title>
<polygon fill="#fb8072" stroke="black" points="1242.45,-252 1047.55,-252 1047.55,-216 1242.45,-216 1242.45,-252"/>
<text text-anchor="middle" x="1145" y="-229.8" font-family="Times,serif" font-size="14.00">DataSourceToolbarComponent </text>
</g>
<!-- DataSourceToolbarModule&#45;&gt;DataSourceToolbarComponent  -->
<g id="edge11" class="edge">
<title>DataSourceToolbarModule&#45;&gt;DataSourceToolbarComponent </title>
<path fill="none" stroke="black" stroke-dasharray="5,2" d="M1080.18,-187.11C1080.18,-187.11 1080.18,-205.99 1080.18,-205.99"/>
<polygon fill="black" stroke="black" points="1076.68,-205.99 1080.18,-215.99 1083.68,-205.99 1076.68,-205.99"/>
</g>
<!-- DataSourceToolbarCustomComponent  -->
<g id="node13" class="node">
<title>DataSourceToolbarCustomComponent </title>
<polygon fill="#fb8072" stroke="black" points="1030.01,-252 791.99,-252 791.99,-216 1030.01,-216 1030.01,-252"/>
<text text-anchor="middle" x="911" y="-229.8" font-family="Times,serif" font-size="14.00">DataSourceToolbarCustomComponent </text>
</g>
<!-- DataSourceToolbarModule&#45;&gt;DataSourceToolbarCustomComponent  -->
<g id="edge12" class="edge">
<title>DataSourceToolbarModule&#45;&gt;DataSourceToolbarCustomComponent </title>
<path fill="none" stroke="black" stroke-dasharray="5,2" d="M986.71,-187.11C986.71,-187.11 986.71,-205.99 986.71,-205.99"/>
<polygon fill="black" stroke="black" points="983.21,-205.99 986.71,-215.99 990.21,-205.99 983.21,-205.99"/>
</g>
<!-- FilterTreeComponent  -->
<g id="node14" class="node">
<title>FilterTreeComponent </title>
<polygon fill="#fb8072" stroke="black" points="774.3,-252 633.7,-252 633.7,-216 774.3,-216 774.3,-252"/>
<text text-anchor="middle" x="704" y="-229.8" font-family="Times,serif" font-size="14.00">FilterTreeComponent </text>
</g>
<!-- DataSourceToolbarModule&#45;&gt;FilterTreeComponent  -->
<g id="edge13" class="edge">
<title>DataSourceToolbarModule&#45;&gt;FilterTreeComponent </title>
<path fill="none" stroke="black" stroke-dasharray="5,2" d="M943.3,-181C847.3,-181 704,-181 704,-181 704,-181 704,-205.76 704,-205.76"/>
<polygon fill="black" stroke="black" points="700.5,-205.76 704,-215.76 707.5,-205.76 700.5,-205.76"/>
</g>
<!-- ClassloggerModule -->
<g id="node8" class="node">
<title>ClassloggerModule</title>
<polygon fill="#8dd3c7" stroke="black" points="1846.65,-122 1843.65,-126 1822.65,-126 1819.65,-122 1721.35,-122 1721.35,-86 1846.65,-86 1846.65,-122"/>
<text text-anchor="middle" x="1784" y="-99.8" font-family="Times,serif" font-size="14.00">ClassloggerModule</text>
</g>
<!-- ClassloggerModule&#45;&gt;DataSourceToolbarModule -->
<g id="edge7" class="edge">
<title>ClassloggerModule&#45;&gt;DataSourceToolbarModule</title>
<path fill="none" stroke="black" d="M1784,-122.28C1784,-143.32 1784,-175 1784,-175 1784,-175 1122.89,-175 1122.89,-175"/>
<polygon fill="black" stroke="black" points="1122.89,-171.5 1112.89,-175 1122.89,-178.5 1122.89,-171.5"/>
</g>
<!-- DataTreeModule -->
<g id="node9" class="node">
<title>DataTreeModule</title>
<polygon fill="#8dd3c7" stroke="black" points="1702.62,-122 1699.62,-126 1678.62,-126 1675.62,-122 1591.38,-122 1591.38,-86 1702.62,-86 1702.62,-122"/>
<text text-anchor="middle" x="1647" y="-99.8" font-family="Times,serif" font-size="14.00">DataTreeModule</text>
</g>
<!-- DataTreeModule&#45;&gt;DataSourceToolbarModule -->
<g id="edge8" class="edge">
<title>DataTreeModule&#45;&gt;DataSourceToolbarModule</title>
<path fill="none" stroke="black" d="M1647,-122.11C1647,-141.34 1647,-169 1647,-169 1647,-169 1122.77,-169 1122.77,-169"/>
<polygon fill="black" stroke="black" points="1122.77,-165.5 1112.77,-169 1122.77,-172.5 1122.77,-165.5"/>
</g>
<!-- LdsReplaceModule -->
<g id="node10" class="node">
<title>LdsReplaceModule</title>
<polygon fill="#8dd3c7" stroke="black" points="1572.63,-122 1569.63,-126 1548.63,-126 1545.63,-122 1447.37,-122 1447.37,-86 1572.63,-86 1572.63,-122"/>
<text text-anchor="middle" x="1510" y="-99.8" font-family="Times,serif" font-size="14.00">LdsReplaceModule</text>
</g>
<!-- LdsReplaceModule&#45;&gt;DataSourceToolbarModule -->
<g id="edge9" class="edge">
<title>LdsReplaceModule&#45;&gt;DataSourceToolbarModule</title>
<path fill="none" stroke="black" d="M1455.54,-122.02C1455.54,-139.37 1455.54,-163 1455.54,-163 1455.54,-163 1122.72,-163 1122.72,-163"/>
<polygon fill="black" stroke="black" points="1122.72,-159.5 1112.72,-163 1122.72,-166.5 1122.72,-159.5"/>
</g>
<!-- AppConfigService -->
<g id="node15" class="node">
<title>AppConfigService</title>
<ellipse fill="#fdb462" stroke="black" cx="107" cy="-104" rx="83.39" ry="18"/>
<text text-anchor="middle" x="107" y="-99.8" font-family="Times,serif" font-size="14.00">AppConfigService</text>
</g>
<!-- AppConfigService&#45;&gt;DataSourceToolbarModule -->
<g id="edge14" class="edge">
<title>AppConfigService&#45;&gt;DataSourceToolbarModule</title>
<path fill="none" stroke="black" d="M107,-122.28C107,-143.32 107,-175 107,-175 107,-175 933.42,-175 933.42,-175"/>
<polygon fill="black" stroke="black" points="933.42,-178.5 943.42,-175 933.42,-171.5 933.42,-178.5"/>
</g>
</g>
</svg>
