<?xml version="1.0" encoding="UTF-8" standalone="no"?>
<!DOCTYPE svg PUBLIC "-//W3C//DTD SVG 1.1//EN"
 "http://www.w3.org/Graphics/SVG/1.1/DTD/svg11.dtd">
<!-- Generated by graphviz version 2.47.0 (20210316.0004)
 -->
<!-- Title: dependencies Pages: 1 -->
<svg width="504pt" height="284pt"
 viewBox="0.00 0.00 504.00 284.00" xmlns="http://www.w3.org/2000/svg" xmlns:xlink="http://www.w3.org/1999/xlink">
<g id="graph0" class="graph" transform="scale(1 1) rotate(0) translate(4 280)">
<title>dependencies</title>
<polygon fill="white" stroke="transparent" points="-4,4 -4,-280 500,-280 500,4 -4,4"/>
<text text-anchor="start" x="227.01" y="-42.4" font-family="Times-12" font-weight="bold" font-size="14.00">Legend</text>
<polygon fill="#ffffb3" stroke="transparent" points="14,-10 14,-30 34,-30 34,-10 14,-10"/>
<text text-anchor="start" x="37.63" y="-15.4" font-family="Times-12" font-size="14.00"> &#160;Declarations</text>
<polygon fill="#8dd3c7" stroke="transparent" points="127,-10 127,-30 147,-30 147,-10 127,-10"/>
<text text-anchor="start" x="150.73" y="-15.4" font-family="Times-12" font-size="14.00"> &#160;Module</text>
<polygon fill="#80b1d3" stroke="transparent" points="213,-10 213,-30 233,-30 233,-10 213,-10"/>
<text text-anchor="start" x="236.78" y="-15.4" font-family="Times-12" font-size="14.00"> &#160;Bootstrap</text>
<polygon fill="#fdb462" stroke="transparent" points="310,-10 310,-30 330,-30 330,-10 310,-10"/>
<text text-anchor="start" x="333.67" y="-15.4" font-family="Times-12" font-size="14.00"> &#160;Providers</text>
<polygon fill="#fb8072" stroke="transparent" points="406,-10 406,-30 426,-30 426,-10 406,-10"/>
<text text-anchor="start" x="429.73" y="-15.4" font-family="Times-12" font-size="14.00"> &#160;Exports</text>
<g id="clust1" class="cluster">
<title>cluster_SidenavTreeModule</title>
<polygon fill="none" stroke="black" stroke-dasharray="1,5" points="59,-70 59,-268 437,-268 437,-70 59,-70"/>
</g>
<g id="clust5" class="cluster">
<title>cluster_SidenavTreeModule_exports</title>
<polygon fill="none" stroke="black" points="165,-208 165,-260 337,-260 337,-208 165,-208"/>
</g>
<g id="clust2" class="cluster">
<title>cluster_SidenavTreeModule_declarations</title>
<polygon fill="none" stroke="black" points="261,-78 261,-130 429,-130 429,-78 261,-78"/>
</g>
<g id="clust4" class="cluster">
<title>cluster_SidenavTreeModule_imports</title>
<polygon fill="none" stroke="black" points="67,-78 67,-130 253,-130 253,-78 67,-78"/>
</g>
<!-- SidenavTreeComponent -->
<g id="node1" class="node">
<title>SidenavTreeComponent</title>
<polygon fill="#ffffb3" stroke="black" points="421.08,-122 268.92,-122 268.92,-86 421.08,-86 421.08,-122"/>
<text text-anchor="middle" x="345" y="-99.8" font-family="Times,serif" font-size="14.00">SidenavTreeComponent</text>
</g>
<!-- SidenavTreeModule -->
<g id="node2" class="node">
<title>SidenavTreeModule</title>
<polygon fill="#8dd3c7" stroke="black" points="316.29,-187 313.29,-191 292.29,-191 289.29,-187 185.71,-187 185.71,-151 316.29,-151 316.29,-187"/>
<text text-anchor="middle" x="251" y="-164.8" font-family="Times,serif" font-size="14.00">SidenavTreeModule</text>
</g>
<!-- SidenavTreeComponent&#45;&gt;SidenavTreeModule -->
<g id="edge1" class="edge">
<title>SidenavTreeComponent&#45;&gt;SidenavTreeModule</title>
<path fill="none" stroke="black" d="M292.55,-122.11C292.55,-122.11 292.55,-140.99 292.55,-140.99"/>
<polygon fill="black" stroke="black" points="289.05,-140.99 292.55,-150.99 296.05,-140.99 289.05,-140.99"/>
</g>
<!-- SidenavTreeComponent  -->
<g id="node4" class="node">
<title>SidenavTreeComponent </title>
<polygon fill="#fb8072" stroke="black" points="328.58,-252 173.42,-252 173.42,-216 328.58,-216 328.58,-252"/>
<text text-anchor="middle" x="251" y="-229.8" font-family="Times,serif" font-size="14.00">SidenavTreeComponent </text>
</g>
<!-- SidenavTreeModule&#45;&gt;SidenavTreeComponent  -->
<g id="edge3" class="edge">
<title>SidenavTreeModule&#45;&gt;SidenavTreeComponent </title>
<path fill="none" stroke="black" stroke-dasharray="5,2" d="M251,-187.11C251,-187.11 251,-205.99 251,-205.99"/>
<polygon fill="black" stroke="black" points="247.5,-205.99 251,-215.99 254.5,-205.99 247.5,-205.99"/>
</g>
<!-- DataSourceToolbarModule -->
<g id="node3" class="node">
<title>DataSourceToolbarModule</title>
<polygon fill="#8dd3c7" stroke="black" points="244.67,-122 241.67,-126 220.67,-126 217.67,-122 75.33,-122 75.33,-86 244.67,-86 244.67,-122"/>
<text text-anchor="middle" x="160" y="-99.8" font-family="Times,serif" font-size="14.00">DataSourceToolbarModule</text>
</g>
<!-- DataSourceToolbarModule&#45;&gt;SidenavTreeModule -->
<g id="edge2" class="edge">
<title>DataSourceToolbarModule&#45;&gt;SidenavTreeModule</title>
<path fill="none" stroke="black" d="M215.22,-122.11C215.22,-122.11 215.22,-140.99 215.22,-140.99"/>
<polygon fill="black" stroke="black" points="211.72,-140.99 215.22,-150.99 218.72,-140.99 211.72,-140.99"/>
</g>
</g>
</svg>
