<?xml version="1.0" encoding="UTF-8" standalone="no"?>
<!DOCTYPE svg PUBLIC "-//W3C//DTD SVG 1.1//EN"
 "http://www.w3.org/Graphics/SVG/1.1/DTD/svg11.dtd">
<!-- Generated by graphviz version 2.47.0 (20210316.0004)
 -->
<!-- Title: dependencies Pages: 1 -->
<svg width="1464pt" height="284pt"
 viewBox="0.00 0.00 1464.00 284.00" xmlns="http://www.w3.org/2000/svg" xmlns:xlink="http://www.w3.org/1999/xlink">
<g id="graph0" class="graph" transform="scale(1 1) rotate(0) translate(4 280)">
<title>dependencies</title>
<polygon fill="white" stroke="transparent" points="-4,4 -4,-280 1460,-280 1460,4 -4,4"/>
<text text-anchor="start" x="707.01" y="-42.4" font-family="Times-12" font-weight="bold" font-size="14.00">Legend</text>
<polygon fill="#ffffb3" stroke="transparent" points="494,-10 494,-30 514,-30 514,-10 494,-10"/>
<text text-anchor="start" x="517.63" y="-15.4" font-family="Times-12" font-size="14.00"> &#160;Declarations</text>
<polygon fill="#8dd3c7" stroke="transparent" points="607,-10 607,-30 627,-30 627,-10 607,-10"/>
<text text-anchor="start" x="630.73" y="-15.4" font-family="Times-12" font-size="14.00"> &#160;Module</text>
<polygon fill="#80b1d3" stroke="transparent" points="693,-10 693,-30 713,-30 713,-10 693,-10"/>
<text text-anchor="start" x="716.78" y="-15.4" font-family="Times-12" font-size="14.00"> &#160;Bootstrap</text>
<polygon fill="#fdb462" stroke="transparent" points="790,-10 790,-30 810,-30 810,-10 790,-10"/>
<text text-anchor="start" x="813.67" y="-15.4" font-family="Times-12" font-size="14.00"> &#160;Providers</text>
<polygon fill="#fb8072" stroke="transparent" points="886,-10 886,-30 906,-30 906,-10 886,-10"/>
<text text-anchor="start" x="909.73" y="-15.4" font-family="Times-12" font-size="14.00"> &#160;Exports</text>
<g id="clust1" class="cluster">
<title>cluster_ObjectHistoryModule</title>
<polygon fill="none" stroke="black" stroke-dasharray="1,5" points="8,-70 8,-268 1448,-268 1448,-70 8,-70"/>
</g>
<g id="clust9" class="cluster">
<title>cluster_ObjectHistoryModule_exports</title>
<polygon fill="none" stroke="black" points="596,-208 596,-260 1012,-260 1012,-208 596,-208"/>
</g>
<g id="clust8" class="cluster">
<title>cluster_ObjectHistoryModule_imports</title>
<polygon fill="none" stroke="black" points="1118,-78 1118,-130 1440,-130 1440,-78 1118,-78"/>
</g>
<g id="clust2" class="cluster">
<title>cluster_ObjectHistoryModule_declarations</title>
<polygon fill="none" stroke="black" points="16,-78 16,-130 1110,-130 1110,-78 16,-78"/>
</g>
<!-- ObjectHistoryComponent -->
<g id="node1" class="node">
<title>ObjectHistoryComponent</title>
<polygon fill="#ffffb3" stroke="black" points="1102.14,-122 941.86,-122 941.86,-86 1102.14,-86 1102.14,-122"/>
<text text-anchor="middle" x="1022" y="-99.8" font-family="Times,serif" font-size="14.00">ObjectHistoryComponent</text>
</g>
<!-- ObjectHistoryModule -->
<g id="node6" class="node">
<title>ObjectHistoryModule</title>
<polygon fill="#8dd3c7" stroke="black" points="886.36,-187 883.36,-191 862.36,-191 859.36,-187 747.64,-187 747.64,-151 886.36,-151 886.36,-187"/>
<text text-anchor="middle" x="817" y="-164.8" font-family="Times,serif" font-size="14.00">ObjectHistoryModule</text>
</g>
<!-- ObjectHistoryComponent&#45;&gt;ObjectHistoryModule -->
<g id="edge1" class="edge">
<title>ObjectHistoryComponent&#45;&gt;ObjectHistoryModule</title>
<path fill="none" stroke="black" d="M972.88,-122.03C972.88,-138.4 972.88,-160 972.88,-160 972.88,-160 896.73,-160 896.73,-160"/>
<polygon fill="black" stroke="black" points="896.73,-156.5 886.73,-160 896.73,-163.5 896.73,-156.5"/>
</g>
<!-- ObjectHistoryGridviewComponent -->
<g id="node2" class="node">
<title>ObjectHistoryGridviewComponent</title>
<polygon fill="#ffffb3" stroke="black" points="923.51,-122 710.49,-122 710.49,-86 923.51,-86 923.51,-122"/>
<text text-anchor="middle" x="817" y="-99.8" font-family="Times,serif" font-size="14.00">ObjectHistoryGridviewComponent</text>
</g>
<!-- ObjectHistoryGridviewComponent&#45;&gt;ObjectHistoryModule -->
<g id="edge2" class="edge">
<title>ObjectHistoryGridviewComponent&#45;&gt;ObjectHistoryModule</title>
<path fill="none" stroke="black" d="M817,-122.11C817,-122.11 817,-140.99 817,-140.99"/>
<polygon fill="black" stroke="black" points="813.5,-140.99 817,-150.99 820.5,-140.99 813.5,-140.99"/>
</g>
<!-- ObjectHistoryStateComparisonComponent -->
<g id="node3" class="node">
<title>ObjectHistoryStateComparisonComponent</title>
<polygon fill="#ffffb3" stroke="black" points="692.57,-122 435.43,-122 435.43,-86 692.57,-86 692.57,-122"/>
<text text-anchor="middle" x="564" y="-99.8" font-family="Times,serif" font-size="14.00">ObjectHistoryStateComparisonComponent</text>
</g>
<!-- ObjectHistoryStateComparisonComponent&#45;&gt;ObjectHistoryModule -->
<g id="edge3" class="edge">
<title>ObjectHistoryStateComparisonComponent&#45;&gt;ObjectHistoryModule</title>
<path fill="none" stroke="black" d="M648.52,-122.03C648.52,-138.4 648.52,-160 648.52,-160 648.52,-160 737.5,-160 737.5,-160"/>
<polygon fill="black" stroke="black" points="737.5,-163.5 747.5,-160 737.5,-156.5 737.5,-163.5"/>
</g>
<!-- ObjectHistoryStateOverviewComponent -->
<g id="node4" class="node">
<title>ObjectHistoryStateOverviewComponent</title>
<polygon fill="#ffffb3" stroke="black" points="417.83,-122 174.17,-122 174.17,-86 417.83,-86 417.83,-122"/>
<text text-anchor="middle" x="296" y="-99.8" font-family="Times,serif" font-size="14.00">ObjectHistoryStateOverviewComponent</text>
</g>
<!-- ObjectHistoryStateOverviewComponent&#45;&gt;ObjectHistoryModule -->
<g id="edge4" class="edge">
<title>ObjectHistoryStateOverviewComponent&#45;&gt;ObjectHistoryModule</title>
<path fill="none" stroke="black" d="M296,-122.11C296,-141.34 296,-169 296,-169 296,-169 737.55,-169 737.55,-169"/>
<polygon fill="black" stroke="black" points="737.55,-172.5 747.55,-169 737.55,-165.5 737.55,-172.5"/>
</g>
<!-- TimelineComponent -->
<g id="node5" class="node">
<title>TimelineComponent</title>
<polygon fill="#ffffb3" stroke="black" points="155.88,-122 24.12,-122 24.12,-86 155.88,-86 155.88,-122"/>
<text text-anchor="middle" x="90" y="-99.8" font-family="Times,serif" font-size="14.00">TimelineComponent</text>
</g>
<!-- TimelineComponent&#45;&gt;ObjectHistoryModule -->
<g id="edge5" class="edge">
<title>TimelineComponent&#45;&gt;ObjectHistoryModule</title>
<path fill="none" stroke="black" d="M90,-122.29C90,-144.21 90,-178 90,-178 90,-178 737.62,-178 737.62,-178"/>
<polygon fill="black" stroke="black" points="737.62,-181.5 747.62,-178 737.62,-174.5 737.62,-181.5"/>
</g>
<!-- ObjectHistoryComponent  -->
<g id="node9" class="node">
<title>ObjectHistoryComponent </title>
<polygon fill="#fb8072" stroke="black" points="1004.14,-252 839.86,-252 839.86,-216 1004.14,-216 1004.14,-252"/>
<text text-anchor="middle" x="922" y="-229.8" font-family="Times,serif" font-size="14.00">ObjectHistoryComponent </text>
</g>
<!-- ObjectHistoryModule&#45;&gt;ObjectHistoryComponent  -->
<g id="edge8" class="edge">
<title>ObjectHistoryModule&#45;&gt;ObjectHistoryComponent </title>
<path fill="none" stroke="black" stroke-dasharray="5,2" d="M863.18,-187.11C863.18,-187.11 863.18,-205.99 863.18,-205.99"/>
<polygon fill="black" stroke="black" points="859.68,-205.99 863.18,-215.99 866.68,-205.99 859.68,-205.99"/>
</g>
<!-- ObjectHistoryGridviewComponent  -->
<g id="node10" class="node">
<title>ObjectHistoryGridviewComponent </title>
<polygon fill="#fb8072" stroke="black" points="821.51,-252 604.49,-252 604.49,-216 821.51,-216 821.51,-252"/>
<text text-anchor="middle" x="713" y="-229.8" font-family="Times,serif" font-size="14.00">ObjectHistoryGridviewComponent </text>
</g>
<!-- ObjectHistoryModule&#45;&gt;ObjectHistoryGridviewComponent  -->
<g id="edge9" class="edge">
<title>ObjectHistoryModule&#45;&gt;ObjectHistoryGridviewComponent </title>
<path fill="none" stroke="black" stroke-dasharray="5,2" d="M784.54,-187.11C784.54,-187.11 784.54,-205.99 784.54,-205.99"/>
<polygon fill="black" stroke="black" points="781.04,-205.99 784.54,-215.99 788.04,-205.99 781.04,-205.99"/>
</g>
<!-- DataSourceToolbarModule -->
<g id="node7" class="node">
<title>DataSourceToolbarModule</title>
<polygon fill="#8dd3c7" stroke="black" points="1431.67,-122 1428.67,-126 1407.67,-126 1404.67,-122 1262.33,-122 1262.33,-86 1431.67,-86 1431.67,-122"/>
<text text-anchor="middle" x="1347" y="-99.8" font-family="Times,serif" font-size="14.00">DataSourceToolbarModule</text>
</g>
<!-- DataSourceToolbarModule&#45;&gt;ObjectHistoryModule -->
<g id="edge6" class="edge">
<title>DataSourceToolbarModule&#45;&gt;ObjectHistoryModule</title>
<path fill="none" stroke="black" d="M1347,-122.29C1347,-144.21 1347,-178 1347,-178 1347,-178 896.56,-178 896.56,-178"/>
<polygon fill="black" stroke="black" points="896.56,-174.5 886.56,-178 896.56,-181.5 896.56,-174.5"/>
</g>
<!-- DataTableModule -->
<g id="node8" class="node">
<title>DataTableModule</title>
<polygon fill="#8dd3c7" stroke="black" points="1243.85,-122 1240.85,-126 1219.85,-126 1216.85,-122 1126.15,-122 1126.15,-86 1243.85,-86 1243.85,-122"/>
<text text-anchor="middle" x="1185" y="-99.8" font-family="Times,serif" font-size="14.00">DataTableModule</text>
</g>
<!-- DataTableModule&#45;&gt;ObjectHistoryModule -->
<g id="edge7" class="edge">
<title>DataTableModule&#45;&gt;ObjectHistoryModule</title>
<path fill="none" stroke="black" d="M1185,-122.11C1185,-141.34 1185,-169 1185,-169 1185,-169 896.65,-169 896.65,-169"/>
<polygon fill="black" stroke="black" points="896.65,-165.5 886.65,-169 896.65,-172.5 896.65,-165.5"/>
</g>
</g>
</svg>
