<?xml version="1.0" encoding="UTF-8" standalone="no"?>
<!DOCTYPE svg PUBLIC "-//W3C//DTD SVG 1.1//EN"
 "http://www.w3.org/Graphics/SVG/1.1/DTD/svg11.dtd">
<!-- Generated by graphviz version 2.47.0 (20210316.0004)
 -->
<!-- Title: dependencies Pages: 1 -->
<svg width="2051pt" height="284pt"
 viewBox="0.00 0.00 2051.00 284.00" xmlns="http://www.w3.org/2000/svg" xmlns:xlink="http://www.w3.org/1999/xlink">
<g id="graph0" class="graph" transform="scale(1 1) rotate(0) translate(4 280)">
<title>dependencies</title>
<polygon fill="white" stroke="transparent" points="-4,4 -4,-280 2047,-280 2047,4 -4,4"/>
<text text-anchor="start" x="1000.51" y="-42.4" font-family="Times-12" font-weight="bold" font-size="14.00">Legend</text>
<polygon fill="#ffffb3" stroke="transparent" points="787.5,-10 787.5,-30 807.5,-30 807.5,-10 787.5,-10"/>
<text text-anchor="start" x="811.13" y="-15.4" font-family="Times-12" font-size="14.00"> &#160;Declarations</text>
<polygon fill="#8dd3c7" stroke="transparent" points="900.5,-10 900.5,-30 920.5,-30 920.5,-10 900.5,-10"/>
<text text-anchor="start" x="924.23" y="-15.4" font-family="Times-12" font-size="14.00"> &#160;Module</text>
<polygon fill="#80b1d3" stroke="transparent" points="986.5,-10 986.5,-30 1006.5,-30 1006.5,-10 986.5,-10"/>
<text text-anchor="start" x="1010.28" y="-15.4" font-family="Times-12" font-size="14.00"> &#160;Bootstrap</text>
<polygon fill="#fdb462" stroke="transparent" points="1083.5,-10 1083.5,-30 1103.5,-30 1103.5,-10 1083.5,-10"/>
<text text-anchor="start" x="1107.17" y="-15.4" font-family="Times-12" font-size="14.00"> &#160;Providers</text>
<polygon fill="#fb8072" stroke="transparent" points="1179.5,-10 1179.5,-30 1199.5,-30 1199.5,-10 1179.5,-10"/>
<text text-anchor="start" x="1203.23" y="-15.4" font-family="Times-12" font-size="14.00"> &#160;Exports</text>
<g id="clust1" class="cluster">
<title>cluster_DataTableModule</title>
<polygon fill="none" stroke="black" stroke-dasharray="1,5" points="8,-70 8,-268 2035,-268 2035,-70 8,-70"/>
</g>
<g id="clust11" class="cluster">
<title>cluster_DataTableModule_imports</title>
<polygon fill="none" stroke="black" points="1581,-78 1581,-130 2027,-130 2027,-78 1581,-78"/>
</g>
<g id="clust12" class="cluster">
<title>cluster_DataTableModule_exports</title>
<polygon fill="none" stroke="black" points="719,-208 719,-260 1501,-260 1501,-208 719,-208"/>
</g>
<g id="clust2" class="cluster">
<title>cluster_DataTableModule_declarations</title>
<polygon fill="none" stroke="black" points="16,-78 16,-130 1573,-130 1573,-78 16,-78"/>
</g>
<!-- DataTableCellComponent -->
<g id="node1" class="node">
<title>DataTableCellComponent</title>
<polygon fill="#ffffb3" stroke="black" points="1565.46,-122 1402.54,-122 1402.54,-86 1565.46,-86 1565.46,-122"/>
<text text-anchor="middle" x="1484" y="-99.8" font-family="Times,serif" font-size="14.00">DataTableCellComponent</text>
</g>
<!-- DataTableModule -->
<g id="node9" class="node">
<title>DataTableModule</title>
<polygon fill="#8dd3c7" stroke="black" points="1170.85,-187 1167.85,-191 1146.85,-191 1143.85,-187 1053.15,-187 1053.15,-151 1170.85,-151 1170.85,-187"/>
<text text-anchor="middle" x="1112" y="-164.8" font-family="Times,serif" font-size="14.00">DataTableModule</text>
</g>
<!-- DataTableCellComponent&#45;&gt;DataTableModule -->
<g id="edge1" class="edge">
<title>DataTableCellComponent&#45;&gt;DataTableModule</title>
<path fill="none" stroke="black" d="M1447.82,-122.03C1447.82,-139.06 1447.82,-162 1447.82,-162 1447.82,-162 1180.88,-162 1180.88,-162"/>
<polygon fill="black" stroke="black" points="1180.88,-158.5 1170.88,-162 1180.88,-165.5 1180.88,-158.5"/>
</g>
<!-- DataTableColumnComponent -->
<g id="node2" class="node">
<title>DataTableColumnComponent</title>
<polygon fill="#ffffb3" stroke="black" points="1384.25,-122 1199.75,-122 1199.75,-86 1384.25,-86 1384.25,-122"/>
<text text-anchor="middle" x="1292" y="-99.8" font-family="Times,serif" font-size="14.00">DataTableColumnComponent</text>
</g>
<!-- DataTableColumnComponent&#45;&gt;DataTableModule -->
<g id="edge2" class="edge">
<title>DataTableColumnComponent&#45;&gt;DataTableModule</title>
<path fill="none" stroke="black" d="M1243.1,-122.24C1243.1,-137.57 1243.1,-157 1243.1,-157 1243.1,-157 1181.03,-157 1181.03,-157"/>
<polygon fill="black" stroke="black" points="1181.03,-153.5 1171.03,-157 1181.03,-160.5 1181.03,-153.5"/>
</g>
<!-- DataTableComponent -->
<g id="node3" class="node">
<title>DataTableComponent</title>
<polygon fill="#ffffb3" stroke="black" points="1181.63,-122 1042.37,-122 1042.37,-86 1181.63,-86 1181.63,-122"/>
<text text-anchor="middle" x="1112" y="-99.8" font-family="Times,serif" font-size="14.00">DataTableComponent</text>
</g>
<!-- DataTableComponent&#45;&gt;DataTableModule -->
<g id="edge3" class="edge">
<title>DataTableComponent&#45;&gt;DataTableModule</title>
<path fill="none" stroke="black" d="M1112,-122.11C1112,-122.11 1112,-140.99 1112,-140.99"/>
<polygon fill="black" stroke="black" points="1108.5,-140.99 1112,-150.99 1115.5,-140.99 1108.5,-140.99"/>
</g>
<!-- DataTableDisplayCellComponent -->
<g id="node4" class="node">
<title>DataTableDisplayCellComponent</title>
<polygon fill="#ffffb3" stroke="black" points="1024.01,-122 817.99,-122 817.99,-86 1024.01,-86 1024.01,-122"/>
<text text-anchor="middle" x="921" y="-99.8" font-family="Times,serif" font-size="14.00">DataTableDisplayCellComponent</text>
</g>
<!-- DataTableDisplayCellComponent&#45;&gt;DataTableModule -->
<g id="edge4" class="edge">
<title>DataTableDisplayCellComponent&#45;&gt;DataTableModule</title>
<path fill="none" stroke="black" d="M958.49,-122.24C958.49,-137.57 958.49,-157 958.49,-157 958.49,-157 1043.09,-157 1043.09,-157"/>
<polygon fill="black" stroke="black" points="1043.09,-160.5 1053.09,-157 1043.09,-153.5 1043.09,-160.5"/>
</g>
<!-- DataTableGenericColumnComponent -->
<g id="node5" class="node">
<title>DataTableGenericColumnComponent</title>
<polygon fill="#ffffb3" stroke="black" points="799.55,-122 570.45,-122 570.45,-86 799.55,-86 799.55,-122"/>
<text text-anchor="middle" x="685" y="-99.8" font-family="Times,serif" font-size="14.00">DataTableGenericColumnComponent</text>
</g>
<!-- DataTableGenericColumnComponent&#45;&gt;DataTableModule -->
<g id="edge5" class="edge">
<title>DataTableGenericColumnComponent&#45;&gt;DataTableModule</title>
<path fill="none" stroke="black" d="M763.31,-122.03C763.31,-139.06 763.31,-162 763.31,-162 763.31,-162 1042.85,-162 1042.85,-162"/>
<polygon fill="black" stroke="black" points="1042.85,-165.5 1052.85,-162 1042.85,-158.5 1042.85,-165.5"/>
</g>
<!-- ExcludedColumnsPipe -->
<g id="node6" class="node">
<title>ExcludedColumnsPipe</title>
<polygon fill="#ffffb3" stroke="black" points="552.32,-122 407.68,-122 407.68,-86 552.32,-86 552.32,-122"/>
<text text-anchor="middle" x="480" y="-99.8" font-family="Times,serif" font-size="14.00">ExcludedColumnsPipe</text>
</g>
<!-- ExcludedColumnsPipe&#45;&gt;DataTableModule -->
<g id="edge6" class="edge">
<title>ExcludedColumnsPipe&#45;&gt;DataTableModule</title>
<path fill="none" stroke="black" d="M480,-122.22C480,-140.83 480,-167 480,-167 480,-167 1043.11,-167 1043.11,-167"/>
<polygon fill="black" stroke="black" points="1043.11,-170.5 1053.11,-167 1043.11,-163.5 1043.11,-170.5"/>
</g>
<!-- GroupPaginatorComponent -->
<g id="node7" class="node">
<title>GroupPaginatorComponent</title>
<polygon fill="#ffffb3" stroke="black" points="389.25,-122 218.75,-122 218.75,-86 389.25,-86 389.25,-122"/>
<text text-anchor="middle" x="304" y="-99.8" font-family="Times,serif" font-size="14.00">GroupPaginatorComponent</text>
</g>
<!-- GroupPaginatorComponent&#45;&gt;DataTableModule -->
<g id="edge7" class="edge">
<title>GroupPaginatorComponent&#45;&gt;DataTableModule</title>
<path fill="none" stroke="black" d="M304,-122.22C304,-142.37 304,-172 304,-172 304,-172 1042.91,-172 1042.91,-172"/>
<polygon fill="black" stroke="black" points="1042.91,-175.5 1052.91,-172 1042.91,-168.5 1042.91,-175.5"/>
</g>
<!-- TableAccessiblilityDirective -->
<g id="node8" class="node">
<title>TableAccessiblilityDirective</title>
<polygon fill="#ffffb3" stroke="black" points="200.44,-122 23.56,-122 23.56,-86 200.44,-86 200.44,-122"/>
<text text-anchor="middle" x="112" y="-99.8" font-family="Times,serif" font-size="14.00">TableAccessiblilityDirective</text>
</g>
<!-- TableAccessiblilityDirective&#45;&gt;DataTableModule -->
<g id="edge8" class="edge">
<title>TableAccessiblilityDirective&#45;&gt;DataTableModule</title>
<path fill="none" stroke="black" d="M112,-122.04C112,-143.66 112,-177 112,-177 112,-177 1042.81,-177 1042.81,-177"/>
<polygon fill="black" stroke="black" points="1042.81,-180.5 1052.81,-177 1042.81,-173.5 1042.81,-180.5"/>
</g>
<!-- DataTableColumnComponent  -->
<g id="node13" class="node">
<title>DataTableColumnComponent </title>
<polygon fill="#fb8072" stroke="black" points="1493.25,-252 1304.75,-252 1304.75,-216 1493.25,-216 1493.25,-252"/>
<text text-anchor="middle" x="1399" y="-229.8" font-family="Times,serif" font-size="14.00">DataTableColumnComponent </text>
</g>
<!-- DataTableModule&#45;&gt;DataTableColumnComponent  -->
<g id="edge12" class="edge">
<title>DataTableModule&#45;&gt;DataTableColumnComponent </title>
<path fill="none" stroke="black" stroke-dasharray="5,2" d="M1171,-182C1239.92,-182 1344.62,-182 1344.62,-182 1344.62,-182 1344.62,-205.81 1344.62,-205.81"/>
<polygon fill="black" stroke="black" points="1341.13,-205.81 1344.62,-215.81 1348.13,-205.81 1341.13,-205.81"/>
</g>
<!-- DataTableComponent  -->
<g id="node14" class="node">
<title>DataTableComponent </title>
<polygon fill="#fb8072" stroke="black" points="1286.63,-252 1143.37,-252 1143.37,-216 1286.63,-216 1286.63,-252"/>
<text text-anchor="middle" x="1215" y="-229.8" font-family="Times,serif" font-size="14.00">DataTableComponent </text>
</g>
<!-- DataTableModule&#45;&gt;DataTableComponent  -->
<g id="edge13" class="edge">
<title>DataTableModule&#45;&gt;DataTableComponent </title>
<path fill="none" stroke="black" stroke-dasharray="5,2" d="M1157.18,-187.11C1157.18,-187.11 1157.18,-205.99 1157.18,-205.99"/>
<polygon fill="black" stroke="black" points="1153.68,-205.99 1157.18,-215.99 1160.68,-205.99 1153.68,-205.99"/>
</g>
<!-- DataTableGenericColumnComponent  -->
<g id="node15" class="node">
<title>DataTableGenericColumnComponent </title>
<polygon fill="#fb8072" stroke="black" points="1125.05,-252 892.95,-252 892.95,-216 1125.05,-216 1125.05,-252"/>
<text text-anchor="middle" x="1009" y="-229.8" font-family="Times,serif" font-size="14.00">DataTableGenericColumnComponent </text>
</g>
<!-- DataTableModule&#45;&gt;DataTableGenericColumnComponent  -->
<g id="edge14" class="edge">
<title>DataTableModule&#45;&gt;DataTableGenericColumnComponent </title>
<path fill="none" stroke="black" stroke-dasharray="5,2" d="M1089.18,-187.11C1089.18,-187.11 1089.18,-205.99 1089.18,-205.99"/>
<polygon fill="black" stroke="black" points="1085.68,-205.99 1089.18,-215.99 1092.68,-205.99 1085.68,-205.99"/>
</g>
<!-- ExcludedColumnsPipe  -->
<g id="node16" class="node">
<title>ExcludedColumnsPipe </title>
<polygon fill="#fb8072" stroke="black" points="874.82,-252 727.18,-252 727.18,-216 874.82,-216 874.82,-252"/>
<text text-anchor="middle" x="801" y="-229.8" font-family="Times,serif" font-size="14.00">ExcludedColumnsPipe </text>
</g>
<!-- DataTableModule&#45;&gt;ExcludedColumnsPipe  -->
<g id="edge15" class="edge">
<title>DataTableModule&#45;&gt;ExcludedColumnsPipe </title>
<path fill="none" stroke="black" stroke-dasharray="5,2" d="M1053.04,-182C974.77,-182 846.33,-182 846.33,-182 846.33,-182 846.33,-205.81 846.33,-205.81"/>
<polygon fill="black" stroke="black" points="842.83,-205.81 846.33,-215.81 849.83,-205.81 842.83,-205.81"/>
</g>
<!-- BusyIndicatorModule -->
<g id="node10" class="node">
<title>BusyIndicatorModule</title>
<polygon fill="#8dd3c7" stroke="black" points="2019.36,-122 2016.36,-126 1995.36,-126 1992.36,-122 1880.64,-122 1880.64,-86 2019.36,-86 2019.36,-122"/>
<text text-anchor="middle" x="1950" y="-99.8" font-family="Times,serif" font-size="14.00">BusyIndicatorModule</text>
</g>
<!-- BusyIndicatorModule&#45;&gt;DataTableModule -->
<g id="edge9" class="edge">
<title>BusyIndicatorModule&#45;&gt;DataTableModule</title>
<path fill="none" stroke="black" d="M1950,-122.04C1950,-143.66 1950,-177 1950,-177 1950,-177 1180.93,-177 1180.93,-177"/>
<polygon fill="black" stroke="black" points="1180.93,-173.5 1170.93,-177 1180.93,-180.5 1180.93,-173.5"/>
</g>
<!-- DataSourceToolbarModule -->
<g id="node11" class="node">
<title>DataSourceToolbarModule</title>
<polygon fill="#8dd3c7" stroke="black" points="1862.67,-122 1859.67,-126 1838.67,-126 1835.67,-122 1693.33,-122 1693.33,-86 1862.67,-86 1862.67,-122"/>
<text text-anchor="middle" x="1778" y="-99.8" font-family="Times,serif" font-size="14.00">DataSourceToolbarModule</text>
</g>
<!-- DataSourceToolbarModule&#45;&gt;DataTableModule -->
<g id="edge10" class="edge">
<title>DataSourceToolbarModule&#45;&gt;DataTableModule</title>
<path fill="none" stroke="black" d="M1778,-122.22C1778,-142.37 1778,-172 1778,-172 1778,-172 1181.1,-172 1181.1,-172"/>
<polygon fill="black" stroke="black" points="1181.1,-168.5 1171.1,-172 1181.1,-175.5 1181.1,-168.5"/>
</g>
<!-- DateModule -->
<g id="node12" class="node">
<title>DateModule</title>
<polygon fill="#8dd3c7" stroke="black" points="1674.98,-122 1671.98,-126 1650.98,-126 1647.98,-122 1589.02,-122 1589.02,-86 1674.98,-86 1674.98,-122"/>
<text text-anchor="middle" x="1632" y="-99.8" font-family="Times,serif" font-size="14.00">DateModule</text>
</g>
<!-- DateModule&#45;&gt;DataTableModule -->
<g id="edge11" class="edge">
<title>DateModule&#45;&gt;DataTableModule</title>
<path fill="none" stroke="black" d="M1632,-122.22C1632,-140.83 1632,-167 1632,-167 1632,-167 1180.89,-167 1180.89,-167"/>
<polygon fill="black" stroke="black" points="1180.89,-163.5 1170.89,-167 1180.89,-170.5 1180.89,-163.5"/>
</g>
</g>
</svg>
