<?xml version="1.0" encoding="UTF-8" standalone="no"?>
<!DOCTYPE svg PUBLIC "-//W3C//DTD SVG 1.1//EN"
 "http://www.w3.org/Graphics/SVG/1.1/DTD/svg11.dtd">
<!-- Generated by graphviz version 2.47.0 (20210316.0004)
 -->
<!-- Title: dependencies Pages: 1 -->
<svg width="504pt" height="211pt"
 viewBox="0.00 0.00 504.00 211.00" xmlns="http://www.w3.org/2000/svg" xmlns:xlink="http://www.w3.org/1999/xlink">
<g id="graph0" class="graph" transform="scale(1 1) rotate(0) translate(4 207)">
<title>dependencies</title>
<polygon fill="white" stroke="transparent" points="-4,4 -4,-207 500,-207 500,4 -4,4"/>
<text text-anchor="start" x="227.01" y="-42.4" font-family="Times-12" font-weight="bold" font-size="14.00">Legend</text>
<polygon fill="#ffffb3" stroke="transparent" points="14,-10 14,-30 34,-30 34,-10 14,-10"/>
<text text-anchor="start" x="37.63" y="-15.4" font-family="Times-12" font-size="14.00"> &#160;Declarations</text>
<polygon fill="#8dd3c7" stroke="transparent" points="127,-10 127,-30 147,-30 147,-10 127,-10"/>
<text text-anchor="start" x="150.73" y="-15.4" font-family="Times-12" font-size="14.00"> &#160;Module</text>
<polygon fill="#80b1d3" stroke="transparent" points="213,-10 213,-30 233,-30 233,-10 213,-10"/>
<text text-anchor="start" x="236.78" y="-15.4" font-family="Times-12" font-size="14.00"> &#160;Bootstrap</text>
<polygon fill="#fdb462" stroke="transparent" points="310,-10 310,-30 330,-30 330,-10 310,-10"/>
<text text-anchor="start" x="333.67" y="-15.4" font-family="Times-12" font-size="14.00"> &#160;Providers</text>
<polygon fill="#fb8072" stroke="transparent" points="406,-10 406,-30 426,-30 426,-10 406,-10"/>
<text text-anchor="start" x="429.73" y="-15.4" font-family="Times-12" font-size="14.00"> &#160;Exports</text>
<g id="clust1" class="cluster">
<title>cluster_DataExportModule</title>
<polygon fill="none" stroke="black" stroke-dasharray="1,5" points="84,-70 84,-195 412,-195 412,-70 84,-70"/>
</g>
<g id="clust4" class="cluster">
<title>cluster_DataExportModule_imports</title>
<polygon fill="none" stroke="black" points="262,-78 262,-130 404,-130 404,-78 262,-78"/>
</g>
<g id="clust2" class="cluster">
<title>cluster_DataExportModule_declarations</title>
<polygon fill="none" stroke="black" points="92,-78 92,-130 254,-130 254,-78 92,-78"/>
</g>
<!-- DataExportComponent -->
<g id="node1" class="node">
<title>DataExportComponent</title>
<polygon fill="#ffffb3" stroke="black" points="245.86,-122 100.14,-122 100.14,-86 245.86,-86 245.86,-122"/>
<text text-anchor="middle" x="173" y="-99.8" font-family="Times,serif" font-size="14.00">DataExportComponent</text>
</g>
<!-- DataExportModule -->
<g id="node2" class="node">
<title>DataExportModule</title>
<polygon fill="#8dd3c7" stroke="black" points="315.08,-187 312.08,-191 291.08,-191 288.08,-187 190.92,-187 190.92,-151 315.08,-151 315.08,-187"/>
<text text-anchor="middle" x="253" y="-164.8" font-family="Times,serif" font-size="14.00">DataExportModule</text>
</g>
<!-- DataExportComponent&#45;&gt;DataExportModule -->
<g id="edge1" class="edge">
<title>DataExportComponent&#45;&gt;DataExportModule</title>
<path fill="none" stroke="black" d="M218.45,-122.11C218.45,-122.11 218.45,-140.99 218.45,-140.99"/>
<polygon fill="black" stroke="black" points="214.95,-140.99 218.45,-150.99 221.95,-140.99 214.95,-140.99"/>
</g>
<!-- LdsReplaceModule -->
<g id="node3" class="node">
<title>LdsReplaceModule</title>
<polygon fill="#8dd3c7" stroke="black" points="395.63,-122 392.63,-126 371.63,-126 368.63,-122 270.37,-122 270.37,-86 395.63,-86 395.63,-122"/>
<text text-anchor="middle" x="333" y="-99.8" font-family="Times,serif" font-size="14.00">LdsReplaceModule</text>
</g>
<!-- LdsReplaceModule&#45;&gt;DataExportModule -->
<g id="edge2" class="edge">
<title>LdsReplaceModule&#45;&gt;DataExportModule</title>
<path fill="none" stroke="black" d="M292.61,-122.11C292.61,-122.11 292.61,-140.99 292.61,-140.99"/>
<polygon fill="black" stroke="black" points="289.11,-140.99 292.61,-150.99 296.11,-140.99 289.11,-140.99"/>
</g>
</g>
</svg>
