<?xml version="1.0" encoding="UTF-8" standalone="no"?>
<!DOCTYPE svg PUBLIC "-//W3C//DTD SVG 1.1//EN"
 "http://www.w3.org/Graphics/SVG/1.1/DTD/svg11.dtd">
<!-- Generated by graphviz version 2.47.0 (20210316.0004)
 -->
<!-- Title: dependencies Pages: 1 -->
<svg width="886pt" height="284pt"
 viewBox="0.00 0.00 886.00 284.00" xmlns="http://www.w3.org/2000/svg" xmlns:xlink="http://www.w3.org/1999/xlink">
<g id="graph0" class="graph" transform="scale(1 1) rotate(0) translate(4 280)">
<title>dependencies</title>
<polygon fill="white" stroke="transparent" points="-4,4 -4,-280 882,-280 882,4 -4,4"/>
<text text-anchor="start" x="418.01" y="-42.4" font-family="Times-12" font-weight="bold" font-size="14.00">Legend</text>
<polygon fill="#ffffb3" stroke="transparent" points="205,-10 205,-30 225,-30 225,-10 205,-10"/>
<text text-anchor="start" x="228.63" y="-15.4" font-family="Times-12" font-size="14.00"> &#160;Declarations</text>
<polygon fill="#8dd3c7" stroke="transparent" points="318,-10 318,-30 338,-30 338,-10 318,-10"/>
<text text-anchor="start" x="341.73" y="-15.4" font-family="Times-12" font-size="14.00"> &#160;Module</text>
<polygon fill="#80b1d3" stroke="transparent" points="404,-10 404,-30 424,-30 424,-10 404,-10"/>
<text text-anchor="start" x="427.78" y="-15.4" font-family="Times-12" font-size="14.00"> &#160;Bootstrap</text>
<polygon fill="#fdb462" stroke="transparent" points="501,-10 501,-30 521,-30 521,-10 501,-10"/>
<text text-anchor="start" x="524.67" y="-15.4" font-family="Times-12" font-size="14.00"> &#160;Providers</text>
<polygon fill="#fb8072" stroke="transparent" points="597,-10 597,-30 617,-30 617,-10 597,-10"/>
<text text-anchor="start" x="620.73" y="-15.4" font-family="Times-12" font-size="14.00"> &#160;Exports</text>
<g id="clust1" class="cluster">
<title>cluster_JobQueueOverviewModule</title>
<polygon fill="none" stroke="black" stroke-dasharray="1,5" points="8,-70 8,-268 870,-268 870,-70 8,-70"/>
</g>
<g id="clust2" class="cluster">
<title>cluster_JobQueueOverviewModule_declarations</title>
<polygon fill="none" stroke="black" points="654,-78 654,-130 862,-130 862,-78 654,-78"/>
</g>
<g id="clust5" class="cluster">
<title>cluster_JobQueueOverviewModule_exports</title>
<polygon fill="none" stroke="black" points="340,-208 340,-260 552,-260 552,-208 340,-208"/>
</g>
<g id="clust7" class="cluster">
<title>cluster_JobQueueOverviewModule_providers</title>
<polygon fill="none" stroke="black" points="16,-78 16,-130 646,-130 646,-78 16,-78"/>
</g>
<!-- JobQueueOverviewComponent -->
<g id="node1" class="node">
<title>JobQueueOverviewComponent</title>
<polygon fill="#ffffb3" stroke="black" points="854.01,-122 661.99,-122 661.99,-86 854.01,-86 854.01,-122"/>
<text text-anchor="middle" x="758" y="-99.8" font-family="Times,serif" font-size="14.00">JobQueueOverviewComponent</text>
</g>
<!-- JobQueueOverviewModule -->
<g id="node2" class="node">
<title>JobQueueOverviewModule</title>
<polygon fill="#8dd3c7" stroke="black" points="531.22,-187 528.22,-191 507.22,-191 504.22,-187 360.78,-187 360.78,-151 531.22,-151 531.22,-187"/>
<text text-anchor="middle" x="446" y="-164.8" font-family="Times,serif" font-size="14.00">JobQueueOverviewModule</text>
</g>
<!-- JobQueueOverviewComponent&#45;&gt;JobQueueOverviewModule -->
<g id="edge1" class="edge">
<title>JobQueueOverviewComponent&#45;&gt;JobQueueOverviewModule</title>
<path fill="none" stroke="black" d="M758,-122.11C758,-141.34 758,-169 758,-169 758,-169 541.26,-169 541.26,-169"/>
<polygon fill="black" stroke="black" points="541.26,-165.5 531.26,-169 541.26,-172.5 541.26,-165.5"/>
</g>
<!-- JobQueueOverviewComponent  -->
<g id="node3" class="node">
<title>JobQueueOverviewComponent </title>
<polygon fill="#fb8072" stroke="black" points="544.01,-252 347.99,-252 347.99,-216 544.01,-216 544.01,-252"/>
<text text-anchor="middle" x="446" y="-229.8" font-family="Times,serif" font-size="14.00">JobQueueOverviewComponent </text>
</g>
<!-- JobQueueOverviewModule&#45;&gt;JobQueueOverviewComponent  -->
<g id="edge2" class="edge">
<title>JobQueueOverviewModule&#45;&gt;JobQueueOverviewComponent </title>
<path fill="none" stroke="black" stroke-dasharray="5,2" d="M446,-187.11C446,-187.11 446,-205.99 446,-205.99"/>
<polygon fill="black" stroke="black" points="442.5,-205.99 446,-215.99 449.5,-205.99 442.5,-205.99"/>
</g>
<!-- AppConfigService -->
<g id="node4" class="node">
<title>AppConfigService</title>
<ellipse fill="#fdb462" stroke="black" cx="555" cy="-104" rx="83.39" ry="18"/>
<text text-anchor="middle" x="555" y="-99.8" font-family="Times,serif" font-size="14.00">AppConfigService</text>
</g>
<!-- AppConfigService&#45;&gt;JobQueueOverviewModule -->
<g id="edge3" class="edge">
<title>AppConfigService&#45;&gt;JobQueueOverviewModule</title>
<path fill="none" stroke="black" d="M501.46,-118.1C501.46,-118.1 501.46,-140.72 501.46,-140.72"/>
<polygon fill="black" stroke="black" points="497.96,-140.72 501.46,-150.72 504.96,-140.72 497.96,-140.72"/>
</g>
<!-- JobQueueOverviewService -->
<g id="node5" class="node">
<title>JobQueueOverviewService</title>
<ellipse fill="#fdb462" stroke="black" cx="337" cy="-104" rx="116.86" ry="18"/>
<text text-anchor="middle" x="337" y="-99.8" font-family="Times,serif" font-size="14.00">JobQueueOverviewService</text>
</g>
<!-- JobQueueOverviewService&#45;&gt;JobQueueOverviewModule -->
<g id="edge4" class="edge">
<title>JobQueueOverviewService&#45;&gt;JobQueueOverviewModule</title>
<path fill="none" stroke="black" d="M407.16,-118.43C407.16,-118.43 407.16,-140.89 407.16,-140.89"/>
<polygon fill="black" stroke="black" points="403.66,-140.89 407.16,-150.89 410.66,-140.89 403.66,-140.89"/>
</g>
<!-- imx_SessionService -->
<g id="node6" class="node">
<title>imx_SessionService</title>
<ellipse fill="#fdb462" stroke="black" cx="113" cy="-104" rx="89.2" ry="18"/>
<text text-anchor="middle" x="113" y="-99.8" font-family="Times,serif" font-size="14.00">imx_SessionService</text>
</g>
<!-- imx_SessionService&#45;&gt;JobQueueOverviewModule -->
<g id="edge5" class="edge">
<title>imx_SessionService&#45;&gt;JobQueueOverviewModule</title>
<path fill="none" stroke="black" d="M113,-122.11C113,-141.34 113,-169 113,-169 113,-169 350.68,-169 350.68,-169"/>
<polygon fill="black" stroke="black" points="350.68,-172.5 360.68,-169 350.68,-165.5 350.68,-172.5"/>
</g>
</g>
</svg>
