<?xml version="1.0" encoding="UTF-8" standalone="no"?>
<!DOCTYPE svg PUBLIC "-//W3C//DTD SVG 1.1//EN"
 "http://www.w3.org/Graphics/SVG/1.1/DTD/svg11.dtd">
<!-- Generated by graphviz version 2.47.0 (20210316.0004)
 -->
<!-- Title: dependencies Pages: 1 -->
<svg width="1831pt" height="284pt"
 viewBox="0.00 0.00 1831.00 284.00" xmlns="http://www.w3.org/2000/svg" xmlns:xlink="http://www.w3.org/1999/xlink">
<g id="graph0" class="graph" transform="scale(1 1) rotate(0) translate(4 280)">
<title>dependencies</title>
<polygon fill="white" stroke="transparent" points="-4,4 -4,-280 1827,-280 1827,4 -4,4"/>
<text text-anchor="start" x="890.51" y="-42.4" font-family="Times-12" font-weight="bold" font-size="14.00">Legend</text>
<polygon fill="#ffffb3" stroke="transparent" points="677.5,-10 677.5,-30 697.5,-30 697.5,-10 677.5,-10"/>
<text text-anchor="start" x="701.13" y="-15.4" font-family="Times-12" font-size="14.00"> &#160;Declarations</text>
<polygon fill="#8dd3c7" stroke="transparent" points="790.5,-10 790.5,-30 810.5,-30 810.5,-10 790.5,-10"/>
<text text-anchor="start" x="814.23" y="-15.4" font-family="Times-12" font-size="14.00"> &#160;Module</text>
<polygon fill="#80b1d3" stroke="transparent" points="876.5,-10 876.5,-30 896.5,-30 896.5,-10 876.5,-10"/>
<text text-anchor="start" x="900.28" y="-15.4" font-family="Times-12" font-size="14.00"> &#160;Bootstrap</text>
<polygon fill="#fdb462" stroke="transparent" points="973.5,-10 973.5,-30 993.5,-30 993.5,-10 973.5,-10"/>
<text text-anchor="start" x="997.17" y="-15.4" font-family="Times-12" font-size="14.00"> &#160;Providers</text>
<polygon fill="#fb8072" stroke="transparent" points="1069.5,-10 1069.5,-30 1089.5,-30 1089.5,-10 1069.5,-10"/>
<text text-anchor="start" x="1093.23" y="-15.4" font-family="Times-12" font-size="14.00"> &#160;Exports</text>
<g id="clust1" class="cluster">
<title>cluster_SqlWizardModule</title>
<polygon fill="none" stroke="black" stroke-dasharray="1,5" points="8,-70 8,-268 1815,-268 1815,-70 8,-70"/>
</g>
<g id="clust14" class="cluster">
<title>cluster_SqlWizardModule_providers</title>
<polygon fill="none" stroke="black" points="1629,-78 1629,-130 1807,-130 1807,-78 1629,-78"/>
</g>
<g id="clust2" class="cluster">
<title>cluster_SqlWizardModule_declarations</title>
<polygon fill="none" stroke="black" points="120,-78 120,-130 1621,-130 1621,-78 120,-78"/>
</g>
<g id="clust11" class="cluster">
<title>cluster_SqlWizardModule_imports</title>
<polygon fill="none" stroke="black" points="16,-78 16,-130 112,-130 112,-78 16,-78"/>
</g>
<g id="clust12" class="cluster">
<title>cluster_SqlWizardModule_exports</title>
<polygon fill="none" stroke="black" points="793,-208 793,-260 953,-260 953,-208 793,-208"/>
</g>
<!-- ColumnSelectionComponent -->
<g id="node1" class="node">
<title>ColumnSelectionComponent</title>
<polygon fill="#ffffb3" stroke="black" points="1613.05,-122 1434.95,-122 1434.95,-86 1613.05,-86 1613.05,-122"/>
<text text-anchor="middle" x="1524" y="-99.8" font-family="Times,serif" font-size="14.00">ColumnSelectionComponent</text>
</g>
<!-- SqlWizardModule -->
<g id="node9" class="node">
<title>SqlWizardModule</title>
<polygon fill="#8dd3c7" stroke="black" points="932.92,-187 929.92,-191 908.92,-191 905.92,-187 813.08,-187 813.08,-151 932.92,-151 932.92,-187"/>
<text text-anchor="middle" x="873" y="-164.8" font-family="Times,serif" font-size="14.00">SqlWizardModule</text>
</g>
<!-- ColumnSelectionComponent&#45;&gt;SqlWizardModule -->
<g id="edge1" class="edge">
<title>ColumnSelectionComponent&#45;&gt;SqlWizardModule</title>
<path fill="none" stroke="black" d="M1524,-122.13C1524,-142.57 1524,-173 1524,-173 1524,-173 942.79,-173 942.79,-173"/>
<polygon fill="black" stroke="black" points="942.79,-169.5 932.79,-173 942.79,-176.5 942.79,-169.5"/>
</g>
<!-- DatePickerComponent -->
<g id="node2" class="node">
<title>DatePickerComponent</title>
<polygon fill="#ffffb3" stroke="black" points="1416.52,-122 1273.48,-122 1273.48,-86 1416.52,-86 1416.52,-122"/>
<text text-anchor="middle" x="1345" y="-99.8" font-family="Times,serif" font-size="14.00">DatePickerComponent</text>
</g>
<!-- DatePickerComponent&#45;&gt;SqlWizardModule -->
<g id="edge2" class="edge">
<title>DatePickerComponent&#45;&gt;SqlWizardModule</title>
<path fill="none" stroke="black" d="M1345,-122.27C1345,-140.56 1345,-166 1345,-166 1345,-166 942.78,-166 942.78,-166"/>
<polygon fill="black" stroke="black" points="942.78,-162.5 932.78,-166 942.78,-169.5 942.78,-162.5"/>
</g>
<!-- SimpleExpressionComponent -->
<g id="node3" class="node">
<title>SimpleExpressionComponent</title>
<polygon fill="#ffffb3" stroke="black" points="1255.71,-122 1072.29,-122 1072.29,-86 1255.71,-86 1255.71,-122"/>
<text text-anchor="middle" x="1164" y="-99.8" font-family="Times,serif" font-size="14.00">SimpleExpressionComponent</text>
</g>
<!-- SimpleExpressionComponent&#45;&gt;SqlWizardModule -->
<g id="edge3" class="edge">
<title>SimpleExpressionComponent&#45;&gt;SqlWizardModule</title>
<path fill="none" stroke="black" d="M1164,-122.01C1164,-138.05 1164,-159 1164,-159 1164,-159 942.94,-159 942.94,-159"/>
<polygon fill="black" stroke="black" points="942.94,-155.5 932.94,-159 942.94,-162.5 942.94,-155.5"/>
</g>
<!-- SingleExpressionComponent -->
<g id="node4" class="node">
<title>SingleExpressionComponent</title>
<polygon fill="#ffffb3" stroke="black" points="1054.82,-122 875.18,-122 875.18,-86 1054.82,-86 1054.82,-122"/>
<text text-anchor="middle" x="965" y="-99.8" font-family="Times,serif" font-size="14.00">SingleExpressionComponent</text>
</g>
<!-- SingleExpressionComponent&#45;&gt;SqlWizardModule -->
<g id="edge4" class="edge">
<title>SingleExpressionComponent&#45;&gt;SqlWizardModule</title>
<path fill="none" stroke="black" d="M904.02,-122.11C904.02,-122.11 904.02,-140.99 904.02,-140.99"/>
<polygon fill="black" stroke="black" points="900.52,-140.99 904.02,-150.99 907.52,-140.99 900.52,-140.99"/>
</g>
<!-- SingleValueComponent -->
<g id="node5" class="node">
<title>SingleValueComponent</title>
<polygon fill="#ffffb3" stroke="black" points="857.04,-122 706.96,-122 706.96,-86 857.04,-86 857.04,-122"/>
<text text-anchor="middle" x="782" y="-99.8" font-family="Times,serif" font-size="14.00">SingleValueComponent</text>
</g>
<!-- SingleValueComponent&#45;&gt;SqlWizardModule -->
<g id="edge5" class="edge">
<title>SingleValueComponent&#45;&gt;SqlWizardModule</title>
<path fill="none" stroke="black" d="M835.28,-122.11C835.28,-122.11 835.28,-140.99 835.28,-140.99"/>
<polygon fill="black" stroke="black" points="831.78,-140.99 835.28,-150.99 838.78,-140.99 831.78,-140.99"/>
</g>
<!-- SqlWizardComponent -->
<g id="node6" class="node">
<title>SqlWizardComponent</title>
<polygon fill="#ffffb3" stroke="black" points="688.7,-122 547.3,-122 547.3,-86 688.7,-86 688.7,-122"/>
<text text-anchor="middle" x="618" y="-99.8" font-family="Times,serif" font-size="14.00">SqlWizardComponent</text>
</g>
<!-- SqlWizardComponent&#45;&gt;SqlWizardModule -->
<g id="edge6" class="edge">
<title>SqlWizardComponent&#45;&gt;SqlWizardModule</title>
<path fill="none" stroke="black" d="M618,-122.01C618,-138.05 618,-159 618,-159 618,-159 803.21,-159 803.21,-159"/>
<polygon fill="black" stroke="black" points="803.21,-162.5 813.21,-159 803.21,-155.5 803.21,-162.5"/>
</g>
<!-- TableSelectionComponent -->
<g id="node7" class="node">
<title>TableSelectionComponent</title>
<polygon fill="#ffffb3" stroke="black" points="529.8,-122 364.2,-122 364.2,-86 529.8,-86 529.8,-122"/>
<text text-anchor="middle" x="447" y="-99.8" font-family="Times,serif" font-size="14.00">TableSelectionComponent</text>
</g>
<!-- TableSelectionComponent&#45;&gt;SqlWizardModule -->
<g id="edge7" class="edge">
<title>TableSelectionComponent&#45;&gt;SqlWizardModule</title>
<path fill="none" stroke="black" d="M447,-122.27C447,-140.56 447,-166 447,-166 447,-166 802.87,-166 802.87,-166"/>
<polygon fill="black" stroke="black" points="802.87,-169.5 812.87,-166 802.87,-162.5 802.87,-169.5"/>
</g>
<!-- WhereClauseExpressionComponent -->
<g id="node8" class="node">
<title>WhereClauseExpressionComponent</title>
<polygon fill="#ffffb3" stroke="black" points="346.45,-122 127.55,-122 127.55,-86 346.45,-86 346.45,-122"/>
<text text-anchor="middle" x="237" y="-99.8" font-family="Times,serif" font-size="14.00">WhereClauseExpressionComponent</text>
</g>
<!-- WhereClauseExpressionComponent&#45;&gt;SqlWizardModule -->
<g id="edge8" class="edge">
<title>WhereClauseExpressionComponent&#45;&gt;SqlWizardModule</title>
<path fill="none" stroke="black" d="M237,-122.13C237,-142.57 237,-173 237,-173 237,-173 803.17,-173 803.17,-173"/>
<polygon fill="black" stroke="black" points="803.17,-176.5 813.17,-173 803.17,-169.5 803.17,-176.5"/>
</g>
<!-- SqlWizardComponent  -->
<g id="node11" class="node">
<title>SqlWizardComponent </title>
<polygon fill="#fb8072" stroke="black" points="945.2,-252 800.8,-252 800.8,-216 945.2,-216 945.2,-252"/>
<text text-anchor="middle" x="873" y="-229.8" font-family="Times,serif" font-size="14.00">SqlWizardComponent </text>
</g>
<!-- SqlWizardModule&#45;&gt;SqlWizardComponent  -->
<g id="edge10" class="edge">
<title>SqlWizardModule&#45;&gt;SqlWizardComponent </title>
<path fill="none" stroke="black" stroke-dasharray="5,2" d="M873,-187.11C873,-187.11 873,-205.99 873,-205.99"/>
<polygon fill="black" stroke="black" points="869.5,-205.99 873,-215.99 876.5,-205.99 869.5,-205.99"/>
</g>
<!-- CdrModule -->
<g id="node10" class="node">
<title>CdrModule</title>
<polygon fill="#8dd3c7" stroke="black" points="104.05,-122 101.05,-126 80.05,-126 77.05,-122 23.95,-122 23.95,-86 104.05,-86 104.05,-122"/>
<text text-anchor="middle" x="64" y="-99.8" font-family="Times,serif" font-size="14.00">CdrModule</text>
</g>
<!-- CdrModule&#45;&gt;SqlWizardModule -->
<g id="edge9" class="edge">
<title>CdrModule&#45;&gt;SqlWizardModule</title>
<path fill="none" stroke="black" d="M64,-122.01C64,-144.49 64,-180 64,-180 64,-180 803.18,-180 803.18,-180"/>
<polygon fill="black" stroke="black" points="803.18,-183.5 813.18,-180 803.18,-176.5 803.18,-183.5"/>
</g>
<!-- SqlWizardService -->
<g id="node12" class="node">
<title>SqlWizardService</title>
<ellipse fill="#fdb462" stroke="black" cx="1718" cy="-104" rx="81.08" ry="18"/>
<text text-anchor="middle" x="1718" y="-99.8" font-family="Times,serif" font-size="14.00">SqlWizardService</text>
</g>
<!-- SqlWizardService&#45;&gt;SqlWizardModule -->
<g id="edge11" class="edge">
<title>SqlWizardService&#45;&gt;SqlWizardModule</title>
<path fill="none" stroke="black" d="M1718,-122.01C1718,-144.49 1718,-180 1718,-180 1718,-180 942.76,-180 942.76,-180"/>
<polygon fill="black" stroke="black" points="942.76,-176.5 932.76,-180 942.76,-183.5 942.76,-176.5"/>
</g>
</g>
</svg>
