<?xml version="1.0" encoding="UTF-8" standalone="no"?>
<!DOCTYPE svg PUBLIC "-//W3C//DTD SVG 1.1//EN"
 "http://www.w3.org/Graphics/SVG/1.1/DTD/svg11.dtd">
<!-- Generated by graphviz version 2.47.0 (20210316.0004)
 -->
<!-- Title: dependencies Pages: 1 -->
<svg width="504pt" height="284pt"
 viewBox="0.00 0.00 504.00 284.00" xmlns="http://www.w3.org/2000/svg" xmlns:xlink="http://www.w3.org/1999/xlink">
<g id="graph0" class="graph" transform="scale(1 1) rotate(0) translate(4 280)">
<title>dependencies</title>
<polygon fill="white" stroke="transparent" points="-4,4 -4,-280 500,-280 500,4 -4,4"/>
<text text-anchor="start" x="227.01" y="-42.4" font-family="Times-12" font-weight="bold" font-size="14.00">Legend</text>
<polygon fill="#ffffb3" stroke="transparent" points="14,-10 14,-30 34,-30 34,-10 14,-10"/>
<text text-anchor="start" x="37.63" y="-15.4" font-family="Times-12" font-size="14.00"> &#160;Declarations</text>
<polygon fill="#8dd3c7" stroke="transparent" points="127,-10 127,-30 147,-30 147,-10 127,-10"/>
<text text-anchor="start" x="150.73" y="-15.4" font-family="Times-12" font-size="14.00"> &#160;Module</text>
<polygon fill="#80b1d3" stroke="transparent" points="213,-10 213,-30 233,-30 233,-10 213,-10"/>
<text text-anchor="start" x="236.78" y="-15.4" font-family="Times-12" font-size="14.00"> &#160;Bootstrap</text>
<polygon fill="#fdb462" stroke="transparent" points="310,-10 310,-30 330,-30 330,-10 310,-10"/>
<text text-anchor="start" x="333.67" y="-15.4" font-family="Times-12" font-size="14.00"> &#160;Providers</text>
<polygon fill="#fb8072" stroke="transparent" points="406,-10 406,-30 426,-30 426,-10 406,-10"/>
<text text-anchor="start" x="429.73" y="-15.4" font-family="Times-12" font-size="14.00"> &#160;Exports</text>
<g id="clust1" class="cluster">
<title>cluster_MastHeadModule</title>
<polygon fill="none" stroke="black" stroke-dasharray="1,5" points="71,-70 71,-268 425,-268 425,-70 71,-70"/>
</g>
<g id="clust5" class="cluster">
<title>cluster_MastHeadModule_exports</title>
<polygon fill="none" stroke="black" points="173,-208 173,-260 331,-260 331,-208 173,-208"/>
</g>
<g id="clust2" class="cluster">
<title>cluster_MastHeadModule_declarations</title>
<polygon fill="none" stroke="black" points="263,-78 263,-130 417,-130 417,-78 263,-78"/>
</g>
<g id="clust7" class="cluster">
<title>cluster_MastHeadModule_providers</title>
<polygon fill="none" stroke="black" points="79,-78 79,-130 255,-130 255,-78 79,-78"/>
</g>
<!-- MastHeadComponent -->
<g id="node1" class="node">
<title>MastHeadComponent</title>
<polygon fill="#ffffb3" stroke="black" points="409.36,-122 270.64,-122 270.64,-86 409.36,-86 409.36,-122"/>
<text text-anchor="middle" x="340" y="-99.8" font-family="Times,serif" font-size="14.00">MastHeadComponent</text>
</g>
<!-- MastHeadModule -->
<g id="node2" class="node">
<title>MastHeadModule</title>
<polygon fill="#8dd3c7" stroke="black" points="310.58,-187 307.58,-191 286.58,-191 283.58,-187 193.42,-187 193.42,-151 310.58,-151 310.58,-187"/>
<text text-anchor="middle" x="252" y="-164.8" font-family="Times,serif" font-size="14.00">MastHeadModule</text>
</g>
<!-- MastHeadComponent&#45;&gt;MastHeadModule -->
<g id="edge1" class="edge">
<title>MastHeadComponent&#45;&gt;MastHeadModule</title>
<path fill="none" stroke="black" d="M290.55,-122.11C290.55,-122.11 290.55,-140.99 290.55,-140.99"/>
<polygon fill="black" stroke="black" points="287.05,-140.99 290.55,-150.99 294.05,-140.99 287.05,-140.99"/>
</g>
<!-- MastHeadComponent  -->
<g id="node3" class="node">
<title>MastHeadComponent </title>
<polygon fill="#fb8072" stroke="black" points="323.36,-252 180.64,-252 180.64,-216 323.36,-216 323.36,-252"/>
<text text-anchor="middle" x="252" y="-229.8" font-family="Times,serif" font-size="14.00">MastHeadComponent </text>
</g>
<!-- MastHeadModule&#45;&gt;MastHeadComponent  -->
<g id="edge2" class="edge">
<title>MastHeadModule&#45;&gt;MastHeadComponent </title>
<path fill="none" stroke="black" stroke-dasharray="5,2" d="M252,-187.11C252,-187.11 252,-205.99 252,-205.99"/>
<polygon fill="black" stroke="black" points="248.5,-205.99 252,-215.99 255.5,-205.99 248.5,-205.99"/>
</g>
<!-- MastHeadService -->
<g id="node4" class="node">
<title>MastHeadService</title>
<ellipse fill="#fdb462" stroke="black" cx="167" cy="-104" rx="79.85" ry="18"/>
<text text-anchor="middle" x="167" y="-99.8" font-family="Times,serif" font-size="14.00">MastHeadService</text>
</g>
<!-- MastHeadService&#45;&gt;MastHeadModule -->
<g id="edge3" class="edge">
<title>MastHeadService&#45;&gt;MastHeadModule</title>
<path fill="none" stroke="black" d="M220.07,-117.47C220.07,-117.47 220.07,-140.86 220.07,-140.86"/>
<polygon fill="black" stroke="black" points="216.57,-140.86 220.07,-150.86 223.57,-140.86 216.57,-140.86"/>
</g>
</g>
</svg>
