<?xml version="1.0" encoding="UTF-8" standalone="no"?>
<!DOCTYPE svg PUBLIC "-//W3C//DTD SVG 1.1//EN"
 "http://www.w3.org/Graphics/SVG/1.1/DTD/svg11.dtd">
<!-- Generated by graphviz version 2.47.0 (20210316.0004)
 -->
<!-- Title: dependencies Pages: 1 -->
<svg width="1381pt" height="284pt"
 viewBox="0.00 0.00 1381.00 284.00" xmlns="http://www.w3.org/2000/svg" xmlns:xlink="http://www.w3.org/1999/xlink">
<g id="graph0" class="graph" transform="scale(1 1) rotate(0) translate(4 280)">
<title>dependencies</title>
<polygon fill="white" stroke="transparent" points="-4,4 -4,-280 1377,-280 1377,4 -4,4"/>
<text text-anchor="start" x="665.51" y="-42.4" font-family="Times-12" font-weight="bold" font-size="14.00">Legend</text>
<polygon fill="#ffffb3" stroke="transparent" points="452.5,-10 452.5,-30 472.5,-30 472.5,-10 452.5,-10"/>
<text text-anchor="start" x="476.13" y="-15.4" font-family="Times-12" font-size="14.00"> &#160;Declarations</text>
<polygon fill="#8dd3c7" stroke="transparent" points="565.5,-10 565.5,-30 585.5,-30 585.5,-10 565.5,-10"/>
<text text-anchor="start" x="589.23" y="-15.4" font-family="Times-12" font-size="14.00"> &#160;Module</text>
<polygon fill="#80b1d3" stroke="transparent" points="651.5,-10 651.5,-30 671.5,-30 671.5,-10 651.5,-10"/>
<text text-anchor="start" x="675.28" y="-15.4" font-family="Times-12" font-size="14.00"> &#160;Bootstrap</text>
<polygon fill="#fdb462" stroke="transparent" points="748.5,-10 748.5,-30 768.5,-30 768.5,-10 748.5,-10"/>
<text text-anchor="start" x="772.17" y="-15.4" font-family="Times-12" font-size="14.00"> &#160;Providers</text>
<polygon fill="#fb8072" stroke="transparent" points="844.5,-10 844.5,-30 864.5,-30 864.5,-10 844.5,-10"/>
<text text-anchor="start" x="868.23" y="-15.4" font-family="Times-12" font-size="14.00"> &#160;Exports</text>
<g id="clust1" class="cluster">
<title>cluster_FilterWizardModule</title>
<polygon fill="none" stroke="black" stroke-dasharray="1,5" points="8,-70 8,-268 1365,-268 1365,-70 8,-70"/>
</g>
<g id="clust2" class="cluster">
<title>cluster_FilterWizardModule_declarations</title>
<polygon fill="none" stroke="black" points="782,-78 782,-130 1357,-130 1357,-78 782,-78"/>
</g>
<g id="clust6" class="cluster">
<title>cluster_FilterWizardModule_imports</title>
<polygon fill="none" stroke="black" points="16,-78 16,-130 774,-130 774,-78 16,-78"/>
</g>
<g id="clust7" class="cluster">
<title>cluster_FilterWizardModule_exports</title>
<polygon fill="none" stroke="black" points="534,-208 534,-260 706,-260 706,-208 534,-208"/>
</g>
<!-- FilterWizardComponent -->
<g id="node1" class="node">
<title>FilterWizardComponent</title>
<polygon fill="#ffffb3" stroke="black" points="1349.36,-122 1196.64,-122 1196.64,-86 1349.36,-86 1349.36,-122"/>
<text text-anchor="middle" x="1273" y="-99.8" font-family="Times,serif" font-size="14.00">FilterWizardComponent</text>
</g>
<!-- FilterWizardModule -->
<g id="node4" class="node">
<title>FilterWizardModule</title>
<polygon fill="#8dd3c7" stroke="black" points="685.57,-187 682.57,-191 661.57,-191 658.57,-187 554.43,-187 554.43,-151 685.57,-151 685.57,-187"/>
<text text-anchor="middle" x="620" y="-164.8" font-family="Times,serif" font-size="14.00">FilterWizardModule</text>
</g>
<!-- FilterWizardComponent&#45;&gt;FilterWizardModule -->
<g id="edge1" class="edge">
<title>FilterWizardComponent&#45;&gt;FilterWizardModule</title>
<path fill="none" stroke="black" d="M1273,-122.29C1273,-144.21 1273,-178 1273,-178 1273,-178 695.6,-178 695.6,-178"/>
<polygon fill="black" stroke="black" points="695.6,-174.5 685.6,-178 695.6,-181.5 695.6,-174.5"/>
</g>
<!-- PredefinedFilterComponent -->
<g id="node2" class="node">
<title>PredefinedFilterComponent</title>
<polygon fill="#ffffb3" stroke="black" points="1178.3,-122 1005.7,-122 1005.7,-86 1178.3,-86 1178.3,-122"/>
<text text-anchor="middle" x="1092" y="-99.8" font-family="Times,serif" font-size="14.00">PredefinedFilterComponent</text>
</g>
<!-- PredefinedFilterComponent&#45;&gt;FilterWizardModule -->
<g id="edge2" class="edge">
<title>PredefinedFilterComponent&#45;&gt;FilterWizardModule</title>
<path fill="none" stroke="black" d="M1092,-122.11C1092,-141.34 1092,-169 1092,-169 1092,-169 695.63,-169 695.63,-169"/>
<polygon fill="black" stroke="black" points="695.63,-165.5 685.63,-169 695.63,-172.5 695.63,-165.5"/>
</g>
<!-- PredefinedFilterTreeComponent -->
<g id="node3" class="node">
<title>PredefinedFilterTreeComponent</title>
<polygon fill="#ffffb3" stroke="black" points="987.94,-122 790.06,-122 790.06,-86 987.94,-86 987.94,-122"/>
<text text-anchor="middle" x="889" y="-99.8" font-family="Times,serif" font-size="14.00">PredefinedFilterTreeComponent</text>
</g>
<!-- PredefinedFilterTreeComponent&#45;&gt;FilterWizardModule -->
<g id="edge3" class="edge">
<title>PredefinedFilterTreeComponent&#45;&gt;FilterWizardModule</title>
<path fill="none" stroke="black" d="M889,-122.03C889,-138.4 889,-160 889,-160 889,-160 695.8,-160 695.8,-160"/>
<polygon fill="black" stroke="black" points="695.8,-156.5 685.8,-160 695.8,-163.5 695.8,-156.5"/>
</g>
<!-- FilterWizardComponent  -->
<g id="node10" class="node">
<title>FilterWizardComponent </title>
<polygon fill="#fb8072" stroke="black" points="698.36,-252 541.64,-252 541.64,-216 698.36,-216 698.36,-252"/>
<text text-anchor="middle" x="620" y="-229.8" font-family="Times,serif" font-size="14.00">FilterWizardComponent </text>
</g>
<!-- FilterWizardModule&#45;&gt;FilterWizardComponent  -->
<g id="edge9" class="edge">
<title>FilterWizardModule&#45;&gt;FilterWizardComponent </title>
<path fill="none" stroke="black" stroke-dasharray="5,2" d="M620,-187.11C620,-187.11 620,-205.99 620,-205.99"/>
<polygon fill="black" stroke="black" points="616.5,-205.99 620,-215.99 623.5,-205.99 616.5,-205.99"/>
</g>
<!-- ClassloggerModule -->
<g id="node5" class="node">
<title>ClassloggerModule</title>
<polygon fill="#8dd3c7" stroke="black" points="765.65,-122 762.65,-126 741.65,-126 738.65,-122 640.35,-122 640.35,-86 765.65,-86 765.65,-122"/>
<text text-anchor="middle" x="703" y="-99.8" font-family="Times,serif" font-size="14.00">ClassloggerModule</text>
</g>
<!-- ClassloggerModule&#45;&gt;FilterWizardModule -->
<g id="edge4" class="edge">
<title>ClassloggerModule&#45;&gt;FilterWizardModule</title>
<path fill="none" stroke="black" d="M662.86,-122.11C662.86,-122.11 662.86,-140.99 662.86,-140.99"/>
<polygon fill="black" stroke="black" points="659.36,-140.99 662.86,-150.99 666.36,-140.99 659.36,-140.99"/>
</g>
<!-- DataSourceToolbarModule -->
<g id="node6" class="node">
<title>DataSourceToolbarModule</title>
<polygon fill="#8dd3c7" stroke="black" points="622.67,-122 619.67,-126 598.67,-126 595.67,-122 453.33,-122 453.33,-86 622.67,-86 622.67,-122"/>
<text text-anchor="middle" x="538" y="-99.8" font-family="Times,serif" font-size="14.00">DataSourceToolbarModule</text>
</g>
<!-- DataSourceToolbarModule&#45;&gt;FilterWizardModule -->
<g id="edge5" class="edge">
<title>DataSourceToolbarModule&#45;&gt;FilterWizardModule</title>
<path fill="none" stroke="black" d="M588.52,-122.11C588.52,-122.11 588.52,-140.99 588.52,-140.99"/>
<polygon fill="black" stroke="black" points="585.02,-140.99 588.52,-150.99 592.02,-140.99 585.02,-140.99"/>
</g>
<!-- LdsReplaceModule -->
<g id="node7" class="node">
<title>LdsReplaceModule</title>
<polygon fill="#8dd3c7" stroke="black" points="435.63,-122 432.63,-126 411.63,-126 408.63,-122 310.37,-122 310.37,-86 435.63,-86 435.63,-122"/>
<text text-anchor="middle" x="373" y="-99.8" font-family="Times,serif" font-size="14.00">LdsReplaceModule</text>
</g>
<!-- LdsReplaceModule&#45;&gt;FilterWizardModule -->
<g id="edge6" class="edge">
<title>LdsReplaceModule&#45;&gt;FilterWizardModule</title>
<path fill="none" stroke="black" d="M373,-122.03C373,-138.4 373,-160 373,-160 373,-160 544.46,-160 544.46,-160"/>
<polygon fill="black" stroke="black" points="544.46,-163.5 554.46,-160 544.46,-156.5 544.46,-163.5"/>
</g>
<!-- SidenavTreeModule -->
<g id="node8" class="node">
<title>SidenavTreeModule</title>
<polygon fill="#8dd3c7" stroke="black" points="292.29,-122 289.29,-126 268.29,-126 265.29,-122 161.71,-122 161.71,-86 292.29,-86 292.29,-122"/>
<text text-anchor="middle" x="227" y="-99.8" font-family="Times,serif" font-size="14.00">SidenavTreeModule</text>
</g>
<!-- SidenavTreeModule&#45;&gt;FilterWizardModule -->
<g id="edge7" class="edge">
<title>SidenavTreeModule&#45;&gt;FilterWizardModule</title>
<path fill="none" stroke="black" d="M227,-122.11C227,-141.34 227,-169 227,-169 227,-169 544.22,-169 544.22,-169"/>
<polygon fill="black" stroke="black" points="544.22,-172.5 554.22,-169 544.22,-165.5 544.22,-172.5"/>
</g>
<!-- SqlWizardModule -->
<g id="node9" class="node">
<title>SqlWizardModule</title>
<polygon fill="#8dd3c7" stroke="black" points="143.92,-122 140.92,-126 119.92,-126 116.92,-122 24.08,-122 24.08,-86 143.92,-86 143.92,-122"/>
<text text-anchor="middle" x="84" y="-99.8" font-family="Times,serif" font-size="14.00">SqlWizardModule</text>
</g>
<!-- SqlWizardModule&#45;&gt;FilterWizardModule -->
<g id="edge8" class="edge">
<title>SqlWizardModule&#45;&gt;FilterWizardModule</title>
<path fill="none" stroke="black" d="M84,-122.29C84,-144.21 84,-178 84,-178 84,-178 544.28,-178 544.28,-178"/>
<polygon fill="black" stroke="black" points="544.28,-181.5 554.28,-178 544.28,-174.5 544.28,-181.5"/>
</g>
</g>
</svg>
