<?xml version="1.0" encoding="UTF-8" standalone="no"?>
<!DOCTYPE svg PUBLIC "-//W3C//DTD SVG 1.1//EN"
 "http://www.w3.org/Graphics/SVG/1.1/DTD/svg11.dtd">
<!-- Generated by graphviz version 2.47.0 (20210316.0004)
 -->
<!-- Title: dependencies Pages: 1 -->
<svg width="1340pt" height="284pt"
 viewBox="0.00 0.00 1340.00 284.00" xmlns="http://www.w3.org/2000/svg" xmlns:xlink="http://www.w3.org/1999/xlink">
<g id="graph0" class="graph" transform="scale(1 1) rotate(0) translate(4 280)">
<title>dependencies</title>
<polygon fill="white" stroke="transparent" points="-4,4 -4,-280 1336,-280 1336,4 -4,4"/>
<text text-anchor="start" x="645.01" y="-42.4" font-family="Times-12" font-weight="bold" font-size="14.00">Legend</text>
<polygon fill="#ffffb3" stroke="transparent" points="432,-10 432,-30 452,-30 452,-10 432,-10"/>
<text text-anchor="start" x="455.63" y="-15.4" font-family="Times-12" font-size="14.00"> &#160;Declarations</text>
<polygon fill="#8dd3c7" stroke="transparent" points="545,-10 545,-30 565,-30 565,-10 545,-10"/>
<text text-anchor="start" x="568.73" y="-15.4" font-family="Times-12" font-size="14.00"> &#160;Module</text>
<polygon fill="#80b1d3" stroke="transparent" points="631,-10 631,-30 651,-30 651,-10 631,-10"/>
<text text-anchor="start" x="654.78" y="-15.4" font-family="Times-12" font-size="14.00"> &#160;Bootstrap</text>
<polygon fill="#fdb462" stroke="transparent" points="728,-10 728,-30 748,-30 748,-10 728,-10"/>
<text text-anchor="start" x="751.67" y="-15.4" font-family="Times-12" font-size="14.00"> &#160;Providers</text>
<polygon fill="#fb8072" stroke="transparent" points="824,-10 824,-30 844,-30 844,-10 824,-10"/>
<text text-anchor="start" x="847.73" y="-15.4" font-family="Times-12" font-size="14.00"> &#160;Exports</text>
<g id="clust1" class="cluster">
<title>cluster_DataTreeModule</title>
<polygon fill="none" stroke="black" stroke-dasharray="1,5" points="8,-70 8,-268 1324,-268 1324,-70 8,-70"/>
</g>
<g id="clust8" class="cluster">
<title>cluster_DataTreeModule_imports</title>
<polygon fill="none" stroke="black" points="1018,-78 1018,-130 1316,-130 1316,-78 1018,-78"/>
</g>
<g id="clust2" class="cluster">
<title>cluster_DataTreeModule_declarations</title>
<polygon fill="none" stroke="black" points="16,-78 16,-130 1010,-130 1010,-78 16,-78"/>
</g>
<g id="clust9" class="cluster">
<title>cluster_DataTreeModule_exports</title>
<polygon fill="none" stroke="black" points="675,-208 675,-260 827,-260 827,-208 675,-208"/>
</g>
<!-- CheckableTreeComponent -->
<g id="node1" class="node">
<title>CheckableTreeComponent</title>
<polygon fill="#ffffb3" stroke="black" points="1002.06,-122 835.94,-122 835.94,-86 1002.06,-86 1002.06,-122"/>
<text text-anchor="middle" x="919" y="-99.8" font-family="Times,serif" font-size="14.00">CheckableTreeComponent</text>
</g>
<!-- DataTreeModule -->
<g id="node6" class="node">
<title>DataTreeModule</title>
<polygon fill="#8dd3c7" stroke="black" points="806.62,-187 803.62,-191 782.62,-191 779.62,-187 695.38,-187 695.38,-151 806.62,-151 806.62,-187"/>
<text text-anchor="middle" x="751" y="-164.8" font-family="Times,serif" font-size="14.00">DataTreeModule</text>
</g>
<!-- CheckableTreeComponent&#45;&gt;DataTreeModule -->
<g id="edge1" class="edge">
<title>CheckableTreeComponent&#45;&gt;DataTreeModule</title>
<path fill="none" stroke="black" d="M919,-122.03C919,-138.4 919,-160 919,-160 919,-160 816.94,-160 816.94,-160"/>
<polygon fill="black" stroke="black" points="816.94,-156.5 806.94,-160 816.94,-163.5 816.94,-156.5"/>
</g>
<!-- DataTreeComponent -->
<g id="node2" class="node">
<title>DataTreeComponent</title>
<polygon fill="#ffffb3" stroke="black" points="817.9,-122 684.1,-122 684.1,-86 817.9,-86 817.9,-122"/>
<text text-anchor="middle" x="751" y="-99.8" font-family="Times,serif" font-size="14.00">DataTreeComponent</text>
</g>
<!-- DataTreeComponent&#45;&gt;DataTreeModule -->
<g id="edge2" class="edge">
<title>DataTreeComponent&#45;&gt;DataTreeModule</title>
<path fill="none" stroke="black" d="M751,-122.11C751,-122.11 751,-140.99 751,-140.99"/>
<polygon fill="black" stroke="black" points="747.5,-140.99 751,-150.99 754.5,-140.99 747.5,-140.99"/>
</g>
<!-- DataTreeSearchResultsComponent -->
<g id="node3" class="node">
<title>DataTreeSearchResultsComponent</title>
<polygon fill="#ffffb3" stroke="black" points="666.21,-122 453.79,-122 453.79,-86 666.21,-86 666.21,-122"/>
<text text-anchor="middle" x="560" y="-99.8" font-family="Times,serif" font-size="14.00">DataTreeSearchResultsComponent</text>
</g>
<!-- DataTreeSearchResultsComponent&#45;&gt;DataTreeModule -->
<g id="edge3" class="edge">
<title>DataTreeSearchResultsComponent&#45;&gt;DataTreeModule</title>
<path fill="none" stroke="black" d="M560,-122.03C560,-138.4 560,-160 560,-160 560,-160 685.24,-160 685.24,-160"/>
<polygon fill="black" stroke="black" points="685.24,-163.5 695.24,-160 685.24,-156.5 685.24,-163.5"/>
</g>
<!-- MatSelectionListMultipleDirective -->
<g id="node4" class="node">
<title>MatSelectionListMultipleDirective</title>
<polygon fill="#ffffb3" stroke="black" points="435.23,-122 222.77,-122 222.77,-86 435.23,-86 435.23,-122"/>
<text text-anchor="middle" x="329" y="-99.8" font-family="Times,serif" font-size="14.00">MatSelectionListMultipleDirective</text>
</g>
<!-- MatSelectionListMultipleDirective&#45;&gt;DataTreeModule -->
<g id="edge4" class="edge">
<title>MatSelectionListMultipleDirective&#45;&gt;DataTreeModule</title>
<path fill="none" stroke="black" d="M329,-122.11C329,-141.34 329,-169 329,-169 329,-169 684.96,-169 684.96,-169"/>
<polygon fill="black" stroke="black" points="684.96,-172.5 694.96,-169 684.96,-165.5 684.96,-172.5"/>
</g>
<!-- TreeSelectionListComponent -->
<g id="node5" class="node">
<title>TreeSelectionListComponent</title>
<polygon fill="#ffffb3" stroke="black" points="204.35,-122 23.65,-122 23.65,-86 204.35,-86 204.35,-122"/>
<text text-anchor="middle" x="114" y="-99.8" font-family="Times,serif" font-size="14.00">TreeSelectionListComponent</text>
</g>
<!-- TreeSelectionListComponent&#45;&gt;DataTreeModule -->
<g id="edge5" class="edge">
<title>TreeSelectionListComponent&#45;&gt;DataTreeModule</title>
<path fill="none" stroke="black" d="M114,-122.29C114,-144.21 114,-178 114,-178 114,-178 685.31,-178 685.31,-178"/>
<polygon fill="black" stroke="black" points="685.31,-181.5 695.31,-178 685.31,-174.5 685.31,-181.5"/>
</g>
<!-- DataTreeComponent  -->
<g id="node9" class="node">
<title>DataTreeComponent </title>
<polygon fill="#fb8072" stroke="black" points="819.4,-252 682.6,-252 682.6,-216 819.4,-216 819.4,-252"/>
<text text-anchor="middle" x="751" y="-229.8" font-family="Times,serif" font-size="14.00">DataTreeComponent </text>
</g>
<!-- DataTreeModule&#45;&gt;DataTreeComponent  -->
<g id="edge8" class="edge">
<title>DataTreeModule&#45;&gt;DataTreeComponent </title>
<path fill="none" stroke="black" stroke-dasharray="5,2" d="M751,-187.11C751,-187.11 751,-205.99 751,-205.99"/>
<polygon fill="black" stroke="black" points="747.5,-205.99 751,-215.99 754.5,-205.99 747.5,-205.99"/>
</g>
<!-- BusyIndicatorModule -->
<g id="node7" class="node">
<title>BusyIndicatorModule</title>
<polygon fill="#8dd3c7" stroke="black" points="1308.36,-122 1305.36,-126 1284.36,-126 1281.36,-122 1169.64,-122 1169.64,-86 1308.36,-86 1308.36,-122"/>
<text text-anchor="middle" x="1239" y="-99.8" font-family="Times,serif" font-size="14.00">BusyIndicatorModule</text>
</g>
<!-- BusyIndicatorModule&#45;&gt;DataTreeModule -->
<g id="edge6" class="edge">
<title>BusyIndicatorModule&#45;&gt;DataTreeModule</title>
<path fill="none" stroke="black" d="M1239,-122.29C1239,-144.21 1239,-178 1239,-178 1239,-178 816.98,-178 816.98,-178"/>
<polygon fill="black" stroke="black" points="816.98,-174.5 806.98,-178 816.98,-181.5 816.98,-174.5"/>
</g>
<!-- ClassloggerModule -->
<g id="node8" class="node">
<title>ClassloggerModule</title>
<polygon fill="#8dd3c7" stroke="black" points="1151.65,-122 1148.65,-126 1127.65,-126 1124.65,-122 1026.35,-122 1026.35,-86 1151.65,-86 1151.65,-122"/>
<text text-anchor="middle" x="1089" y="-99.8" font-family="Times,serif" font-size="14.00">ClassloggerModule</text>
</g>
<!-- ClassloggerModule&#45;&gt;DataTreeModule -->
<g id="edge7" class="edge">
<title>ClassloggerModule&#45;&gt;DataTreeModule</title>
<path fill="none" stroke="black" d="M1089,-122.11C1089,-141.34 1089,-169 1089,-169 1089,-169 816.81,-169 816.81,-169"/>
<polygon fill="black" stroke="black" points="816.81,-165.5 806.81,-169 816.81,-172.5 816.81,-165.5"/>
</g>
</g>
</svg>
