<?xml version="1.0" encoding="UTF-8" standalone="no"?>
<!DOCTYPE svg PUBLIC "-//W3C//DTD SVG 1.1//EN"
 "http://www.w3.org/Graphics/SVG/1.1/DTD/svg11.dtd">
<!-- Generated by graphviz version 2.47.0 (20210316.0004)
 -->
<!-- Title: dependencies Pages: 1 -->
<svg width="1239pt" height="284pt"
 viewBox="0.00 0.00 1239.00 284.00" xmlns="http://www.w3.org/2000/svg" xmlns:xlink="http://www.w3.org/1999/xlink">
<g id="graph0" class="graph" transform="scale(1 1) rotate(0) translate(4 280)">
<title>dependencies</title>
<polygon fill="white" stroke="transparent" points="-4,4 -4,-280 1235,-280 1235,4 -4,4"/>
<text text-anchor="start" x="594.51" y="-42.4" font-family="Times-12" font-weight="bold" font-size="14.00">Legend</text>
<polygon fill="#ffffb3" stroke="transparent" points="381.5,-10 381.5,-30 401.5,-30 401.5,-10 381.5,-10"/>
<text text-anchor="start" x="405.13" y="-15.4" font-family="Times-12" font-size="14.00"> &#160;Declarations</text>
<polygon fill="#8dd3c7" stroke="transparent" points="494.5,-10 494.5,-30 514.5,-30 514.5,-10 494.5,-10"/>
<text text-anchor="start" x="518.23" y="-15.4" font-family="Times-12" font-size="14.00"> &#160;Module</text>
<polygon fill="#80b1d3" stroke="transparent" points="580.5,-10 580.5,-30 600.5,-30 600.5,-10 580.5,-10"/>
<text text-anchor="start" x="604.28" y="-15.4" font-family="Times-12" font-size="14.00"> &#160;Bootstrap</text>
<polygon fill="#fdb462" stroke="transparent" points="677.5,-10 677.5,-30 697.5,-30 697.5,-10 677.5,-10"/>
<text text-anchor="start" x="701.17" y="-15.4" font-family="Times-12" font-size="14.00"> &#160;Providers</text>
<polygon fill="#fb8072" stroke="transparent" points="773.5,-10 773.5,-30 793.5,-30 793.5,-10 773.5,-10"/>
<text text-anchor="start" x="797.23" y="-15.4" font-family="Times-12" font-size="14.00"> &#160;Exports</text>
<g id="clust1" class="cluster">
<title>cluster_FkAdvancedPickerModule</title>
<polygon fill="none" stroke="black" stroke-dasharray="1,5" points="8,-70 8,-268 1223,-268 1223,-70 8,-70"/>
</g>
<g id="clust7" class="cluster">
<title>cluster_FkAdvancedPickerModule_exports</title>
<polygon fill="none" stroke="black" points="339,-208 339,-260 891,-260 891,-208 339,-208"/>
</g>
<g id="clust2" class="cluster">
<title>cluster_FkAdvancedPickerModule_declarations</title>
<polygon fill="none" stroke="black" points="675,-78 675,-130 1215,-130 1215,-78 675,-78"/>
</g>
<g id="clust6" class="cluster">
<title>cluster_FkAdvancedPickerModule_imports</title>
<polygon fill="none" stroke="black" points="16,-78 16,-130 667,-130 667,-78 16,-78"/>
</g>
<!-- FkAdvancedPickerComponent -->
<g id="node1" class="node">
<title>FkAdvancedPickerComponent</title>
<polygon fill="#ffffb3" stroke="black" points="1207.13,-122 1018.87,-122 1018.87,-86 1207.13,-86 1207.13,-122"/>
<text text-anchor="middle" x="1113" y="-99.8" font-family="Times,serif" font-size="14.00">FkAdvancedPickerComponent</text>
</g>
<!-- FkAdvancedPickerModule -->
<g id="node4" class="node">
<title>FkAdvancedPickerModule</title>
<polygon fill="#8dd3c7" stroke="black" points="675.35,-187 672.35,-191 651.35,-191 648.35,-187 508.65,-187 508.65,-151 675.35,-151 675.35,-187"/>
<text text-anchor="middle" x="592" y="-164.8" font-family="Times,serif" font-size="14.00">FkAdvancedPickerModule</text>
</g>
<!-- FkAdvancedPickerComponent&#45;&gt;FkAdvancedPickerModule -->
<g id="edge1" class="edge">
<title>FkAdvancedPickerComponent&#45;&gt;FkAdvancedPickerModule</title>
<path fill="none" stroke="black" d="M1113,-122.13C1113,-142.57 1113,-173 1113,-173 1113,-173 685.42,-173 685.42,-173"/>
<polygon fill="black" stroke="black" points="685.42,-169.5 675.42,-173 685.42,-176.5 685.42,-169.5"/>
</g>
<!-- FkCandidatesComponent -->
<g id="node2" class="node">
<title>FkCandidatesComponent</title>
<polygon fill="#ffffb3" stroke="black" points="1001.32,-122 842.68,-122 842.68,-86 1001.32,-86 1001.32,-122"/>
<text text-anchor="middle" x="922" y="-99.8" font-family="Times,serif" font-size="14.00">FkCandidatesComponent</text>
</g>
<!-- FkCandidatesComponent&#45;&gt;FkAdvancedPickerModule -->
<g id="edge2" class="edge">
<title>FkCandidatesComponent&#45;&gt;FkAdvancedPickerModule</title>
<path fill="none" stroke="black" d="M862.95,-122.27C862.95,-140.56 862.95,-166 862.95,-166 862.95,-166 685.51,-166 685.51,-166"/>
<polygon fill="black" stroke="black" points="685.51,-162.5 675.51,-166 685.51,-169.5 685.51,-162.5"/>
</g>
<!-- FkSelectorComponent -->
<g id="node3" class="node">
<title>FkSelectorComponent</title>
<polygon fill="#ffffb3" stroke="black" points="824.98,-122 683.02,-122 683.02,-86 824.98,-86 824.98,-122"/>
<text text-anchor="middle" x="754" y="-99.8" font-family="Times,serif" font-size="14.00">FkSelectorComponent</text>
</g>
<!-- FkSelectorComponent&#45;&gt;FkAdvancedPickerModule -->
<g id="edge3" class="edge">
<title>FkSelectorComponent&#45;&gt;FkAdvancedPickerModule</title>
<path fill="none" stroke="black" d="M686.97,-122.01C686.97,-138.05 686.97,-159 686.97,-159 686.97,-159 685.7,-159 685.7,-159"/>
<polygon fill="black" stroke="black" points="685.7,-155.5 675.7,-159 685.7,-162.5 685.7,-155.5"/>
</g>
<!-- FkAdvancedPickerComponent  -->
<g id="node9" class="node">
<title>FkAdvancedPickerComponent </title>
<polygon fill="#fb8072" stroke="black" points="883.13,-252 690.87,-252 690.87,-216 883.13,-216 883.13,-252"/>
<text text-anchor="middle" x="787" y="-229.8" font-family="Times,serif" font-size="14.00">FkAdvancedPickerComponent </text>
</g>
<!-- FkAdvancedPickerModule&#45;&gt;FkAdvancedPickerComponent  -->
<g id="edge8" class="edge">
<title>FkAdvancedPickerModule&#45;&gt;FkAdvancedPickerComponent </title>
<path fill="none" stroke="black" stroke-dasharray="5,2" d="M675.47,-180C716.8,-180 757.96,-180 757.96,-180 757.96,-180 757.96,-205.72 757.96,-205.72"/>
<polygon fill="black" stroke="black" points="754.46,-205.72 757.96,-215.72 761.46,-205.72 754.46,-205.72"/>
</g>
<!-- FkCandidatesComponent  -->
<g id="node10" class="node">
<title>FkCandidatesComponent </title>
<polygon fill="#fb8072" stroke="black" points="672.82,-252 511.18,-252 511.18,-216 672.82,-216 672.82,-252"/>
<text text-anchor="middle" x="592" y="-229.8" font-family="Times,serif" font-size="14.00">FkCandidatesComponent </text>
</g>
<!-- FkAdvancedPickerModule&#45;&gt;FkCandidatesComponent  -->
<g id="edge9" class="edge">
<title>FkAdvancedPickerModule&#45;&gt;FkCandidatesComponent </title>
<path fill="none" stroke="black" stroke-dasharray="5,2" d="M592,-187.11C592,-187.11 592,-205.99 592,-205.99"/>
<polygon fill="black" stroke="black" points="588.5,-205.99 592,-215.99 595.5,-205.99 588.5,-205.99"/>
</g>
<!-- FkSelectorComponent  -->
<g id="node11" class="node">
<title>FkSelectorComponent </title>
<polygon fill="#fb8072" stroke="black" points="492.98,-252 347.02,-252 347.02,-216 492.98,-216 492.98,-252"/>
<text text-anchor="middle" x="420" y="-229.8" font-family="Times,serif" font-size="14.00">FkSelectorComponent </text>
</g>
<!-- FkAdvancedPickerModule&#45;&gt;FkSelectorComponent  -->
<g id="edge10" class="edge">
<title>FkAdvancedPickerModule&#45;&gt;FkSelectorComponent </title>
<path fill="none" stroke="black" stroke-dasharray="5,2" d="M508.52,-180C464.7,-180 420,-180 420,-180 420,-180 420,-205.72 420,-205.72"/>
<polygon fill="black" stroke="black" points="416.5,-205.72 420,-215.72 423.5,-205.72 416.5,-205.72"/>
</g>
<!-- ConfirmationModule -->
<g id="node5" class="node">
<title>ConfirmationModule</title>
<polygon fill="#8dd3c7" stroke="black" points="659.48,-122 656.48,-126 635.48,-126 632.48,-122 524.52,-122 524.52,-86 659.48,-86 659.48,-122"/>
<text text-anchor="middle" x="592" y="-99.8" font-family="Times,serif" font-size="14.00">ConfirmationModule</text>
</g>
<!-- ConfirmationModule&#45;&gt;FkAdvancedPickerModule -->
<g id="edge4" class="edge">
<title>ConfirmationModule&#45;&gt;FkAdvancedPickerModule</title>
<path fill="none" stroke="black" d="M592,-122.11C592,-122.11 592,-140.99 592,-140.99"/>
<polygon fill="black" stroke="black" points="588.5,-140.99 592,-150.99 595.5,-140.99 588.5,-140.99"/>
</g>
<!-- DataSourceToolbarModule -->
<g id="node6" class="node">
<title>DataSourceToolbarModule</title>
<polygon fill="#8dd3c7" stroke="black" points="506.67,-122 503.67,-126 482.67,-126 479.67,-122 337.33,-122 337.33,-86 506.67,-86 506.67,-122"/>
<text text-anchor="middle" x="422" y="-99.8" font-family="Times,serif" font-size="14.00">DataSourceToolbarModule</text>
</g>
<!-- DataSourceToolbarModule&#45;&gt;FkAdvancedPickerModule -->
<g id="edge5" class="edge">
<title>DataSourceToolbarModule&#45;&gt;FkAdvancedPickerModule</title>
<path fill="none" stroke="black" d="M499.66,-122.01C499.66,-138.05 499.66,-159 499.66,-159 499.66,-159 500.55,-159 500.55,-159"/>
<polygon fill="black" stroke="black" points="498.52,-162.5 508.52,-159 498.52,-155.5 498.52,-162.5"/>
</g>
<!-- DataTableModule -->
<g id="node7" class="node">
<title>DataTableModule</title>
<polygon fill="#8dd3c7" stroke="black" points="318.85,-122 315.85,-126 294.85,-126 291.85,-122 201.15,-122 201.15,-86 318.85,-86 318.85,-122"/>
<text text-anchor="middle" x="260" y="-99.8" font-family="Times,serif" font-size="14.00">DataTableModule</text>
</g>
<!-- DataTableModule&#45;&gt;FkAdvancedPickerModule -->
<g id="edge6" class="edge">
<title>DataTableModule&#45;&gt;FkAdvancedPickerModule</title>
<path fill="none" stroke="black" d="M260,-122.27C260,-140.56 260,-166 260,-166 260,-166 498.65,-166 498.65,-166"/>
<polygon fill="black" stroke="black" points="498.65,-169.5 508.65,-166 498.65,-162.5 498.65,-169.5"/>
</g>
<!-- SelectedElementsModule -->
<g id="node8" class="node">
<title>SelectedElementsModule</title>
<polygon fill="#8dd3c7" stroke="black" points="183.57,-122 180.57,-126 159.57,-126 156.57,-122 24.43,-122 24.43,-86 183.57,-86 183.57,-122"/>
<text text-anchor="middle" x="104" y="-99.8" font-family="Times,serif" font-size="14.00">SelectedElementsModule</text>
</g>
<!-- SelectedElementsModule&#45;&gt;FkAdvancedPickerModule -->
<g id="edge7" class="edge">
<title>SelectedElementsModule&#45;&gt;FkAdvancedPickerModule</title>
<path fill="none" stroke="black" d="M104,-122.13C104,-142.57 104,-173 104,-173 104,-173 498.39,-173 498.39,-173"/>
<polygon fill="black" stroke="black" points="498.39,-176.5 508.39,-173 498.39,-169.5 498.39,-176.5"/>
</g>
</g>
</svg>
