<?xml version="1.0" encoding="UTF-8" standalone="no"?>
<!DOCTYPE svg PUBLIC "-//W3C//DTD SVG 1.1//EN"
 "http://www.w3.org/Graphics/SVG/1.1/DTD/svg11.dtd">
<!-- Generated by graphviz version 2.47.0 (20210316.0004)
 -->
<!-- Title: dependencies Pages: 1 -->
<svg width="738pt" height="284pt"
 viewBox="0.00 0.00 738.00 284.00" xmlns="http://www.w3.org/2000/svg" xmlns:xlink="http://www.w3.org/1999/xlink">
<g id="graph0" class="graph" transform="scale(1 1) rotate(0) translate(4 280)">
<title>dependencies</title>
<polygon fill="white" stroke="transparent" points="-4,4 -4,-280 734,-280 734,4 -4,4"/>
<text text-anchor="start" x="344.01" y="-42.4" font-family="Times-12" font-weight="bold" font-size="14.00">Legend</text>
<polygon fill="#ffffb3" stroke="transparent" points="131,-10 131,-30 151,-30 151,-10 131,-10"/>
<text text-anchor="start" x="154.63" y="-15.4" font-family="Times-12" font-size="14.00"> &#160;Declarations</text>
<polygon fill="#8dd3c7" stroke="transparent" points="244,-10 244,-30 264,-30 264,-10 244,-10"/>
<text text-anchor="start" x="267.73" y="-15.4" font-family="Times-12" font-size="14.00"> &#160;Module</text>
<polygon fill="#80b1d3" stroke="transparent" points="330,-10 330,-30 350,-30 350,-10 330,-10"/>
<text text-anchor="start" x="353.78" y="-15.4" font-family="Times-12" font-size="14.00"> &#160;Bootstrap</text>
<polygon fill="#fdb462" stroke="transparent" points="427,-10 427,-30 447,-30 447,-10 427,-10"/>
<text text-anchor="start" x="450.67" y="-15.4" font-family="Times-12" font-size="14.00"> &#160;Providers</text>
<polygon fill="#fb8072" stroke="transparent" points="523,-10 523,-30 543,-30 543,-10 523,-10"/>
<text text-anchor="start" x="546.73" y="-15.4" font-family="Times-12" font-size="14.00"> &#160;Exports</text>
<g id="clust1" class="cluster">
<title>cluster_SelectedElementsModule</title>
<polygon fill="none" stroke="black" stroke-dasharray="1,5" points="8,-70 8,-268 722,-268 722,-70 8,-70"/>
</g>
<g id="clust2" class="cluster">
<title>cluster_SelectedElementsModule_declarations</title>
<polygon fill="none" stroke="black" points="346,-78 346,-130 714,-130 714,-78 346,-78"/>
</g>
<g id="clust5" class="cluster">
<title>cluster_SelectedElementsModule_imports</title>
<polygon fill="none" stroke="black" points="16,-78 16,-130 338,-130 338,-78 16,-78"/>
</g>
<g id="clust6" class="cluster">
<title>cluster_SelectedElementsModule_exports</title>
<polygon fill="none" stroke="black" points="238,-208 238,-260 438,-260 438,-208 238,-208"/>
</g>
<!-- SelectedElementsComponent -->
<g id="node1" class="node">
<title>SelectedElementsComponent</title>
<polygon fill="#ffffb3" stroke="black" points="706.35,-122 525.65,-122 525.65,-86 706.35,-86 706.35,-122"/>
<text text-anchor="middle" x="616" y="-99.8" font-family="Times,serif" font-size="14.00">SelectedElementsComponent</text>
</g>
<!-- SelectedElementsModule -->
<g id="node3" class="node">
<title>SelectedElementsModule</title>
<polygon fill="#8dd3c7" stroke="black" points="417.57,-187 414.57,-191 393.57,-191 390.57,-187 258.43,-187 258.43,-151 417.57,-151 417.57,-187"/>
<text text-anchor="middle" x="338" y="-164.8" font-family="Times,serif" font-size="14.00">SelectedElementsModule</text>
</g>
<!-- SelectedElementsComponent&#45;&gt;SelectedElementsModule -->
<g id="edge1" class="edge">
<title>SelectedElementsComponent&#45;&gt;SelectedElementsModule</title>
<path fill="none" stroke="black" d="M616,-122.11C616,-141.34 616,-169 616,-169 616,-169 427.66,-169 427.66,-169"/>
<polygon fill="black" stroke="black" points="427.66,-165.5 417.66,-169 427.66,-172.5 427.66,-165.5"/>
</g>
<!-- SelectedElementsDialog -->
<g id="node2" class="node">
<title>SelectedElementsDialog</title>
<polygon fill="#ffffb3" stroke="black" points="507.62,-122 354.38,-122 354.38,-86 507.62,-86 507.62,-122"/>
<text text-anchor="middle" x="431" y="-99.8" font-family="Times,serif" font-size="14.00">SelectedElementsDialog</text>
</g>
<!-- SelectedElementsDialog&#45;&gt;SelectedElementsModule -->
<g id="edge2" class="edge">
<title>SelectedElementsDialog&#45;&gt;SelectedElementsModule</title>
<path fill="none" stroke="black" d="M385.86,-122.11C385.86,-122.11 385.86,-140.99 385.86,-140.99"/>
<polygon fill="black" stroke="black" points="382.36,-140.99 385.86,-150.99 389.36,-140.99 382.36,-140.99"/>
</g>
<!-- SelectedElementsComponent  -->
<g id="node6" class="node">
<title>SelectedElementsComponent </title>
<polygon fill="#fb8072" stroke="black" points="430.35,-252 245.65,-252 245.65,-216 430.35,-216 430.35,-252"/>
<text text-anchor="middle" x="338" y="-229.8" font-family="Times,serif" font-size="14.00">SelectedElementsComponent </text>
</g>
<!-- SelectedElementsModule&#45;&gt;SelectedElementsComponent  -->
<g id="edge5" class="edge">
<title>SelectedElementsModule&#45;&gt;SelectedElementsComponent </title>
<path fill="none" stroke="black" stroke-dasharray="5,2" d="M338,-187.11C338,-187.11 338,-205.99 338,-205.99"/>
<polygon fill="black" stroke="black" points="334.5,-205.99 338,-215.99 341.5,-205.99 334.5,-205.99"/>
</g>
<!-- DataSourceToolbarModule -->
<g id="node4" class="node">
<title>DataSourceToolbarModule</title>
<polygon fill="#8dd3c7" stroke="black" points="329.67,-122 326.67,-126 305.67,-126 302.67,-122 160.33,-122 160.33,-86 329.67,-86 329.67,-122"/>
<text text-anchor="middle" x="245" y="-99.8" font-family="Times,serif" font-size="14.00">DataSourceToolbarModule</text>
</g>
<!-- DataSourceToolbarModule&#45;&gt;SelectedElementsModule -->
<g id="edge3" class="edge">
<title>DataSourceToolbarModule&#45;&gt;SelectedElementsModule</title>
<path fill="none" stroke="black" d="M294.02,-122.11C294.02,-122.11 294.02,-140.99 294.02,-140.99"/>
<polygon fill="black" stroke="black" points="290.52,-140.99 294.02,-150.99 297.52,-140.99 290.52,-140.99"/>
</g>
<!-- DataTableModule -->
<g id="node5" class="node">
<title>DataTableModule</title>
<polygon fill="#8dd3c7" stroke="black" points="141.85,-122 138.85,-126 117.85,-126 114.85,-122 24.15,-122 24.15,-86 141.85,-86 141.85,-122"/>
<text text-anchor="middle" x="83" y="-99.8" font-family="Times,serif" font-size="14.00">DataTableModule</text>
</g>
<!-- DataTableModule&#45;&gt;SelectedElementsModule -->
<g id="edge4" class="edge">
<title>DataTableModule&#45;&gt;SelectedElementsModule</title>
<path fill="none" stroke="black" d="M83,-122.11C83,-141.34 83,-169 83,-169 83,-169 248.37,-169 248.37,-169"/>
<polygon fill="black" stroke="black" points="248.37,-172.5 258.37,-169 248.37,-165.5 248.37,-172.5"/>
</g>
</g>
</svg>
