<?xml version="1.0" encoding="UTF-8" standalone="no"?>
<!DOCTYPE svg PUBLIC "-//W3C//DTD SVG 1.1//EN"
 "http://www.w3.org/Graphics/SVG/1.1/DTD/svg11.dtd">
<!-- Generated by graphviz version 2.47.0 (20210316.0004)
 -->
<!-- Title: dependencies Pages: 1 -->
<svg width="504pt" height="284pt"
 viewBox="0.00 0.00 504.00 284.00" xmlns="http://www.w3.org/2000/svg" xmlns:xlink="http://www.w3.org/1999/xlink">
<g id="graph0" class="graph" transform="scale(1 1) rotate(0) translate(4 280)">
<title>dependencies</title>
<polygon fill="white" stroke="transparent" points="-4,4 -4,-280 500,-280 500,4 -4,4"/>
<text text-anchor="start" x="227.01" y="-42.4" font-family="Times-12" font-weight="bold" font-size="14.00">Legend</text>
<polygon fill="#ffffb3" stroke="transparent" points="14,-10 14,-30 34,-30 34,-10 14,-10"/>
<text text-anchor="start" x="37.63" y="-15.4" font-family="Times-12" font-size="14.00"> &#160;Declarations</text>
<polygon fill="#8dd3c7" stroke="transparent" points="127,-10 127,-30 147,-30 147,-10 127,-10"/>
<text text-anchor="start" x="150.73" y="-15.4" font-family="Times-12" font-size="14.00"> &#160;Module</text>
<polygon fill="#80b1d3" stroke="transparent" points="213,-10 213,-30 233,-30 233,-10 213,-10"/>
<text text-anchor="start" x="236.78" y="-15.4" font-family="Times-12" font-size="14.00"> &#160;Bootstrap</text>
<polygon fill="#fdb462" stroke="transparent" points="310,-10 310,-30 330,-30 330,-10 310,-10"/>
<text text-anchor="start" x="333.67" y="-15.4" font-family="Times-12" font-size="14.00"> &#160;Providers</text>
<polygon fill="#fb8072" stroke="transparent" points="406,-10 406,-30 426,-30 426,-10 406,-10"/>
<text text-anchor="start" x="429.73" y="-15.4" font-family="Times-12" font-size="14.00"> &#160;Exports</text>
<g id="clust1" class="cluster">
<title>cluster_ImageModule</title>
<polygon fill="none" stroke="black" stroke-dasharray="1,5" points="71,-70 71,-268 425,-268 425,-70 71,-70"/>
</g>
<g id="clust6" class="cluster">
<title>cluster_ImageModule_exports</title>
<polygon fill="none" stroke="black" points="79,-208 79,-260 417,-260 417,-208 79,-208"/>
</g>
<g id="clust2" class="cluster">
<title>cluster_ImageModule_declarations</title>
<polygon fill="none" stroke="black" points="83,-78 83,-130 414,-130 414,-78 83,-78"/>
</g>
<!-- ImageSelectComponent -->
<g id="node1" class="node">
<title>ImageSelectComponent</title>
<polygon fill="#ffffb3" stroke="black" points="406.02,-122 255.98,-122 255.98,-86 406.02,-86 406.02,-122"/>
<text text-anchor="middle" x="331" y="-99.8" font-family="Times,serif" font-size="14.00">ImageSelectComponent</text>
</g>
<!-- ImageModule -->
<g id="node3" class="node">
<title>ImageModule</title>
<polygon fill="#8dd3c7" stroke="black" points="212.03,-187 209.03,-191 188.03,-191 185.03,-187 117.97,-187 117.97,-151 212.03,-151 212.03,-187"/>
<text text-anchor="middle" x="165" y="-164.8" font-family="Times,serif" font-size="14.00">ImageModule</text>
</g>
<!-- ImageSelectComponent&#45;&gt;ImageModule -->
<g id="edge1" class="edge">
<title>ImageSelectComponent&#45;&gt;ImageModule</title>
<path fill="none" stroke="black" d="M356.09,-122.02C356.09,-139.37 356.09,-163 356.09,-163 356.09,-163 222.23,-163 222.23,-163"/>
<polygon fill="black" stroke="black" points="222.23,-159.5 212.23,-163 222.23,-166.5 222.23,-159.5"/>
</g>
<!-- ImageViewComponent -->
<g id="node2" class="node">
<title>ImageViewComponent</title>
<polygon fill="#ffffb3" stroke="black" points="237.13,-122 90.87,-122 90.87,-86 237.13,-86 237.13,-122"/>
<text text-anchor="middle" x="164" y="-99.8" font-family="Times,serif" font-size="14.00">ImageViewComponent</text>
</g>
<!-- ImageViewComponent&#45;&gt;ImageModule -->
<g id="edge2" class="edge">
<title>ImageViewComponent&#45;&gt;ImageModule</title>
<path fill="none" stroke="black" d="M165,-122.11C165,-122.11 165,-140.99 165,-140.99"/>
<polygon fill="black" stroke="black" points="161.5,-140.99 165,-150.99 168.5,-140.99 161.5,-140.99"/>
</g>
<!-- ImageSelectComponent  -->
<g id="node4" class="node">
<title>ImageSelectComponent </title>
<polygon fill="#fb8072" stroke="black" points="409.02,-252 254.98,-252 254.98,-216 409.02,-216 409.02,-252"/>
<text text-anchor="middle" x="332" y="-229.8" font-family="Times,serif" font-size="14.00">ImageSelectComponent </text>
</g>
<!-- ImageModule&#45;&gt;ImageSelectComponent  -->
<g id="edge3" class="edge">
<title>ImageModule&#45;&gt;ImageSelectComponent </title>
<path fill="none" stroke="black" stroke-dasharray="5,2" d="M212.31,-175C253.25,-175 305.91,-175 305.91,-175 305.91,-175 305.91,-205.98 305.91,-205.98"/>
<polygon fill="black" stroke="black" points="302.41,-205.98 305.91,-215.98 309.41,-205.98 302.41,-205.98"/>
</g>
<!-- ImageViewComponent  -->
<g id="node5" class="node">
<title>ImageViewComponent </title>
<polygon fill="#fb8072" stroke="black" points="237.13,-252 86.87,-252 86.87,-216 237.13,-216 237.13,-252"/>
<text text-anchor="middle" x="162" y="-229.8" font-family="Times,serif" font-size="14.00">ImageViewComponent </text>
</g>
<!-- ImageModule&#45;&gt;ImageViewComponent  -->
<g id="edge4" class="edge">
<title>ImageModule&#45;&gt;ImageViewComponent </title>
<path fill="none" stroke="black" stroke-dasharray="5,2" d="M165,-187.11C165,-187.11 165,-205.99 165,-205.99"/>
<polygon fill="black" stroke="black" points="161.5,-205.99 165,-215.99 168.5,-205.99 161.5,-205.99"/>
</g>
</g>
</svg>
