<?xml version="1.0" encoding="UTF-8" standalone="no"?>
<!DOCTYPE svg PUBLIC "-//W3C//DTD SVG 1.1//EN"
 "http://www.w3.org/Graphics/SVG/1.1/DTD/svg11.dtd">
<!-- Generated by graphviz version 2.47.0 (20210316.0004)
 -->
<!-- Title: dependencies Pages: 1 -->
<svg width="504pt" height="284pt"
 viewBox="0.00 0.00 504.00 284.00" xmlns="http://www.w3.org/2000/svg" xmlns:xlink="http://www.w3.org/1999/xlink">
<g id="graph0" class="graph" transform="scale(1 1) rotate(0) translate(4 280)">
<title>dependencies</title>
<polygon fill="white" stroke="transparent" points="-4,4 -4,-280 500,-280 500,4 -4,4"/>
<text text-anchor="start" x="227.01" y="-42.4" font-family="Times-12" font-weight="bold" font-size="14.00">Legend</text>
<polygon fill="#ffffb3" stroke="transparent" points="14,-10 14,-30 34,-30 34,-10 14,-10"/>
<text text-anchor="start" x="37.63" y="-15.4" font-family="Times-12" font-size="14.00"> &#160;Declarations</text>
<polygon fill="#8dd3c7" stroke="transparent" points="127,-10 127,-30 147,-30 147,-10 127,-10"/>
<text text-anchor="start" x="150.73" y="-15.4" font-family="Times-12" font-size="14.00"> &#160;Module</text>
<polygon fill="#80b1d3" stroke="transparent" points="213,-10 213,-30 233,-30 233,-10 213,-10"/>
<text text-anchor="start" x="236.78" y="-15.4" font-family="Times-12" font-size="14.00"> &#160;Bootstrap</text>
<polygon fill="#fdb462" stroke="transparent" points="310,-10 310,-30 330,-30 330,-10 310,-10"/>
<text text-anchor="start" x="333.67" y="-15.4" font-family="Times-12" font-size="14.00"> &#160;Providers</text>
<polygon fill="#fb8072" stroke="transparent" points="406,-10 406,-30 426,-30 426,-10 406,-10"/>
<text text-anchor="start" x="429.73" y="-15.4" font-family="Times-12" font-size="14.00"> &#160;Exports</text>
<g id="clust1" class="cluster">
<title>cluster_ExtModule</title>
<polygon fill="none" stroke="black" stroke-dasharray="1,5" points="64,-70 64,-268 432,-268 432,-70 64,-70"/>
</g>
<g id="clust6" class="cluster">
<title>cluster_ExtModule_exports</title>
<polygon fill="none" stroke="black" points="127,-208 127,-260 357,-260 357,-208 127,-208"/>
</g>
<g id="clust8" class="cluster">
<title>cluster_ExtModule_providers</title>
<polygon fill="none" stroke="black" points="302,-78 302,-130 424,-130 424,-78 302,-78"/>
</g>
<g id="clust2" class="cluster">
<title>cluster_ExtModule_declarations</title>
<polygon fill="none" stroke="black" points="72,-78 72,-130 294,-130 294,-78 72,-78"/>
</g>
<!-- ExtComponent -->
<g id="node1" class="node">
<title>ExtComponent</title>
<polygon fill="#ffffb3" stroke="black" points="286.28,-122 185.72,-122 185.72,-86 286.28,-86 286.28,-122"/>
<text text-anchor="middle" x="236" y="-99.8" font-family="Times,serif" font-size="14.00">ExtComponent</text>
</g>
<!-- ExtModule -->
<g id="node3" class="node">
<title>ExtModule</title>
<polygon fill="#8dd3c7" stroke="black" points="275.49,-187 272.49,-191 251.49,-191 248.49,-187 196.51,-187 196.51,-151 275.49,-151 275.49,-187"/>
<text text-anchor="middle" x="236" y="-164.8" font-family="Times,serif" font-size="14.00">ExtModule</text>
</g>
<!-- ExtComponent&#45;&gt;ExtModule -->
<g id="edge1" class="edge">
<title>ExtComponent&#45;&gt;ExtModule</title>
<path fill="none" stroke="black" d="M236,-122.11C236,-122.11 236,-140.99 236,-140.99"/>
<polygon fill="black" stroke="black" points="232.5,-140.99 236,-150.99 239.5,-140.99 232.5,-140.99"/>
</g>
<!-- ExtDirective -->
<g id="node2" class="node">
<title>ExtDirective</title>
<polygon fill="#ffffb3" stroke="black" points="167.53,-122 80.47,-122 80.47,-86 167.53,-86 167.53,-122"/>
<text text-anchor="middle" x="124" y="-99.8" font-family="Times,serif" font-size="14.00">ExtDirective</text>
</g>
<!-- ExtDirective&#45;&gt;ExtModule -->
<g id="edge2" class="edge">
<title>ExtDirective&#45;&gt;ExtModule</title>
<path fill="none" stroke="black" d="M151.62,-122.11C151.62,-141.34 151.62,-169 151.62,-169 151.62,-169 186.28,-169 186.28,-169"/>
<polygon fill="black" stroke="black" points="186.28,-172.5 196.28,-169 186.28,-165.5 186.28,-172.5"/>
</g>
<!-- ExtComponent  -->
<g id="node4" class="node">
<title>ExtComponent </title>
<polygon fill="#fb8072" stroke="black" points="349.28,-252 244.72,-252 244.72,-216 349.28,-216 349.28,-252"/>
<text text-anchor="middle" x="297" y="-229.8" font-family="Times,serif" font-size="14.00">ExtComponent </text>
</g>
<!-- ExtModule&#45;&gt;ExtComponent  -->
<g id="edge3" class="edge">
<title>ExtModule&#45;&gt;ExtComponent </title>
<path fill="none" stroke="black" stroke-dasharray="5,2" d="M260.18,-187.11C260.18,-187.11 260.18,-205.99 260.18,-205.99"/>
<polygon fill="black" stroke="black" points="256.68,-205.99 260.18,-215.99 263.68,-205.99 256.68,-205.99"/>
</g>
<!-- ExtDirective  -->
<g id="node5" class="node">
<title>ExtDirective </title>
<polygon fill="#fb8072" stroke="black" points="226.53,-252 135.47,-252 135.47,-216 226.53,-216 226.53,-252"/>
<text text-anchor="middle" x="181" y="-229.8" font-family="Times,serif" font-size="14.00">ExtDirective </text>
</g>
<!-- ExtModule&#45;&gt;ExtDirective  -->
<g id="edge4" class="edge">
<title>ExtModule&#45;&gt;ExtDirective </title>
<path fill="none" stroke="black" stroke-dasharray="5,2" d="M211.51,-187.11C211.51,-187.11 211.51,-205.99 211.51,-205.99"/>
<polygon fill="black" stroke="black" points="208.01,-205.99 211.51,-215.99 215.01,-205.99 208.01,-205.99"/>
</g>
<!-- ExtService -->
<g id="node6" class="node">
<title>ExtService</title>
<ellipse fill="#fdb462" stroke="black" cx="363" cy="-104" rx="53.31" ry="18"/>
<text text-anchor="middle" x="363" y="-99.8" font-family="Times,serif" font-size="14.00">ExtService</text>
</g>
<!-- ExtService&#45;&gt;ExtModule -->
<g id="edge5" class="edge">
<title>ExtService&#45;&gt;ExtModule</title>
<path fill="none" stroke="black" d="M329.37,-118.1C329.37,-137.22 329.37,-169 329.37,-169 329.37,-169 285.6,-169 285.6,-169"/>
<polygon fill="black" stroke="black" points="285.6,-165.5 275.6,-169 285.6,-172.5 285.6,-165.5"/>
</g>
</g>
</svg>
