<?xml version="1.0" encoding="UTF-8" standalone="no"?>
<!DOCTYPE svg PUBLIC "-//W3C//DTD SVG 1.1//EN"
 "http://www.w3.org/Graphics/SVG/1.1/DTD/svg11.dtd">
<!-- Generated by graphviz version 2.47.0 (20210316.0004)
 -->
<!-- Title: dependencies Pages: 1 -->
<svg width="504pt" height="284pt"
 viewBox="0.00 0.00 504.00 284.00" xmlns="http://www.w3.org/2000/svg" xmlns:xlink="http://www.w3.org/1999/xlink">
<g id="graph0" class="graph" transform="scale(1 1) rotate(0) translate(4 280)">
<title>dependencies</title>
<polygon fill="white" stroke="transparent" points="-4,4 -4,-280 500,-280 500,4 -4,4"/>
<text text-anchor="start" x="227.01" y="-42.4" font-family="Times-12" font-weight="bold" font-size="14.00">Legend</text>
<polygon fill="#ffffb3" stroke="transparent" points="14,-10 14,-30 34,-30 34,-10 14,-10"/>
<text text-anchor="start" x="37.63" y="-15.4" font-family="Times-12" font-size="14.00"> &#160;Declarations</text>
<polygon fill="#8dd3c7" stroke="transparent" points="127,-10 127,-30 147,-30 147,-10 127,-10"/>
<text text-anchor="start" x="150.73" y="-15.4" font-family="Times-12" font-size="14.00"> &#160;Module</text>
<polygon fill="#80b1d3" stroke="transparent" points="213,-10 213,-30 233,-30 233,-10 213,-10"/>
<text text-anchor="start" x="236.78" y="-15.4" font-family="Times-12" font-size="14.00"> &#160;Bootstrap</text>
<polygon fill="#fdb462" stroke="transparent" points="310,-10 310,-30 330,-30 330,-10 310,-10"/>
<text text-anchor="start" x="333.67" y="-15.4" font-family="Times-12" font-size="14.00"> &#160;Providers</text>
<polygon fill="#fb8072" stroke="transparent" points="406,-10 406,-30 426,-30 426,-10 406,-10"/>
<text text-anchor="start" x="429.73" y="-15.4" font-family="Times-12" font-size="14.00"> &#160;Exports</text>
<g id="clust1" class="cluster">
<title>cluster_SelectModule</title>
<polygon fill="none" stroke="black" stroke-dasharray="1,5" points="85,-70 85,-268 411,-268 411,-70 85,-70"/>
</g>
<g id="clust2" class="cluster">
<title>cluster_SelectModule_declarations</title>
<polygon fill="none" stroke="black" points="93,-78 93,-130 403,-130 403,-78 93,-78"/>
</g>
<g id="clust6" class="cluster">
<title>cluster_SelectModule_exports</title>
<polygon fill="none" stroke="black" points="170,-208 170,-260 306,-260 306,-208 170,-208"/>
</g>
<!-- AutocompleteComponent -->
<g id="node1" class="node">
<title>AutocompleteComponent</title>
<polygon fill="#ffffb3" stroke="black" points="395.15,-122 234.85,-122 234.85,-86 395.15,-86 395.15,-122"/>
<text text-anchor="middle" x="315" y="-99.8" font-family="Times,serif" font-size="14.00">AutocompleteComponent</text>
</g>
<!-- SelectModule -->
<g id="node3" class="node">
<title>SelectModule</title>
<polygon fill="#8dd3c7" stroke="black" points="284.76,-187 281.76,-191 260.76,-191 257.76,-187 191.24,-187 191.24,-151 284.76,-151 284.76,-187"/>
<text text-anchor="middle" x="238" y="-164.8" font-family="Times,serif" font-size="14.00">SelectModule</text>
</g>
<!-- AutocompleteComponent&#45;&gt;SelectModule -->
<g id="edge1" class="edge">
<title>AutocompleteComponent&#45;&gt;SelectModule</title>
<path fill="none" stroke="black" d="M259.78,-122.11C259.78,-122.11 259.78,-140.99 259.78,-140.99"/>
<polygon fill="black" stroke="black" points="256.28,-140.99 259.78,-150.99 263.28,-140.99 256.28,-140.99"/>
</g>
<!-- SelectComponent -->
<g id="node2" class="node">
<title>SelectComponent</title>
<polygon fill="#ffffb3" stroke="black" points="216.54,-122 101.46,-122 101.46,-86 216.54,-86 216.54,-122"/>
<text text-anchor="middle" x="159" y="-99.8" font-family="Times,serif" font-size="14.00">SelectComponent</text>
</g>
<!-- SelectComponent&#45;&gt;SelectModule -->
<g id="edge2" class="edge">
<title>SelectComponent&#45;&gt;SelectModule</title>
<path fill="none" stroke="black" d="M203.95,-122.11C203.95,-122.11 203.95,-140.99 203.95,-140.99"/>
<polygon fill="black" stroke="black" points="200.45,-140.99 203.95,-150.99 207.45,-140.99 200.45,-140.99"/>
</g>
<!-- SelectComponent  -->
<g id="node4" class="node">
<title>SelectComponent </title>
<polygon fill="#fb8072" stroke="black" points="297.54,-252 178.46,-252 178.46,-216 297.54,-216 297.54,-252"/>
<text text-anchor="middle" x="238" y="-229.8" font-family="Times,serif" font-size="14.00">SelectComponent </text>
</g>
<!-- SelectModule&#45;&gt;SelectComponent  -->
<g id="edge3" class="edge">
<title>SelectModule&#45;&gt;SelectComponent </title>
<path fill="none" stroke="black" stroke-dasharray="5,2" d="M238,-187.11C238,-187.11 238,-205.99 238,-205.99"/>
<polygon fill="black" stroke="black" points="234.5,-205.99 238,-215.99 241.5,-205.99 234.5,-205.99"/>
</g>
</g>
</svg>
