<?xml version="1.0" encoding="UTF-8" standalone="no"?>
<!DOCTYPE svg PUBLIC "-//W3C//DTD SVG 1.1//EN"
 "http://www.w3.org/Graphics/SVG/1.1/DTD/svg11.dtd">
<!-- Generated by graphviz version 2.47.0 (20210316.0004)
 -->
<!-- Title: dependencies Pages: 1 -->
<svg width="504pt" height="284pt"
 viewBox="0.00 0.00 504.00 284.00" xmlns="http://www.w3.org/2000/svg" xmlns:xlink="http://www.w3.org/1999/xlink">
<g id="graph0" class="graph" transform="scale(1 1) rotate(0) translate(4 280)">
<title>dependencies</title>
<polygon fill="white" stroke="transparent" points="-4,4 -4,-280 500,-280 500,4 -4,4"/>
<text text-anchor="start" x="227.01" y="-42.4" font-family="Times-12" font-weight="bold" font-size="14.00">Legend</text>
<polygon fill="#ffffb3" stroke="transparent" points="14,-10 14,-30 34,-30 34,-10 14,-10"/>
<text text-anchor="start" x="37.63" y="-15.4" font-family="Times-12" font-size="14.00"> &#160;Declarations</text>
<polygon fill="#8dd3c7" stroke="transparent" points="127,-10 127,-30 147,-30 147,-10 127,-10"/>
<text text-anchor="start" x="150.73" y="-15.4" font-family="Times-12" font-size="14.00"> &#160;Module</text>
<polygon fill="#80b1d3" stroke="transparent" points="213,-10 213,-30 233,-30 233,-10 213,-10"/>
<text text-anchor="start" x="236.78" y="-15.4" font-family="Times-12" font-size="14.00"> &#160;Bootstrap</text>
<polygon fill="#fdb462" stroke="transparent" points="310,-10 310,-30 330,-30 330,-10 310,-10"/>
<text text-anchor="start" x="333.67" y="-15.4" font-family="Times-12" font-size="14.00"> &#160;Providers</text>
<polygon fill="#fb8072" stroke="transparent" points="406,-10 406,-30 426,-30 426,-10 406,-10"/>
<text text-anchor="start" x="429.73" y="-15.4" font-family="Times-12" font-size="14.00"> &#160;Exports</text>
<g id="clust1" class="cluster">
<title>cluster_TempBillboardModule</title>
<polygon fill="none" stroke="black" stroke-dasharray="1,5" points="38,-70 38,-268 458,-268 458,-70 38,-70"/>
</g>
<g id="clust2" class="cluster">
<title>cluster_TempBillboardModule_declarations</title>
<polygon fill="none" stroke="black" points="268,-78 268,-130 450,-130 450,-78 268,-78"/>
</g>
<g id="clust7" class="cluster">
<title>cluster_TempBillboardModule_providers</title>
<polygon fill="none" stroke="black" points="46,-78 46,-130 260,-130 260,-78 46,-78"/>
</g>
<g id="clust5" class="cluster">
<title>cluster_TempBillboardModule_exports</title>
<polygon fill="none" stroke="black" points="162,-208 162,-260 348,-260 348,-208 162,-208"/>
</g>
<!-- TempBillboardComponent -->
<g id="node1" class="node">
<title>TempBillboardComponent</title>
<polygon fill="#ffffb3" stroke="black" points="442.37,-122 275.63,-122 275.63,-86 442.37,-86 442.37,-122"/>
<text text-anchor="middle" x="359" y="-99.8" font-family="Times,serif" font-size="14.00">TempBillboardComponent</text>
</g>
<!-- TempBillboardModule -->
<g id="node2" class="node">
<title>TempBillboardModule</title>
<polygon fill="#8dd3c7" stroke="black" points="327.59,-187 324.59,-191 303.59,-191 300.59,-187 182.41,-187 182.41,-151 327.59,-151 327.59,-187"/>
<text text-anchor="middle" x="255" y="-164.8" font-family="Times,serif" font-size="14.00">TempBillboardModule</text>
</g>
<!-- TempBillboardComponent&#45;&gt;TempBillboardModule -->
<g id="edge1" class="edge">
<title>TempBillboardComponent&#45;&gt;TempBillboardModule</title>
<path fill="none" stroke="black" d="M301.55,-122.11C301.55,-122.11 301.55,-140.99 301.55,-140.99"/>
<polygon fill="black" stroke="black" points="298.05,-140.99 301.55,-150.99 305.05,-140.99 298.05,-140.99"/>
</g>
<!-- TempBillboardComponent  -->
<g id="node3" class="node">
<title>TempBillboardComponent </title>
<polygon fill="#fb8072" stroke="black" points="340.37,-252 169.63,-252 169.63,-216 340.37,-216 340.37,-252"/>
<text text-anchor="middle" x="255" y="-229.8" font-family="Times,serif" font-size="14.00">TempBillboardComponent </text>
</g>
<!-- TempBillboardModule&#45;&gt;TempBillboardComponent  -->
<g id="edge2" class="edge">
<title>TempBillboardModule&#45;&gt;TempBillboardComponent </title>
<path fill="none" stroke="black" stroke-dasharray="5,2" d="M255,-187.11C255,-187.11 255,-205.99 255,-205.99"/>
<polygon fill="black" stroke="black" points="251.5,-205.99 255,-215.99 258.5,-205.99 251.5,-205.99"/>
</g>
<!-- TempBillboardService -->
<g id="node4" class="node">
<title>TempBillboardService</title>
<ellipse fill="#fdb462" stroke="black" cx="153" cy="-104" rx="98.99" ry="18"/>
<text text-anchor="middle" x="153" y="-99.8" font-family="Times,serif" font-size="14.00">TempBillboardService</text>
</g>
<!-- TempBillboardService&#45;&gt;TempBillboardModule -->
<g id="edge3" class="edge">
<title>TempBillboardService&#45;&gt;TempBillboardModule</title>
<path fill="none" stroke="black" d="M217.23,-117.78C217.23,-117.78 217.23,-140.55 217.23,-140.55"/>
<polygon fill="black" stroke="black" points="213.73,-140.55 217.23,-150.55 220.73,-140.55 213.73,-140.55"/>
</g>
</g>
</svg>
