<?xml version="1.0" encoding="UTF-8" standalone="no"?>
<!DOCTYPE svg PUBLIC "-//W3C//DTD SVG 1.1//EN"
 "http://www.w3.org/Graphics/SVG/1.1/DTD/svg11.dtd">
<!-- Generated by graphviz version 2.47.0 (20210316.0004)
 -->
<!-- Title: dependencies Pages: 1 -->
<svg width="504pt" height="284pt"
 viewBox="0.00 0.00 504.00 284.00" xmlns="http://www.w3.org/2000/svg" xmlns:xlink="http://www.w3.org/1999/xlink">
<g id="graph0" class="graph" transform="scale(1 1) rotate(0) translate(4 280)">
<title>dependencies</title>
<polygon fill="white" stroke="transparent" points="-4,4 -4,-280 500,-280 500,4 -4,4"/>
<text text-anchor="start" x="227.01" y="-42.4" font-family="Times-12" font-weight="bold" font-size="14.00">Legend</text>
<polygon fill="#ffffb3" stroke="transparent" points="14,-10 14,-30 34,-30 34,-10 14,-10"/>
<text text-anchor="start" x="37.63" y="-15.4" font-family="Times-12" font-size="14.00"> &#160;Declarations</text>
<polygon fill="#8dd3c7" stroke="transparent" points="127,-10 127,-30 147,-30 147,-10 127,-10"/>
<text text-anchor="start" x="150.73" y="-15.4" font-family="Times-12" font-size="14.00"> &#160;Module</text>
<polygon fill="#80b1d3" stroke="transparent" points="213,-10 213,-30 233,-30 233,-10 213,-10"/>
<text text-anchor="start" x="236.78" y="-15.4" font-family="Times-12" font-size="14.00"> &#160;Bootstrap</text>
<polygon fill="#fdb462" stroke="transparent" points="310,-10 310,-30 330,-30 330,-10 310,-10"/>
<text text-anchor="start" x="333.67" y="-15.4" font-family="Times-12" font-size="14.00"> &#160;Providers</text>
<polygon fill="#fb8072" stroke="transparent" points="406,-10 406,-30 426,-30 426,-10 406,-10"/>
<text text-anchor="start" x="429.73" y="-15.4" font-family="Times-12" font-size="14.00"> &#160;Exports</text>
<g id="clust1" class="cluster">
<title>cluster_TileModule</title>
<polygon fill="none" stroke="black" stroke-dasharray="1,5" points="100,-70 100,-268 396,-268 396,-70 100,-70"/>
</g>
<g id="clust6" class="cluster">
<title>cluster_TileModule_exports</title>
<polygon fill="none" stroke="black" points="108,-208 108,-260 388,-260 388,-208 108,-208"/>
</g>
<g id="clust2" class="cluster">
<title>cluster_TileModule_declarations</title>
<polygon fill="none" stroke="black" points="112,-78 112,-130 384,-130 384,-78 112,-78"/>
</g>
<!-- ChartTileComponent -->
<g id="node1" class="node">
<title>ChartTileComponent</title>
<polygon fill="#ffffb3" stroke="black" points="376.48,-122 241.52,-122 241.52,-86 376.48,-86 376.48,-122"/>
<text text-anchor="middle" x="309" y="-99.8" font-family="Times,serif" font-size="14.00">ChartTileComponent</text>
</g>
<!-- TileModule -->
<g id="node3" class="node">
<title>TileModule</title>
<polygon fill="#8dd3c7" stroke="black" points="214.1,-187 211.1,-191 190.1,-191 187.1,-187 131.9,-187 131.9,-151 214.1,-151 214.1,-187"/>
<text text-anchor="middle" x="173" y="-164.8" font-family="Times,serif" font-size="14.00">TileModule</text>
</g>
<!-- ChartTileComponent&#45;&gt;TileModule -->
<g id="edge1" class="edge">
<title>ChartTileComponent&#45;&gt;TileModule</title>
<path fill="none" stroke="black" d="M331.58,-122.02C331.58,-139.37 331.58,-163 331.58,-163 331.58,-163 224.25,-163 224.25,-163"/>
<polygon fill="black" stroke="black" points="224.25,-159.5 214.25,-163 224.25,-166.5 224.25,-159.5"/>
</g>
<!-- TileComponent -->
<g id="node2" class="node">
<title>TileComponent</title>
<polygon fill="#ffffb3" stroke="black" points="223.88,-122 120.12,-122 120.12,-86 223.88,-86 223.88,-122"/>
<text text-anchor="middle" x="172" y="-99.8" font-family="Times,serif" font-size="14.00">TileComponent</text>
</g>
<!-- TileComponent&#45;&gt;TileModule -->
<g id="edge2" class="edge">
<title>TileComponent&#45;&gt;TileModule</title>
<path fill="none" stroke="black" d="M173,-122.11C173,-122.11 173,-140.99 173,-140.99"/>
<polygon fill="black" stroke="black" points="169.5,-140.99 173,-150.99 176.5,-140.99 169.5,-140.99"/>
</g>
<!-- ChartTileComponent  -->
<g id="node4" class="node">
<title>ChartTileComponent </title>
<polygon fill="#fb8072" stroke="black" points="380.48,-252 241.52,-252 241.52,-216 380.48,-216 380.48,-252"/>
<text text-anchor="middle" x="311" y="-229.8" font-family="Times,serif" font-size="14.00">ChartTileComponent </text>
</g>
<!-- TileModule&#45;&gt;ChartTileComponent  -->
<g id="edge3" class="edge">
<title>TileModule&#45;&gt;ChartTileComponent </title>
<path fill="none" stroke="black" stroke-dasharray="5,2" d="M214.36,-175C246.86,-175 286.67,-175 286.67,-175 286.67,-175 286.67,-205.98 286.67,-205.98"/>
<polygon fill="black" stroke="black" points="283.17,-205.98 286.67,-215.98 290.17,-205.98 283.17,-205.98"/>
</g>
<!-- TileComponent  -->
<g id="node5" class="node">
<title>TileComponent </title>
<polygon fill="#fb8072" stroke="black" points="223.88,-252 116.12,-252 116.12,-216 223.88,-216 223.88,-252"/>
<text text-anchor="middle" x="170" y="-229.8" font-family="Times,serif" font-size="14.00">TileComponent </text>
</g>
<!-- TileModule&#45;&gt;TileComponent  -->
<g id="edge4" class="edge">
<title>TileModule&#45;&gt;TileComponent </title>
<path fill="none" stroke="black" stroke-dasharray="5,2" d="M173,-187.11C173,-187.11 173,-205.99 173,-205.99"/>
<polygon fill="black" stroke="black" points="169.5,-205.99 173,-215.99 176.5,-205.99 169.5,-205.99"/>
</g>
</g>
</svg>
