<?xml version="1.0" encoding="UTF-8" standalone="no"?>
<!DOCTYPE svg PUBLIC "-//W3C//DTD SVG 1.1//EN"
 "http://www.w3.org/Graphics/SVG/1.1/DTD/svg11.dtd">
<!-- Generated by graphviz version 2.47.0 (20210316.0004)
 -->
<!-- Title: dependencies Pages: 1 -->
<svg width="570pt" height="284pt"
 viewBox="0.00 0.00 570.00 284.00" xmlns="http://www.w3.org/2000/svg" xmlns:xlink="http://www.w3.org/1999/xlink">
<g id="graph0" class="graph" transform="scale(1 1) rotate(0) translate(4 280)">
<title>dependencies</title>
<polygon fill="white" stroke="transparent" points="-4,4 -4,-280 566,-280 566,4 -4,4"/>
<text text-anchor="start" x="260.01" y="-42.4" font-family="Times-12" font-weight="bold" font-size="14.00">Legend</text>
<polygon fill="#ffffb3" stroke="transparent" points="47,-10 47,-30 67,-30 67,-10 47,-10"/>
<text text-anchor="start" x="70.63" y="-15.4" font-family="Times-12" font-size="14.00"> &#160;Declarations</text>
<polygon fill="#8dd3c7" stroke="transparent" points="160,-10 160,-30 180,-30 180,-10 160,-10"/>
<text text-anchor="start" x="183.73" y="-15.4" font-family="Times-12" font-size="14.00"> &#160;Module</text>
<polygon fill="#80b1d3" stroke="transparent" points="246,-10 246,-30 266,-30 266,-10 246,-10"/>
<text text-anchor="start" x="269.78" y="-15.4" font-family="Times-12" font-size="14.00"> &#160;Bootstrap</text>
<polygon fill="#fdb462" stroke="transparent" points="343,-10 343,-30 363,-30 363,-10 343,-10"/>
<text text-anchor="start" x="366.67" y="-15.4" font-family="Times-12" font-size="14.00"> &#160;Providers</text>
<polygon fill="#fb8072" stroke="transparent" points="439,-10 439,-30 459,-30 459,-10 439,-10"/>
<text text-anchor="start" x="462.73" y="-15.4" font-family="Times-12" font-size="14.00"> &#160;Exports</text>
<g id="clust1" class="cluster">
<title>cluster_SideNavigationViewModule</title>
<polygon fill="none" stroke="black" stroke-dasharray="1,5" points="8,-70 8,-268 554,-268 554,-70 8,-70"/>
</g>
<g id="clust2" class="cluster">
<title>cluster_SideNavigationViewModule_declarations</title>
<polygon fill="none" stroke="black" points="332,-78 332,-130 546,-130 546,-78 332,-78"/>
</g>
<g id="clust4" class="cluster">
<title>cluster_SideNavigationViewModule_imports</title>
<polygon fill="none" stroke="black" points="16,-78 16,-130 324,-130 324,-78 16,-78"/>
</g>
<g id="clust5" class="cluster">
<title>cluster_SideNavigationViewModule_exports</title>
<polygon fill="none" stroke="black" points="133,-208 133,-260 351,-260 351,-208 133,-208"/>
</g>
<!-- SideNavigationViewComponent -->
<g id="node1" class="node">
<title>SideNavigationViewComponent</title>
<polygon fill="#ffffb3" stroke="black" points="538.25,-122 339.75,-122 339.75,-86 538.25,-86 538.25,-122"/>
<text text-anchor="middle" x="439" y="-99.8" font-family="Times,serif" font-size="14.00">SideNavigationViewComponent</text>
</g>
<!-- SideNavigationViewModule -->
<g id="node2" class="node">
<title>SideNavigationViewModule</title>
<polygon fill="#8dd3c7" stroke="black" points="330.46,-187 327.46,-191 306.46,-191 303.46,-187 153.54,-187 153.54,-151 330.46,-151 330.46,-187"/>
<text text-anchor="middle" x="242" y="-164.8" font-family="Times,serif" font-size="14.00">SideNavigationViewModule</text>
</g>
<!-- SideNavigationViewComponent&#45;&gt;SideNavigationViewModule -->
<g id="edge1" class="edge">
<title>SideNavigationViewComponent&#45;&gt;SideNavigationViewModule</title>
<path fill="none" stroke="black" d="M339.38,-104C329.65,-104 323.29,-104 323.29,-104 323.29,-104 323.29,-140.89 323.29,-140.89"/>
<polygon fill="black" stroke="black" points="319.79,-140.89 323.29,-150.89 326.79,-140.89 319.79,-140.89"/>
</g>
<!-- SideNavigationViewComponent  -->
<g id="node5" class="node">
<title>SideNavigationViewComponent </title>
<polygon fill="#fb8072" stroke="black" points="343.25,-252 140.75,-252 140.75,-216 343.25,-216 343.25,-252"/>
<text text-anchor="middle" x="242" y="-229.8" font-family="Times,serif" font-size="14.00">SideNavigationViewComponent </text>
</g>
<!-- SideNavigationViewModule&#45;&gt;SideNavigationViewComponent  -->
<g id="edge4" class="edge">
<title>SideNavigationViewModule&#45;&gt;SideNavigationViewComponent </title>
<path fill="none" stroke="black" stroke-dasharray="5,2" d="M242,-187.11C242,-187.11 242,-205.99 242,-205.99"/>
<polygon fill="black" stroke="black" points="238.5,-205.99 242,-215.99 245.5,-205.99 238.5,-205.99"/>
</g>
<!-- HelpContextualModule -->
<g id="node3" class="node">
<title>HelpContextualModule</title>
<polygon fill="#8dd3c7" stroke="black" points="316.2,-122 313.2,-126 292.2,-126 289.2,-122 167.8,-122 167.8,-86 316.2,-86 316.2,-122"/>
<text text-anchor="middle" x="242" y="-99.8" font-family="Times,serif" font-size="14.00">HelpContextualModule</text>
</g>
<!-- HelpContextualModule&#45;&gt;SideNavigationViewModule -->
<g id="edge2" class="edge">
<title>HelpContextualModule&#45;&gt;SideNavigationViewModule</title>
<path fill="none" stroke="black" d="M242,-122.11C242,-122.11 242,-140.99 242,-140.99"/>
<polygon fill="black" stroke="black" points="238.5,-140.99 242,-150.99 245.5,-140.99 238.5,-140.99"/>
</g>
<!-- LdsReplaceModule -->
<g id="node4" class="node">
<title>LdsReplaceModule</title>
<polygon fill="#8dd3c7" stroke="black" points="149.63,-122 146.63,-126 125.63,-126 122.63,-122 24.37,-122 24.37,-86 149.63,-86 149.63,-122"/>
<text text-anchor="middle" x="87" y="-99.8" font-family="Times,serif" font-size="14.00">LdsReplaceModule</text>
</g>
<!-- LdsReplaceModule&#45;&gt;SideNavigationViewModule -->
<g id="edge3" class="edge">
<title>LdsReplaceModule&#45;&gt;SideNavigationViewModule</title>
<path fill="none" stroke="black" d="M145.35,-122.11C145.35,-141.34 145.35,-169 145.35,-169 145.35,-169 146.14,-169 146.14,-169"/>
<polygon fill="black" stroke="black" points="143.26,-172.5 153.26,-169 143.26,-165.5 143.26,-172.5"/>
</g>
</g>
</svg>
