<?xml version="1.0" encoding="UTF-8" standalone="no"?>
<!DOCTYPE svg PUBLIC "-//W3C//DTD SVG 1.1//EN"
 "http://www.w3.org/Graphics/SVG/1.1/DTD/svg11.dtd">
<!-- Generated by graphviz version 2.47.0 (20210316.0004)
 -->
<!-- Title: dependencies Pages: 1 -->
<svg width="561pt" height="284pt"
 viewBox="0.00 0.00 561.00 284.00" xmlns="http://www.w3.org/2000/svg" xmlns:xlink="http://www.w3.org/1999/xlink">
<g id="graph0" class="graph" transform="scale(1 1) rotate(0) translate(4 280)">
<title>dependencies</title>
<polygon fill="white" stroke="transparent" points="-4,4 -4,-280 557,-280 557,4 -4,4"/>
<text text-anchor="start" x="255.51" y="-42.4" font-family="Times-12" font-weight="bold" font-size="14.00">Legend</text>
<polygon fill="#ffffb3" stroke="transparent" points="42.5,-10 42.5,-30 62.5,-30 62.5,-10 42.5,-10"/>
<text text-anchor="start" x="66.13" y="-15.4" font-family="Times-12" font-size="14.00"> &#160;Declarations</text>
<polygon fill="#8dd3c7" stroke="transparent" points="155.5,-10 155.5,-30 175.5,-30 175.5,-10 155.5,-10"/>
<text text-anchor="start" x="179.23" y="-15.4" font-family="Times-12" font-size="14.00"> &#160;Module</text>
<polygon fill="#80b1d3" stroke="transparent" points="241.5,-10 241.5,-30 261.5,-30 261.5,-10 241.5,-10"/>
<text text-anchor="start" x="265.28" y="-15.4" font-family="Times-12" font-size="14.00"> &#160;Bootstrap</text>
<polygon fill="#fdb462" stroke="transparent" points="338.5,-10 338.5,-30 358.5,-30 358.5,-10 338.5,-10"/>
<text text-anchor="start" x="362.17" y="-15.4" font-family="Times-12" font-size="14.00"> &#160;Providers</text>
<polygon fill="#fb8072" stroke="transparent" points="434.5,-10 434.5,-30 454.5,-30 454.5,-10 434.5,-10"/>
<text text-anchor="start" x="458.23" y="-15.4" font-family="Times-12" font-size="14.00"> &#160;Exports</text>
<g id="clust1" class="cluster">
<title>cluster_DataTreeWrapperModule</title>
<polygon fill="none" stroke="black" stroke-dasharray="1,5" points="8,-70 8,-268 545,-268 545,-70 8,-70"/>
</g>
<g id="clust4" class="cluster">
<title>cluster_DataTreeWrapperModule_imports</title>
<polygon fill="none" stroke="black" points="222,-78 222,-130 537,-130 537,-78 222,-78"/>
</g>
<g id="clust5" class="cluster">
<title>cluster_DataTreeWrapperModule_exports</title>
<polygon fill="none" stroke="black" points="185,-208 185,-260 387,-260 387,-208 185,-208"/>
</g>
<g id="clust2" class="cluster">
<title>cluster_DataTreeWrapperModule_declarations</title>
<polygon fill="none" stroke="black" points="16,-78 16,-130 214,-130 214,-78 16,-78"/>
</g>
<!-- DataTreeWrapperComponent -->
<g id="node1" class="node">
<title>DataTreeWrapperComponent</title>
<polygon fill="#ffffb3" stroke="black" points="206.37,-122 23.63,-122 23.63,-86 206.37,-86 206.37,-122"/>
<text text-anchor="middle" x="115" y="-99.8" font-family="Times,serif" font-size="14.00">DataTreeWrapperComponent</text>
</g>
<!-- DataTreeWrapperModule -->
<g id="node2" class="node">
<title>DataTreeWrapperModule</title>
<polygon fill="#8dd3c7" stroke="black" points="366.08,-187 363.08,-191 342.08,-191 339.08,-187 205.92,-187 205.92,-151 366.08,-151 366.08,-187"/>
<text text-anchor="middle" x="286" y="-164.8" font-family="Times,serif" font-size="14.00">DataTreeWrapperModule</text>
</g>
<!-- DataTreeWrapperComponent&#45;&gt;DataTreeWrapperModule -->
<g id="edge1" class="edge">
<title>DataTreeWrapperComponent&#45;&gt;DataTreeWrapperModule</title>
<path fill="none" stroke="black" d="M199.39,-122.11C199.39,-141.34 199.39,-169 199.39,-169 199.39,-169 200.04,-169 200.04,-169"/>
<polygon fill="black" stroke="black" points="195.9,-172.5 205.9,-169 195.9,-165.5 195.9,-172.5"/>
</g>
<!-- DataTreeWrapperComponent  -->
<g id="node5" class="node">
<title>DataTreeWrapperComponent </title>
<polygon fill="#fb8072" stroke="black" points="378.87,-252 193.13,-252 193.13,-216 378.87,-216 378.87,-252"/>
<text text-anchor="middle" x="286" y="-229.8" font-family="Times,serif" font-size="14.00">DataTreeWrapperComponent </text>
</g>
<!-- DataTreeWrapperModule&#45;&gt;DataTreeWrapperComponent  -->
<g id="edge4" class="edge">
<title>DataTreeWrapperModule&#45;&gt;DataTreeWrapperComponent </title>
<path fill="none" stroke="black" stroke-dasharray="5,2" d="M286,-187.11C286,-187.11 286,-205.99 286,-205.99"/>
<polygon fill="black" stroke="black" points="282.5,-205.99 286,-215.99 289.5,-205.99 282.5,-205.99"/>
</g>
<!-- DataSourceToolbarModule -->
<g id="node3" class="node">
<title>DataSourceToolbarModule</title>
<polygon fill="#8dd3c7" stroke="black" points="528.67,-122 525.67,-126 504.67,-126 501.67,-122 359.33,-122 359.33,-86 528.67,-86 528.67,-122"/>
<text text-anchor="middle" x="444" y="-99.8" font-family="Times,serif" font-size="14.00">DataSourceToolbarModule</text>
</g>
<!-- DataSourceToolbarModule&#45;&gt;DataTreeWrapperModule -->
<g id="edge2" class="edge">
<title>DataSourceToolbarModule&#45;&gt;DataTreeWrapperModule</title>
<path fill="none" stroke="black" d="M372.61,-122.11C372.61,-141.34 372.61,-169 372.61,-169 372.61,-169 371.96,-169 371.96,-169"/>
<polygon fill="black" stroke="black" points="376.1,-165.5 366.1,-169 376.1,-172.5 376.1,-165.5"/>
</g>
<!-- DataTreeModule -->
<g id="node4" class="node">
<title>DataTreeModule</title>
<polygon fill="#8dd3c7" stroke="black" points="341.62,-122 338.62,-126 317.62,-126 314.62,-122 230.38,-122 230.38,-86 341.62,-86 341.62,-122"/>
<text text-anchor="middle" x="286" y="-99.8" font-family="Times,serif" font-size="14.00">DataTreeModule</text>
</g>
<!-- DataTreeModule&#45;&gt;DataTreeWrapperModule -->
<g id="edge3" class="edge">
<title>DataTreeModule&#45;&gt;DataTreeWrapperModule</title>
<path fill="none" stroke="black" d="M286,-122.11C286,-122.11 286,-140.99 286,-140.99"/>
<polygon fill="black" stroke="black" points="282.5,-140.99 286,-150.99 289.5,-140.99 282.5,-140.99"/>
</g>
</g>
</svg>
