<?xml version="1.0" encoding="UTF-8" standalone="no"?>
<!DOCTYPE svg PUBLIC "-//W3C//DTD SVG 1.1//EN"
 "http://www.w3.org/Graphics/SVG/1.1/DTD/svg11.dtd">
<!-- Generated by graphviz version 2.47.0 (20210316.0004)
 -->
<!-- Title: dependencies Pages: 1 -->
<svg width="3729pt" height="211pt"
 viewBox="0.00 0.00 3729.00 211.00" xmlns="http://www.w3.org/2000/svg" xmlns:xlink="http://www.w3.org/1999/xlink">
<g id="graph0" class="graph" transform="scale(1 1) rotate(0) translate(4 207)">
<title>dependencies</title>
<polygon fill="white" stroke="transparent" points="-4,4 -4,-207 3725,-207 3725,4 -4,4"/>
<text text-anchor="start" x="1839.51" y="-42.4" font-family="Times-12" font-weight="bold" font-size="14.00">Legend</text>
<polygon fill="#ffffb3" stroke="transparent" points="1626.5,-10 1626.5,-30 1646.5,-30 1646.5,-10 1626.5,-10"/>
<text text-anchor="start" x="1650.13" y="-15.4" font-family="Times-12" font-size="14.00"> &#160;Declarations</text>
<polygon fill="#8dd3c7" stroke="transparent" points="1739.5,-10 1739.5,-30 1759.5,-30 1759.5,-10 1739.5,-10"/>
<text text-anchor="start" x="1763.23" y="-15.4" font-family="Times-12" font-size="14.00"> &#160;Module</text>
<polygon fill="#80b1d3" stroke="transparent" points="1825.5,-10 1825.5,-30 1845.5,-30 1845.5,-10 1825.5,-10"/>
<text text-anchor="start" x="1849.28" y="-15.4" font-family="Times-12" font-size="14.00"> &#160;Bootstrap</text>
<polygon fill="#fdb462" stroke="transparent" points="1922.5,-10 1922.5,-30 1942.5,-30 1942.5,-10 1922.5,-10"/>
<text text-anchor="start" x="1946.17" y="-15.4" font-family="Times-12" font-size="14.00"> &#160;Providers</text>
<polygon fill="#fb8072" stroke="transparent" points="2018.5,-10 2018.5,-30 2038.5,-30 2038.5,-10 2018.5,-10"/>
<text text-anchor="start" x="2042.23" y="-15.4" font-family="Times-12" font-size="14.00"> &#160;Exports</text>
<g id="clust1" class="cluster">
<title>cluster_AdminModule</title>
<polygon fill="none" stroke="black" stroke-dasharray="1,5" points="8,-70 8,-195 3713,-195 3713,-70 8,-70"/>
</g>
<g id="clust2" class="cluster">
<title>cluster_AdminModule_declarations</title>
<polygon fill="none" stroke="black" points="937,-78 937,-130 3705,-130 3705,-78 937,-78"/>
</g>
<g id="clust19" class="cluster">
<title>cluster_AdminModule_imports</title>
<polygon fill="none" stroke="black" points="319,-78 319,-130 929,-130 929,-78 319,-78"/>
</g>
<g id="clust22" class="cluster">
<title>cluster_AdminModule_providers</title>
<polygon fill="none" stroke="black" points="16,-78 16,-130 311,-130 311,-78 16,-78"/>
</g>
<!-- AddConfigSidesheetComponent -->
<g id="node1" class="node">
<title>AddConfigSidesheetComponent</title>
<polygon fill="#ffffb3" stroke="black" points="3696.98,-122 3499.02,-122 3499.02,-86 3696.98,-86 3696.98,-122"/>
<text text-anchor="middle" x="3598" y="-99.8" font-family="Times,serif" font-size="14.00">AddConfigSidesheetComponent</text>
</g>
<!-- AdminModule -->
<g id="node17" class="node">
<title>AdminModule</title>
<polygon fill="#8dd3c7" stroke="black" points="1719.44,-187 1716.44,-191 1695.44,-191 1692.44,-187 1620.56,-187 1620.56,-151 1719.44,-151 1719.44,-187"/>
<text text-anchor="middle" x="1670" y="-164.8" font-family="Times,serif" font-size="14.00">AdminModule</text>
</g>
<!-- AddConfigSidesheetComponent&#45;&gt;AdminModule -->
<g id="edge1" class="edge">
<title>AddConfigSidesheetComponent&#45;&gt;AdminModule</title>
<path fill="none" stroke="black" d="M3598,-122.15C3598,-145.76 3598,-184 3598,-184 3598,-184 1729.6,-184 1729.6,-184"/>
<polygon fill="black" stroke="black" points="1729.6,-180.5 1719.6,-184 1729.6,-187.5 1729.6,-180.5"/>
</g>
<!-- ApplyConfigSidesheetComponent -->
<g id="node2" class="node">
<title>ApplyConfigSidesheetComponent</title>
<polygon fill="#ffffb3" stroke="black" points="3481.37,-122 3272.63,-122 3272.63,-86 3481.37,-86 3481.37,-122"/>
<text text-anchor="middle" x="3377" y="-99.8" font-family="Times,serif" font-size="14.00">ApplyConfigSidesheetComponent</text>
</g>
<!-- ApplyConfigSidesheetComponent&#45;&gt;AdminModule -->
<g id="edge2" class="edge">
<title>ApplyConfigSidesheetComponent&#45;&gt;AdminModule</title>
<path fill="none" stroke="black" d="M3377,-122.25C3377,-145.02 3377,-181 3377,-181 3377,-181 1729.25,-181 1729.25,-181"/>
<polygon fill="black" stroke="black" points="1729.25,-177.5 1719.25,-181 1729.25,-184.5 1729.25,-177.5"/>
</g>
<!-- CacheComponent -->
<g id="node3" class="node">
<title>CacheComponent</title>
<polygon fill="#ffffb3" stroke="black" points="3254.31,-122 3137.69,-122 3137.69,-86 3254.31,-86 3254.31,-122"/>
<text text-anchor="middle" x="3196" y="-99.8" font-family="Times,serif" font-size="14.00">CacheComponent</text>
</g>
<!-- CacheComponent&#45;&gt;AdminModule -->
<g id="edge3" class="edge">
<title>CacheComponent&#45;&gt;AdminModule</title>
<path fill="none" stroke="black" d="M3196,-122.29C3196,-144.21 3196,-178 3196,-178 3196,-178 1729.47,-178 1729.47,-178"/>
<polygon fill="black" stroke="black" points="1729.47,-174.5 1719.47,-178 1729.47,-181.5 1729.47,-174.5"/>
</g>
<!-- ConfigComponent -->
<g id="node4" class="node">
<title>ConfigComponent</title>
<polygon fill="#ffffb3" stroke="black" points="3120.22,-122 2999.78,-122 2999.78,-86 3120.22,-86 3120.22,-122"/>
<text text-anchor="middle" x="3060" y="-99.8" font-family="Times,serif" font-size="14.00">ConfigComponent</text>
</g>
<!-- ConfigComponent&#45;&gt;AdminModule -->
<g id="edge4" class="edge">
<title>ConfigComponent&#45;&gt;AdminModule</title>
<path fill="none" stroke="black" d="M3060,-122.03C3060,-142.77 3060,-174 3060,-174 3060,-174 1729.47,-174 1729.47,-174"/>
<polygon fill="black" stroke="black" points="1729.47,-170.5 1719.47,-174 1729.47,-177.5 1729.47,-170.5"/>
</g>
<!-- ConfigKeyPathComponent -->
<g id="node5" class="node">
<title>ConfigKeyPathComponent</title>
<polygon fill="#ffffb3" stroke="black" points="2982.43,-122 2813.57,-122 2813.57,-86 2982.43,-86 2982.43,-122"/>
<text text-anchor="middle" x="2898" y="-99.8" font-family="Times,serif" font-size="14.00">ConfigKeyPathComponent</text>
</g>
<!-- ConfigKeyPathComponent&#45;&gt;AdminModule -->
<g id="edge5" class="edge">
<title>ConfigKeyPathComponent&#45;&gt;AdminModule</title>
<path fill="none" stroke="black" d="M2898,-122.31C2898,-142.15 2898,-171 2898,-171 2898,-171 1729.28,-171 1729.28,-171"/>
<polygon fill="black" stroke="black" points="1729.28,-167.5 1719.28,-171 1729.28,-174.5 1729.28,-167.5"/>
</g>
<!-- ConvertConfigSidesheetComponent -->
<g id="node6" class="node">
<title>ConvertConfigSidesheetComponent</title>
<polygon fill="#ffffb3" stroke="black" points="2795.47,-122 2576.53,-122 2576.53,-86 2795.47,-86 2795.47,-122"/>
<text text-anchor="middle" x="2686" y="-99.8" font-family="Times,serif" font-size="14.00">ConvertConfigSidesheetComponent</text>
</g>
<!-- ConvertConfigSidesheetComponent&#45;&gt;AdminModule -->
<g id="edge6" class="edge">
<title>ConvertConfigSidesheetComponent&#45;&gt;AdminModule</title>
<path fill="none" stroke="black" d="M2686,-122.17C2686,-141.09 2686,-168 2686,-168 2686,-168 1729.35,-168 1729.35,-168"/>
<polygon fill="black" stroke="black" points="1729.35,-164.5 1719.35,-168 1729.35,-171.5 1729.35,-164.5"/>
</g>
<!-- DashboardComponent -->
<g id="node7" class="node">
<title>DashboardComponent</title>
<polygon fill="#ffffb3" stroke="black" points="2558.97,-122 2417.03,-122 2417.03,-86 2558.97,-86 2558.97,-122"/>
<text text-anchor="middle" x="2488" y="-99.8" font-family="Times,serif" font-size="14.00">DashboardComponent</text>
</g>
<!-- DashboardComponent&#45;&gt;AdminModule -->
<g id="edge7" class="edge">
<title>DashboardComponent&#45;&gt;AdminModule</title>
<path fill="none" stroke="black" d="M2488,-122.3C2488,-140.27 2488,-165 2488,-165 2488,-165 1729.33,-165 1729.33,-165"/>
<polygon fill="black" stroke="black" points="1729.33,-161.5 1719.33,-165 1729.33,-168.5 1729.33,-161.5"/>
</g>
<!-- DeleteConfigSidesheetComponent -->
<g id="node8" class="node">
<title>DeleteConfigSidesheetComponent</title>
<polygon fill="#ffffb3" stroke="black" points="2399.4,-122 2188.6,-122 2188.6,-86 2399.4,-86 2399.4,-122"/>
<text text-anchor="middle" x="2294" y="-99.8" font-family="Times,serif" font-size="14.00">DeleteConfigSidesheetComponent</text>
</g>
<!-- DeleteConfigSidesheetComponent&#45;&gt;AdminModule -->
<g id="edge8" class="edge">
<title>DeleteConfigSidesheetComponent&#45;&gt;AdminModule</title>
<path fill="none" stroke="black" d="M2294,-122.04C2294,-138.73 2294,-161 2294,-161 2294,-161 1729.22,-161 1729.22,-161"/>
<polygon fill="black" stroke="black" points="1729.22,-157.5 1719.22,-161 1729.22,-164.5 1729.22,-157.5"/>
</g>
<!-- ListSettingComponent -->
<g id="node9" class="node">
<title>ListSettingComponent</title>
<polygon fill="#ffffb3" stroke="black" points="2170.28,-122 2027.72,-122 2027.72,-86 2170.28,-86 2170.28,-122"/>
<text text-anchor="middle" x="2099" y="-99.8" font-family="Times,serif" font-size="14.00">ListSettingComponent</text>
</g>
<!-- ListSettingComponent&#45;&gt;AdminModule -->
<g id="edge9" class="edge">
<title>ListSettingComponent&#45;&gt;AdminModule</title>
<path fill="none" stroke="black" d="M2099,-122.28C2099,-137.95 2099,-158 2099,-158 2099,-158 1729.63,-158 1729.63,-158"/>
<polygon fill="black" stroke="black" points="1729.63,-154.5 1719.63,-158 1729.63,-161.5 1729.63,-154.5"/>
</g>
<!-- LogDetailsSidesheetComponent -->
<g id="node10" class="node">
<title>LogDetailsSidesheetComponent</title>
<polygon fill="#ffffb3" stroke="black" points="2009.69,-122 1812.31,-122 1812.31,-86 2009.69,-86 2009.69,-122"/>
<text text-anchor="middle" x="1911" y="-99.8" font-family="Times,serif" font-size="14.00">LogDetailsSidesheetComponent</text>
</g>
<!-- LogDetailsSidesheetComponent&#45;&gt;AdminModule -->
<g id="edge10" class="edge">
<title>LogDetailsSidesheetComponent&#45;&gt;AdminModule</title>
<path fill="none" stroke="black" d="M1911,-122.12C1911,-136.78 1911,-155 1911,-155 1911,-155 1729.35,-155 1729.35,-155"/>
<polygon fill="black" stroke="black" points="1729.35,-151.5 1719.35,-155 1729.35,-158.5 1729.35,-151.5"/>
</g>
<!-- LogsComponent -->
<g id="node11" class="node">
<title>LogsComponent</title>
<polygon fill="#ffffb3" stroke="black" points="1794.83,-122 1685.17,-122 1685.17,-86 1794.83,-86 1794.83,-122"/>
<text text-anchor="middle" x="1740" y="-99.8" font-family="Times,serif" font-size="14.00">LogsComponent</text>
</g>
<!-- LogsComponent&#45;&gt;AdminModule -->
<g id="edge11" class="edge">
<title>LogsComponent&#45;&gt;AdminModule</title>
<path fill="none" stroke="black" d="M1702.28,-122.11C1702.28,-122.11 1702.28,-140.99 1702.28,-140.99"/>
<polygon fill="black" stroke="black" points="1698.78,-140.99 1702.28,-150.99 1705.78,-140.99 1698.78,-140.99"/>
</g>
<!-- PackagesComponent -->
<g id="node12" class="node">
<title>PackagesComponent</title>
<polygon fill="#ffffb3" stroke="black" points="1667.92,-122 1534.08,-122 1534.08,-86 1667.92,-86 1667.92,-122"/>
<text text-anchor="middle" x="1601" y="-99.8" font-family="Times,serif" font-size="14.00">PackagesComponent</text>
</g>
<!-- PackagesComponent&#45;&gt;AdminModule -->
<g id="edge12" class="edge">
<title>PackagesComponent&#45;&gt;AdminModule</title>
<path fill="none" stroke="black" d="M1644.25,-122.11C1644.25,-122.11 1644.25,-140.99 1644.25,-140.99"/>
<polygon fill="black" stroke="black" points="1640.75,-140.99 1644.25,-150.99 1647.75,-140.99 1640.75,-140.99"/>
</g>
<!-- PluginsComponent -->
<g id="node13" class="node">
<title>PluginsComponent</title>
<polygon fill="#ffffb3" stroke="black" points="1516.84,-122 1393.16,-122 1393.16,-86 1516.84,-86 1516.84,-122"/>
<text text-anchor="middle" x="1455" y="-99.8" font-family="Times,serif" font-size="14.00">PluginsComponent</text>
</g>
<!-- PluginsComponent&#45;&gt;AdminModule -->
<g id="edge13" class="edge">
<title>PluginsComponent&#45;&gt;AdminModule</title>
<path fill="none" stroke="black" d="M1455,-122.12C1455,-136.78 1455,-155 1455,-155 1455,-155 1610.67,-155 1610.67,-155"/>
<polygon fill="black" stroke="black" points="1610.67,-158.5 1620.67,-155 1610.67,-151.5 1610.67,-158.5"/>
</g>
<!-- SelectValueComponent -->
<g id="node14" class="node">
<title>SelectValueComponent</title>
<polygon fill="#ffffb3" stroke="black" points="1375.47,-122 1226.53,-122 1226.53,-86 1375.47,-86 1375.47,-122"/>
<text text-anchor="middle" x="1301" y="-99.8" font-family="Times,serif" font-size="14.00">SelectValueComponent</text>
</g>
<!-- SelectValueComponent&#45;&gt;AdminModule -->
<g id="edge14" class="edge">
<title>SelectValueComponent&#45;&gt;AdminModule</title>
<path fill="none" stroke="black" d="M1301,-122.28C1301,-137.95 1301,-158 1301,-158 1301,-158 1610.62,-158 1610.62,-158"/>
<polygon fill="black" stroke="black" points="1610.62,-161.5 1620.62,-158 1610.62,-154.5 1610.62,-161.5"/>
</g>
<!-- StatusComponent -->
<g id="node15" class="node">
<title>StatusComponent</title>
<polygon fill="#ffffb3" stroke="black" points="1208.56,-122 1093.44,-122 1093.44,-86 1208.56,-86 1208.56,-122"/>
<text text-anchor="middle" x="1151" y="-99.8" font-family="Times,serif" font-size="14.00">StatusComponent</text>
</g>
<!-- StatusComponent&#45;&gt;AdminModule -->
<g id="edge15" class="edge">
<title>StatusComponent&#45;&gt;AdminModule</title>
<path fill="none" stroke="black" d="M1151,-122.04C1151,-138.73 1151,-161 1151,-161 1151,-161 1610.71,-161 1610.71,-161"/>
<polygon fill="black" stroke="black" points="1610.71,-164.5 1620.71,-161 1610.71,-157.5 1610.71,-164.5"/>
</g>
<!-- SwaggerComponent -->
<g id="node16" class="node">
<title>SwaggerComponent</title>
<polygon fill="#ffffb3" stroke="black" points="1075.31,-122 944.69,-122 944.69,-86 1075.31,-86 1075.31,-122"/>
<text text-anchor="middle" x="1010" y="-99.8" font-family="Times,serif" font-size="14.00">SwaggerComponent</text>
</g>
<!-- SwaggerComponent&#45;&gt;AdminModule -->
<g id="edge16" class="edge">
<title>SwaggerComponent&#45;&gt;AdminModule</title>
<path fill="none" stroke="black" d="M1010,-122.3C1010,-140.27 1010,-165 1010,-165 1010,-165 1610.66,-165 1610.66,-165"/>
<polygon fill="black" stroke="black" points="1610.66,-168.5 1620.66,-165 1610.66,-161.5 1610.66,-168.5"/>
</g>
<!-- DataSourceToolbarModule -->
<g id="node18" class="node">
<title>DataSourceToolbarModule</title>
<polygon fill="#8dd3c7" stroke="black" points="920.67,-122 917.67,-126 896.67,-126 893.67,-122 751.33,-122 751.33,-86 920.67,-86 920.67,-122"/>
<text text-anchor="middle" x="836" y="-99.8" font-family="Times,serif" font-size="14.00">DataSourceToolbarModule</text>
</g>
<!-- DataSourceToolbarModule&#45;&gt;AdminModule -->
<g id="edge17" class="edge">
<title>DataSourceToolbarModule&#45;&gt;AdminModule</title>
<path fill="none" stroke="black" d="M836,-122.17C836,-141.09 836,-168 836,-168 836,-168 1610.64,-168 1610.64,-168"/>
<polygon fill="black" stroke="black" points="1610.64,-171.5 1620.64,-168 1610.64,-164.5 1610.64,-171.5"/>
</g>
<!-- DateModule -->
<g id="node19" class="node">
<title>DateModule</title>
<polygon fill="#8dd3c7" stroke="black" points="732.98,-122 729.98,-126 708.98,-126 705.98,-122 647.02,-122 647.02,-86 732.98,-86 732.98,-122"/>
<text text-anchor="middle" x="690" y="-99.8" font-family="Times,serif" font-size="14.00">DateModule</text>
</g>
<!-- DateModule&#45;&gt;AdminModule -->
<g id="edge18" class="edge">
<title>DateModule&#45;&gt;AdminModule</title>
<path fill="none" stroke="black" d="M690,-122.31C690,-142.15 690,-171 690,-171 690,-171 1610.73,-171 1610.73,-171"/>
<polygon fill="black" stroke="black" points="1610.73,-174.5 1620.73,-171 1610.73,-167.5 1610.73,-174.5"/>
</g>
<!-- InfoModalDialogModule -->
<g id="node20" class="node">
<title>InfoModalDialogModule</title>
<polygon fill="#8dd3c7" stroke="black" points="628.52,-122 625.52,-126 604.52,-126 601.52,-122 471.48,-122 471.48,-86 628.52,-86 628.52,-122"/>
<text text-anchor="middle" x="550" y="-99.8" font-family="Times,serif" font-size="14.00">InfoModalDialogModule</text>
</g>
<!-- InfoModalDialogModule&#45;&gt;AdminModule -->
<g id="edge19" class="edge">
<title>InfoModalDialogModule&#45;&gt;AdminModule</title>
<path fill="none" stroke="black" d="M550,-122.03C550,-142.77 550,-174 550,-174 550,-174 1610.43,-174 1610.43,-174"/>
<polygon fill="black" stroke="black" points="1610.43,-177.5 1620.43,-174 1610.43,-170.5 1610.43,-177.5"/>
</g>
<!-- LdsReplaceModule -->
<g id="node21" class="node">
<title>LdsReplaceModule</title>
<polygon fill="#8dd3c7" stroke="black" points="452.63,-122 449.63,-126 428.63,-126 425.63,-122 327.37,-122 327.37,-86 452.63,-86 452.63,-122"/>
<text text-anchor="middle" x="390" y="-99.8" font-family="Times,serif" font-size="14.00">LdsReplaceModule</text>
</g>
<!-- LdsReplaceModule&#45;&gt;AdminModule -->
<g id="edge20" class="edge">
<title>LdsReplaceModule&#45;&gt;AdminModule</title>
<path fill="none" stroke="black" d="M390,-122.29C390,-144.21 390,-178 390,-178 390,-178 1610.61,-178 1610.61,-178"/>
<polygon fill="black" stroke="black" points="1610.61,-181.5 1620.61,-178 1610.61,-174.5 1610.61,-181.5"/>
</g>
<!-- ConfigService -->
<g id="node22" class="node">
<title>ConfigService</title>
<ellipse fill="#fdb462" stroke="black" cx="236" cy="-104" rx="66.63" ry="18"/>
<text text-anchor="middle" x="236" y="-99.8" font-family="Times,serif" font-size="14.00">ConfigService</text>
</g>
<!-- ConfigService&#45;&gt;AdminModule -->
<g id="edge21" class="edge">
<title>ConfigService&#45;&gt;AdminModule</title>
<path fill="none" stroke="black" d="M236,-122.25C236,-145.02 236,-181 236,-181 236,-181 1610.64,-181 1610.64,-181"/>
<polygon fill="black" stroke="black" points="1610.64,-184.5 1620.64,-181 1610.64,-177.5 1610.64,-184.5"/>
</g>
<!-- StatusService -->
<g id="node23" class="node">
<title>StatusService</title>
<ellipse fill="#fdb462" stroke="black" cx="88" cy="-104" rx="63.7" ry="18"/>
<text text-anchor="middle" x="88" y="-99.8" font-family="Times,serif" font-size="14.00">StatusService</text>
</g>
<!-- StatusService&#45;&gt;AdminModule -->
<g id="edge22" class="edge">
<title>StatusService&#45;&gt;AdminModule</title>
<path fill="none" stroke="black" d="M88,-122.15C88,-145.76 88,-184 88,-184 88,-184 1610.48,-184 1610.48,-184"/>
<polygon fill="black" stroke="black" points="1610.48,-187.5 1620.48,-184 1610.48,-180.5 1610.48,-187.5"/>
</g>
</g>
</svg>
