<?xml version="1.0" encoding="UTF-8" standalone="no"?>
<!DOCTYPE svg PUBLIC "-//W3C//DTD SVG 1.1//EN"
 "http://www.w3.org/Graphics/SVG/1.1/DTD/svg11.dtd">
<!-- Generated by graphviz version 2.47.0 (20210316.0004)
 -->
<!-- Title: dependencies Pages: 1 -->
<svg width="1751pt" height="284pt"
 viewBox="0.00 0.00 1751.00 284.00" xmlns="http://www.w3.org/2000/svg" xmlns:xlink="http://www.w3.org/1999/xlink">
<g id="graph0" class="graph" transform="scale(1 1) rotate(0) translate(4 280)">
<title>dependencies</title>
<polygon fill="white" stroke="transparent" points="-4,4 -4,-280 1747,-280 1747,4 -4,4"/>
<text text-anchor="start" x="850.51" y="-42.4" font-family="Times-12" font-weight="bold" font-size="14.00">Legend</text>
<polygon fill="#ffffb3" stroke="transparent" points="637.5,-10 637.5,-30 657.5,-30 657.5,-10 637.5,-10"/>
<text text-anchor="start" x="661.13" y="-15.4" font-family="Times-12" font-size="14.00"> &#160;Declarations</text>
<polygon fill="#8dd3c7" stroke="transparent" points="750.5,-10 750.5,-30 770.5,-30 770.5,-10 750.5,-10"/>
<text text-anchor="start" x="774.23" y="-15.4" font-family="Times-12" font-size="14.00"> &#160;Module</text>
<polygon fill="#80b1d3" stroke="transparent" points="836.5,-10 836.5,-30 856.5,-30 856.5,-10 836.5,-10"/>
<text text-anchor="start" x="860.28" y="-15.4" font-family="Times-12" font-size="14.00"> &#160;Bootstrap</text>
<polygon fill="#fdb462" stroke="transparent" points="933.5,-10 933.5,-30 953.5,-30 953.5,-10 933.5,-10"/>
<text text-anchor="start" x="957.17" y="-15.4" font-family="Times-12" font-size="14.00"> &#160;Providers</text>
<polygon fill="#fb8072" stroke="transparent" points="1029.5,-10 1029.5,-30 1049.5,-30 1049.5,-10 1029.5,-10"/>
<text text-anchor="start" x="1053.23" y="-15.4" font-family="Times-12" font-size="14.00"> &#160;Exports</text>
<g id="clust1" class="cluster">
<title>cluster_EntityModule</title>
<polygon fill="none" stroke="black" stroke-dasharray="1,5" points="8,-70 8,-268 1735,-268 1735,-70 8,-70"/>
</g>
<g id="clust11" class="cluster">
<title>cluster_EntityModule_providers</title>
<polygon fill="none" stroke="black" points="1583,-78 1583,-130 1727,-130 1727,-78 1583,-78"/>
</g>
<g id="clust8" class="cluster">
<title>cluster_EntityModule_imports</title>
<polygon fill="none" stroke="black" points="1069,-78 1069,-130 1575,-130 1575,-78 1069,-78"/>
</g>
<g id="clust9" class="cluster">
<title>cluster_EntityModule_exports</title>
<polygon fill="none" stroke="black" points="781,-208 781,-260 1158,-260 1158,-208 781,-208"/>
</g>
<g id="clust2" class="cluster">
<title>cluster_EntityModule_declarations</title>
<polygon fill="none" stroke="black" points="16,-78 16,-130 1061,-130 1061,-78 16,-78"/>
</g>
<!-- EntitySelectComponent -->
<g id="node1" class="node">
<title>EntitySelectComponent</title>
<polygon fill="#ffffb3" stroke="black" points="1052.76,-122 903.24,-122 903.24,-86 1052.76,-86 1052.76,-122"/>
<text text-anchor="middle" x="978" y="-99.8" font-family="Times,serif" font-size="14.00">EntitySelectComponent</text>
</g>
<!-- EntityModule -->
<g id="node6" class="node">
<title>EntityModule</title>
<polygon fill="#8dd3c7" stroke="black" points="1024.77,-187 1021.77,-191 1000.77,-191 997.77,-187 931.23,-187 931.23,-151 1024.77,-151 1024.77,-187"/>
<text text-anchor="middle" x="978" y="-164.8" font-family="Times,serif" font-size="14.00">EntityModule</text>
</g>
<!-- EntitySelectComponent&#45;&gt;EntityModule -->
<g id="edge1" class="edge">
<title>EntitySelectComponent&#45;&gt;EntityModule</title>
<path fill="none" stroke="black" d="M978,-122.11C978,-122.11 978,-140.99 978,-140.99"/>
<polygon fill="black" stroke="black" points="974.5,-140.99 978,-150.99 981.5,-140.99 974.5,-140.99"/>
</g>
<!-- FkTableSelectComponent -->
<g id="node2" class="node">
<title>FkTableSelectComponent</title>
<polygon fill="#ffffb3" stroke="black" points="885.2,-122 722.8,-122 722.8,-86 885.2,-86 885.2,-122"/>
<text text-anchor="middle" x="804" y="-99.8" font-family="Times,serif" font-size="14.00">FkTableSelectComponent</text>
</g>
<!-- FkTableSelectComponent&#45;&gt;EntityModule -->
<g id="edge2" class="edge">
<title>FkTableSelectComponent&#45;&gt;EntityModule</title>
<path fill="none" stroke="black" d="M837.29,-122.01C837.29,-138.05 837.29,-159 837.29,-159 837.29,-159 921.15,-159 921.15,-159"/>
<polygon fill="black" stroke="black" points="921.15,-162.5 931.15,-159 921.15,-155.5 921.15,-162.5"/>
</g>
<!-- TypedEntityCandidateSidesheetComponent -->
<g id="node3" class="node">
<title>TypedEntityCandidateSidesheetComponent</title>
<polygon fill="#ffffb3" stroke="black" points="704.74,-122 443.26,-122 443.26,-86 704.74,-86 704.74,-122"/>
<text text-anchor="middle" x="574" y="-99.8" font-family="Times,serif" font-size="14.00">TypedEntityCandidateSidesheetComponent</text>
</g>
<!-- TypedEntityCandidateSidesheetComponent&#45;&gt;EntityModule -->
<g id="edge3" class="edge">
<title>TypedEntityCandidateSidesheetComponent&#45;&gt;EntityModule</title>
<path fill="none" stroke="black" d="M574,-122.27C574,-140.56 574,-166 574,-166 574,-166 920.87,-166 920.87,-166"/>
<polygon fill="black" stroke="black" points="920.87,-169.5 930.87,-166 920.87,-162.5 920.87,-169.5"/>
</g>
<!-- TypedEntitySelectComponent -->
<g id="node4" class="node">
<title>TypedEntitySelectComponent</title>
<polygon fill="#ffffb3" stroke="black" points="424.53,-122 239.47,-122 239.47,-86 424.53,-86 424.53,-122"/>
<text text-anchor="middle" x="332" y="-99.8" font-family="Times,serif" font-size="14.00">TypedEntitySelectComponent</text>
</g>
<!-- TypedEntitySelectComponent&#45;&gt;EntityModule -->
<g id="edge4" class="edge">
<title>TypedEntitySelectComponent&#45;&gt;EntityModule</title>
<path fill="none" stroke="black" d="M332,-122.13C332,-142.57 332,-173 332,-173 332,-173 921.02,-173 921.02,-173"/>
<polygon fill="black" stroke="black" points="921.02,-176.5 931.02,-173 921.02,-169.5 921.02,-176.5"/>
</g>
<!-- TypedEntitySelectorComponent -->
<g id="node5" class="node">
<title>TypedEntitySelectorComponent</title>
<polygon fill="#ffffb3" stroke="black" points="221.69,-122 24.31,-122 24.31,-86 221.69,-86 221.69,-122"/>
<text text-anchor="middle" x="123" y="-99.8" font-family="Times,serif" font-size="14.00">TypedEntitySelectorComponent</text>
</g>
<!-- TypedEntitySelectorComponent&#45;&gt;EntityModule -->
<g id="edge5" class="edge">
<title>TypedEntitySelectorComponent&#45;&gt;EntityModule</title>
<path fill="none" stroke="black" d="M123,-122.01C123,-144.49 123,-180 123,-180 123,-180 921.12,-180 921.12,-180"/>
<polygon fill="black" stroke="black" points="921.12,-183.5 931.12,-180 921.12,-176.5 921.12,-183.5"/>
</g>
<!-- EntitySelectComponent  -->
<g id="node10" class="node">
<title>EntitySelectComponent </title>
<polygon fill="#fb8072" stroke="black" points="1149.76,-252 996.24,-252 996.24,-216 1149.76,-216 1149.76,-252"/>
<text text-anchor="middle" x="1073" y="-229.8" font-family="Times,serif" font-size="14.00">EntitySelectComponent </text>
</g>
<!-- EntityModule&#45;&gt;EntitySelectComponent  -->
<g id="edge9" class="edge">
<title>EntityModule&#45;&gt;EntitySelectComponent </title>
<path fill="none" stroke="black" stroke-dasharray="5,2" d="M1010.63,-187.11C1010.63,-187.11 1010.63,-205.99 1010.63,-205.99"/>
<polygon fill="black" stroke="black" points="1007.13,-205.99 1010.63,-215.99 1014.13,-205.99 1007.13,-205.99"/>
</g>
<!-- TypedEntitySelectComponent  -->
<g id="node11" class="node">
<title>TypedEntitySelectComponent </title>
<polygon fill="#fb8072" stroke="black" points="978.53,-252 789.47,-252 789.47,-216 978.53,-216 978.53,-252"/>
<text text-anchor="middle" x="884" y="-229.8" font-family="Times,serif" font-size="14.00">TypedEntitySelectComponent </text>
</g>
<!-- EntityModule&#45;&gt;TypedEntitySelectComponent  -->
<g id="edge10" class="edge">
<title>EntityModule&#45;&gt;TypedEntitySelectComponent </title>
<path fill="none" stroke="black" stroke-dasharray="5,2" d="M954.81,-187.11C954.81,-187.11 954.81,-205.99 954.81,-205.99"/>
<polygon fill="black" stroke="black" points="951.31,-205.99 954.81,-215.99 958.31,-205.99 951.31,-205.99"/>
</g>
<!-- DataSourceToolbarModule -->
<g id="node7" class="node">
<title>DataSourceToolbarModule</title>
<polygon fill="#8dd3c7" stroke="black" points="1566.67,-122 1563.67,-126 1542.67,-126 1539.67,-122 1397.33,-122 1397.33,-86 1566.67,-86 1566.67,-122"/>
<text text-anchor="middle" x="1482" y="-99.8" font-family="Times,serif" font-size="14.00">DataSourceToolbarModule</text>
</g>
<!-- DataSourceToolbarModule&#45;&gt;EntityModule -->
<g id="edge6" class="edge">
<title>DataSourceToolbarModule&#45;&gt;EntityModule</title>
<path fill="none" stroke="black" d="M1482,-122.13C1482,-142.57 1482,-173 1482,-173 1482,-173 1034.96,-173 1034.96,-173"/>
<polygon fill="black" stroke="black" points="1034.96,-169.5 1024.96,-173 1034.96,-176.5 1034.96,-169.5"/>
</g>
<!-- DataTableModule -->
<g id="node8" class="node">
<title>DataTableModule</title>
<polygon fill="#8dd3c7" stroke="black" points="1378.85,-122 1375.85,-126 1354.85,-126 1351.85,-122 1261.15,-122 1261.15,-86 1378.85,-86 1378.85,-122"/>
<text text-anchor="middle" x="1320" y="-99.8" font-family="Times,serif" font-size="14.00">DataTableModule</text>
</g>
<!-- DataTableModule&#45;&gt;EntityModule -->
<g id="edge7" class="edge">
<title>DataTableModule&#45;&gt;EntityModule</title>
<path fill="none" stroke="black" d="M1320,-122.27C1320,-140.56 1320,-166 1320,-166 1320,-166 1034.84,-166 1034.84,-166"/>
<polygon fill="black" stroke="black" points="1034.84,-162.5 1024.84,-166 1034.84,-169.5 1034.84,-162.5"/>
</g>
<!-- FkAdvancedPickerModule -->
<g id="node9" class="node">
<title>FkAdvancedPickerModule</title>
<polygon fill="#8dd3c7" stroke="black" points="1243.35,-122 1240.35,-126 1219.35,-126 1216.35,-122 1076.65,-122 1076.65,-86 1243.35,-86 1243.35,-122"/>
<text text-anchor="middle" x="1160" y="-99.8" font-family="Times,serif" font-size="14.00">FkAdvancedPickerModule</text>
</g>
<!-- FkAdvancedPickerModule&#45;&gt;EntityModule -->
<g id="edge8" class="edge">
<title>FkAdvancedPickerModule&#45;&gt;EntityModule</title>
<path fill="none" stroke="black" d="M1113.1,-122.01C1113.1,-138.05 1113.1,-159 1113.1,-159 1113.1,-159 1034.87,-159 1034.87,-159"/>
<polygon fill="black" stroke="black" points="1034.87,-155.5 1024.87,-159 1034.87,-162.5 1034.87,-155.5"/>
</g>
<!-- EntityService -->
<g id="node12" class="node">
<title>EntityService</title>
<ellipse fill="#fdb462" stroke="black" cx="1655" cy="-104" rx="63.7" ry="18"/>
<text text-anchor="middle" x="1655" y="-99.8" font-family="Times,serif" font-size="14.00">EntityService</text>
</g>
<!-- EntityService&#45;&gt;EntityModule -->
<g id="edge11" class="edge">
<title>EntityService&#45;&gt;EntityModule</title>
<path fill="none" stroke="black" d="M1655,-122.01C1655,-144.49 1655,-180 1655,-180 1655,-180 1034.8,-180 1034.8,-180"/>
<polygon fill="black" stroke="black" points="1034.8,-176.5 1024.8,-180 1034.8,-183.5 1034.8,-176.5"/>
</g>
</g>
</svg>
