<?xml version="1.0" encoding="UTF-8" standalone="no"?>
<!DOCTYPE svg PUBLIC "-//W3C//DTD SVG 1.1//EN"
 "http://www.w3.org/Graphics/SVG/1.1/DTD/svg11.dtd">
<!-- Generated by graphviz version 2.47.0 (20210316.0004)
 -->
<!-- Title: dependencies Pages: 1 -->
<svg width="1032pt" height="396pt"
 viewBox="0.00 0.00 1032.00 395.59" xmlns="http://www.w3.org/2000/svg" xmlns:xlink="http://www.w3.org/1999/xlink">
<g id="graph0" class="graph" transform="scale(1 1) rotate(0) translate(4 391.59)">
<title>dependencies</title>
<polygon fill="white" stroke="transparent" points="-4,4 -4,-391.59 1028,-391.59 1028,4 -4,4"/>
<text text-anchor="start" x="491.01" y="-42.4" font-family="Times-12" font-weight="bold" font-size="14.00">Legend</text>
<polygon fill="#ffffb3" stroke="transparent" points="278,-10 278,-30 298,-30 298,-10 278,-10"/>
<text text-anchor="start" x="301.63" y="-15.4" font-family="Times-12" font-size="14.00"> &#160;Declarations</text>
<polygon fill="#8dd3c7" stroke="transparent" points="391,-10 391,-30 411,-30 411,-10 391,-10"/>
<text text-anchor="start" x="414.73" y="-15.4" font-family="Times-12" font-size="14.00"> &#160;Module</text>
<polygon fill="#80b1d3" stroke="transparent" points="477,-10 477,-30 497,-30 497,-10 477,-10"/>
<text text-anchor="start" x="500.78" y="-15.4" font-family="Times-12" font-size="14.00"> &#160;Bootstrap</text>
<polygon fill="#fdb462" stroke="transparent" points="574,-10 574,-30 594,-30 594,-10 574,-10"/>
<text text-anchor="start" x="597.67" y="-15.4" font-family="Times-12" font-size="14.00"> &#160;Providers</text>
<polygon fill="#fb8072" stroke="transparent" points="670,-10 670,-30 690,-30 690,-10 670,-10"/>
<text text-anchor="start" x="693.73" y="-15.4" font-family="Times-12" font-size="14.00"> &#160;Exports</text>
<g id="clust1" class="cluster">
<title>cluster_MultiSelectFormcontrolModule</title>
<polygon fill="none" stroke="black" stroke-dasharray="1,5" points="8,-70 8,-379.59 1016,-379.59 1016,-70 8,-70"/>
</g>
<g id="clust5" class="cluster">
<title>cluster_MultiSelectFormcontrolModule_exports</title>
<polygon fill="none" stroke="black" points="394,-319.59 394,-371.59 630,-371.59 630,-319.59 394,-319.59"/>
</g>
<g id="clust2" class="cluster">
<title>cluster_MultiSelectFormcontrolModule_declarations</title>
<polygon fill="none" stroke="black" points="396,-189.59 396,-241.59 628,-241.59 628,-189.59 396,-189.59"/>
</g>
<g id="clust3" class="cluster">
<title>cluster_MultiSelectFormcontrolModule_MultiSelectFormcontrolComponent_providers</title>
<polygon fill="none" stroke="black" points="16,-78 16,-176.59 1008,-176.59 1008,-78 16,-78"/>
</g>
<!-- MultiSelectFormcontrolComponent -->
<g id="node1" class="node">
<title>MultiSelectFormcontrolComponent</title>
<polygon fill="#ffffb3" stroke="black" points="620.15,-233.59 403.85,-233.59 403.85,-197.59 620.15,-197.59 620.15,-233.59"/>
<text text-anchor="middle" x="512" y="-211.39" font-family="Times,serif" font-size="14.00">MultiSelectFormcontrolComponent</text>
</g>
<!-- MultiSelectFormcontrolModule -->
<g id="node2" class="node">
<title>MultiSelectFormcontrolModule</title>
<polygon fill="#8dd3c7" stroke="black" points="609.36,-298.59 606.36,-302.59 585.36,-302.59 582.36,-298.59 414.64,-298.59 414.64,-262.59 609.36,-262.59 609.36,-298.59"/>
<text text-anchor="middle" x="512" y="-276.39" font-family="Times,serif" font-size="14.00">MultiSelectFormcontrolModule</text>
</g>
<!-- MultiSelectFormcontrolComponent&#45;&gt;MultiSelectFormcontrolModule -->
<g id="edge1" class="edge">
<title>MultiSelectFormcontrolComponent&#45;&gt;MultiSelectFormcontrolModule</title>
<path fill="none" stroke="black" d="M512,-233.7C512,-233.7 512,-252.58 512,-252.58"/>
<polygon fill="black" stroke="black" points="508.5,-252.58 512,-262.58 515.5,-252.58 508.5,-252.58"/>
</g>
<!-- MultiSelectFormcontrolComponent  -->
<g id="node4" class="node">
<title>MultiSelectFormcontrolComponent </title>
<polygon fill="#fb8072" stroke="black" points="622.15,-363.59 401.85,-363.59 401.85,-327.59 622.15,-327.59 622.15,-363.59"/>
<text text-anchor="middle" x="512" y="-341.39" font-family="Times,serif" font-size="14.00">MultiSelectFormcontrolComponent </text>
</g>
<!-- MultiSelectFormcontrolModule&#45;&gt;MultiSelectFormcontrolComponent  -->
<g id="edge3" class="edge">
<title>MultiSelectFormcontrolModule&#45;&gt;MultiSelectFormcontrolComponent </title>
<path fill="none" stroke="black" stroke-dasharray="5,2" d="M512,-298.7C512,-298.7 512,-317.58 512,-317.58"/>
<polygon fill="black" stroke="black" points="508.5,-317.58 512,-327.58 515.5,-317.58 508.5,-317.58"/>
</g>
<!-- {
 &#160;&#160;&#160;provide: NG_VALUE_ACCESSOR, useExisting: forwardRef(() =&gt; MultiSelectFormcontrolComponent), multi: true,
} -->
<g id="node3" class="node">
<title>{
 &#160;&#160;&#160;provide: NG_VALUE_ACCESSOR, useExisting: forwardRef(() =&gt; MultiSelectFormcontrolComponent), multi: true,
}</title>
<ellipse fill="#fdb462" stroke="black" cx="512" cy="-127.3" rx="487.84" ry="41.09"/>
<text text-anchor="middle" x="512" y="-139.9" font-family="Times,serif" font-size="14.00">{</text>
<text text-anchor="middle" x="512" y="-123.1" font-family="Times,serif" font-size="14.00"> &#160;&#160;&#160;provide: NG_VALUE_ACCESSOR, useExisting: forwardRef(() =&gt; MultiSelectFormcontrolComponent), multi: true,</text>
<text text-anchor="middle" x="512" y="-106.3" font-family="Times,serif" font-size="14.00">}</text>
</g>
<!-- {
 &#160;&#160;&#160;provide: NG_VALUE_ACCESSOR, useExisting: forwardRef(() =&gt; MultiSelectFormcontrolComponent), multi: true,
}&#45;&gt;MultiSelectFormcontrolComponent -->
<g id="edge2" class="edge">
<title>{
 &#160;&#160;&#160;provide: NG_VALUE_ACCESSOR, useExisting: forwardRef(() =&gt; MultiSelectFormcontrolComponent), multi: true,
}&#45;&gt;MultiSelectFormcontrolComponent</title>
<path fill="none" stroke="black" d="M512,-168.6C512,-168.6 512,-187.26 512,-187.26"/>
<polygon fill="black" stroke="black" points="508.5,-187.26 512,-197.26 515.5,-187.26 508.5,-187.26"/>
</g>
</g>
</svg>
