<?xml version="1.0" encoding="UTF-8" standalone="no"?>
<!DOCTYPE svg PUBLIC "-//W3C//DTD SVG 1.1//EN"
 "http://www.w3.org/Graphics/SVG/1.1/DTD/svg11.dtd">
<!-- Generated by graphviz version 2.47.0 (20210316.0004)
 -->
<!-- Title: dependencies Pages: 1 -->
<svg width="984pt" height="284pt"
 viewBox="0.00 0.00 984.00 284.00" xmlns="http://www.w3.org/2000/svg" xmlns:xlink="http://www.w3.org/1999/xlink">
<g id="graph0" class="graph" transform="scale(1 1) rotate(0) translate(4 280)">
<title>dependencies</title>
<polygon fill="white" stroke="transparent" points="-4,4 -4,-280 980,-280 980,4 -4,4"/>
<text text-anchor="start" x="467.01" y="-42.4" font-family="Times-12" font-weight="bold" font-size="14.00">Legend</text>
<polygon fill="#ffffb3" stroke="transparent" points="254,-10 254,-30 274,-30 274,-10 254,-10"/>
<text text-anchor="start" x="277.63" y="-15.4" font-family="Times-12" font-size="14.00"> &#160;Declarations</text>
<polygon fill="#8dd3c7" stroke="transparent" points="367,-10 367,-30 387,-30 387,-10 367,-10"/>
<text text-anchor="start" x="390.73" y="-15.4" font-family="Times-12" font-size="14.00"> &#160;Module</text>
<polygon fill="#80b1d3" stroke="transparent" points="453,-10 453,-30 473,-30 473,-10 453,-10"/>
<text text-anchor="start" x="476.78" y="-15.4" font-family="Times-12" font-size="14.00"> &#160;Bootstrap</text>
<polygon fill="#fdb462" stroke="transparent" points="550,-10 550,-30 570,-30 570,-10 550,-10"/>
<text text-anchor="start" x="573.67" y="-15.4" font-family="Times-12" font-size="14.00"> &#160;Providers</text>
<polygon fill="#fb8072" stroke="transparent" points="646,-10 646,-30 666,-30 666,-10 646,-10"/>
<text text-anchor="start" x="669.73" y="-15.4" font-family="Times-12" font-size="14.00"> &#160;Exports</text>
<g id="clust1" class="cluster">
<title>cluster_HyperViewModule</title>
<polygon fill="none" stroke="black" stroke-dasharray="1,5" points="8,-70 8,-268 968,-268 968,-70 8,-70"/>
</g>
<g id="clust10" class="cluster">
<title>cluster_HyperViewModule_exports</title>
<polygon fill="none" stroke="black" points="392,-208 392,-260 556,-260 556,-208 392,-208"/>
</g>
<g id="clust2" class="cluster">
<title>cluster_HyperViewModule_declarations</title>
<polygon fill="none" stroke="black" points="16,-78 16,-130 960,-130 960,-78 16,-78"/>
</g>
<!-- HyperviewComponent -->
<g id="node1" class="node">
<title>HyperviewComponent</title>
<polygon fill="#ffffb3" stroke="black" points="951.53,-122 808.47,-122 808.47,-86 951.53,-86 951.53,-122"/>
<text text-anchor="middle" x="880" y="-99.8" font-family="Times,serif" font-size="14.00">HyperviewComponent</text>
</g>
<!-- HyperViewModule -->
<g id="node7" class="node">
<title>HyperViewModule</title>
<polygon fill="#8dd3c7" stroke="black" points="536.35,-187 533.35,-191 512.35,-191 509.35,-187 411.65,-187 411.65,-151 536.35,-151 536.35,-187"/>
<text text-anchor="middle" x="474" y="-164.8" font-family="Times,serif" font-size="14.00">HyperViewModule</text>
</g>
<!-- HyperviewComponent&#45;&gt;HyperViewModule -->
<g id="edge1" class="edge">
<title>HyperviewComponent&#45;&gt;HyperViewModule</title>
<path fill="none" stroke="black" d="M880,-122.28C880,-143.32 880,-175 880,-175 880,-175 546.55,-175 546.55,-175"/>
<polygon fill="black" stroke="black" points="546.55,-171.5 536.55,-175 546.55,-178.5 546.55,-171.5"/>
</g>
<!-- ListShapeComponent -->
<g id="node2" class="node">
<title>ListShapeComponent</title>
<polygon fill="#ffffb3" stroke="black" points="790.82,-122 653.18,-122 653.18,-86 790.82,-86 790.82,-122"/>
<text text-anchor="middle" x="722" y="-99.8" font-family="Times,serif" font-size="14.00">ListShapeComponent</text>
</g>
<!-- ListShapeComponent&#45;&gt;HyperViewModule -->
<g id="edge2" class="edge">
<title>ListShapeComponent&#45;&gt;HyperViewModule</title>
<path fill="none" stroke="black" d="M722,-122.02C722,-139.37 722,-163 722,-163 722,-163 546.58,-163 546.58,-163"/>
<polygon fill="black" stroke="black" points="546.58,-159.5 536.58,-163 546.58,-166.5 546.58,-159.5"/>
</g>
<!-- PropertyShapeComponent -->
<g id="node3" class="node">
<title>PropertyShapeComponent</title>
<polygon fill="#ffffb3" stroke="black" points="634.75,-122 471.25,-122 471.25,-86 634.75,-86 634.75,-122"/>
<text text-anchor="middle" x="553" y="-99.8" font-family="Times,serif" font-size="14.00">PropertyShapeComponent</text>
</g>
<!-- PropertyShapeComponent&#45;&gt;HyperViewModule -->
<g id="edge3" class="edge">
<title>PropertyShapeComponent&#45;&gt;HyperViewModule</title>
<path fill="none" stroke="black" d="M503.77,-122.11C503.77,-122.11 503.77,-140.99 503.77,-140.99"/>
<polygon fill="black" stroke="black" points="500.27,-140.99 503.77,-150.99 507.27,-140.99 500.27,-140.99"/>
</g>
<!-- ShapeComponent -->
<g id="node4" class="node">
<title>ShapeComponent</title>
<polygon fill="#ffffb3" stroke="black" points="452.55,-122 337.45,-122 337.45,-86 452.55,-86 452.55,-122"/>
<text text-anchor="middle" x="395" y="-99.8" font-family="Times,serif" font-size="14.00">ShapeComponent</text>
</g>
<!-- ShapeComponent&#45;&gt;HyperViewModule -->
<g id="edge4" class="edge">
<title>ShapeComponent&#45;&gt;HyperViewModule</title>
<path fill="none" stroke="black" d="M432.17,-122.11C432.17,-122.11 432.17,-140.99 432.17,-140.99"/>
<polygon fill="black" stroke="black" points="428.67,-140.99 432.17,-150.99 435.67,-140.99 428.67,-140.99"/>
</g>
<!-- SimpleShapeComponent -->
<g id="node5" class="node">
<title>SimpleShapeComponent</title>
<polygon fill="#ffffb3" stroke="black" points="319.71,-122 164.29,-122 164.29,-86 319.71,-86 319.71,-122"/>
<text text-anchor="middle" x="242" y="-99.8" font-family="Times,serif" font-size="14.00">SimpleShapeComponent</text>
</g>
<!-- SimpleShapeComponent&#45;&gt;HyperViewModule -->
<g id="edge5" class="edge">
<title>SimpleShapeComponent&#45;&gt;HyperViewModule</title>
<path fill="none" stroke="black" d="M242,-122.02C242,-139.37 242,-163 242,-163 242,-163 401.52,-163 401.52,-163"/>
<polygon fill="black" stroke="black" points="401.52,-166.5 411.52,-163 401.52,-159.5 401.52,-166.5"/>
</g>
<!-- ZoomPanDirective -->
<g id="node6" class="node">
<title>ZoomPanDirective</title>
<polygon fill="#ffffb3" stroke="black" points="146.02,-122 23.98,-122 23.98,-86 146.02,-86 146.02,-122"/>
<text text-anchor="middle" x="85" y="-99.8" font-family="Times,serif" font-size="14.00">ZoomPanDirective</text>
</g>
<!-- ZoomPanDirective&#45;&gt;HyperViewModule -->
<g id="edge6" class="edge">
<title>ZoomPanDirective&#45;&gt;HyperViewModule</title>
<path fill="none" stroke="black" d="M85,-122.28C85,-143.32 85,-175 85,-175 85,-175 401.5,-175 401.5,-175"/>
<polygon fill="black" stroke="black" points="401.5,-178.5 411.5,-175 401.5,-171.5 401.5,-178.5"/>
</g>
<!-- HyperviewComponent  -->
<g id="node8" class="node">
<title>HyperviewComponent </title>
<polygon fill="#fb8072" stroke="black" points="547.53,-252 400.47,-252 400.47,-216 547.53,-216 547.53,-252"/>
<text text-anchor="middle" x="474" y="-229.8" font-family="Times,serif" font-size="14.00">HyperviewComponent </text>
</g>
<!-- HyperViewModule&#45;&gt;HyperviewComponent  -->
<g id="edge7" class="edge">
<title>HyperViewModule&#45;&gt;HyperviewComponent </title>
<path fill="none" stroke="black" stroke-dasharray="5,2" d="M474,-187.11C474,-187.11 474,-205.99 474,-205.99"/>
<polygon fill="black" stroke="black" points="470.5,-205.99 474,-215.99 477.5,-205.99 470.5,-205.99"/>
</g>
</g>
</svg>
