<?xml version="1.0" encoding="UTF-8" standalone="no"?>
<!DOCTYPE svg PUBLIC "-//W3C//DTD SVG 1.1//EN"
 "http://www.w3.org/Graphics/SVG/1.1/DTD/svg11.dtd">
<!-- Generated by graphviz version 2.47.0 (20210316.0004)
 -->
<!-- Title: dependencies Pages: 1 -->
<svg width="504pt" height="284pt"
 viewBox="0.00 0.00 504.00 284.00" xmlns="http://www.w3.org/2000/svg" xmlns:xlink="http://www.w3.org/1999/xlink">
<g id="graph0" class="graph" transform="scale(1 1) rotate(0) translate(4 280)">
<title>dependencies</title>
<polygon fill="white" stroke="transparent" points="-4,4 -4,-280 500,-280 500,4 -4,4"/>
<text text-anchor="start" x="227.01" y="-42.4" font-family="Times-12" font-weight="bold" font-size="14.00">Legend</text>
<polygon fill="#ffffb3" stroke="transparent" points="14,-10 14,-30 34,-30 34,-10 14,-10"/>
<text text-anchor="start" x="37.63" y="-15.4" font-family="Times-12" font-size="14.00"> &#160;Declarations</text>
<polygon fill="#8dd3c7" stroke="transparent" points="127,-10 127,-30 147,-30 147,-10 127,-10"/>
<text text-anchor="start" x="150.73" y="-15.4" font-family="Times-12" font-size="14.00"> &#160;Module</text>
<polygon fill="#80b1d3" stroke="transparent" points="213,-10 213,-30 233,-30 233,-10 213,-10"/>
<text text-anchor="start" x="236.78" y="-15.4" font-family="Times-12" font-size="14.00"> &#160;Bootstrap</text>
<polygon fill="#fdb462" stroke="transparent" points="310,-10 310,-30 330,-30 330,-10 310,-10"/>
<text text-anchor="start" x="333.67" y="-15.4" font-family="Times-12" font-size="14.00"> &#160;Providers</text>
<polygon fill="#fb8072" stroke="transparent" points="406,-10 406,-30 426,-30 426,-10 406,-10"/>
<text text-anchor="start" x="429.73" y="-15.4" font-family="Times-12" font-size="14.00"> &#160;Exports</text>
<g id="clust1" class="cluster">
<title>cluster_HelpContextualModule</title>
<polygon fill="none" stroke="black" stroke-dasharray="1,5" points="34,-70 34,-268 462,-268 462,-70 34,-70"/>
</g>
<g id="clust6" class="cluster">
<title>cluster_HelpContextualModule_exports</title>
<polygon fill="none" stroke="black" points="161,-208 161,-260 351,-260 351,-208 161,-208"/>
</g>
<g id="clust2" class="cluster">
<title>cluster_HelpContextualModule_declarations</title>
<polygon fill="none" stroke="black" points="42,-78 42,-130 454,-130 454,-78 42,-78"/>
</g>
<!-- HelpContextualComponent -->
<g id="node1" class="node">
<title>HelpContextualComponent</title>
<polygon fill="#ffffb3" stroke="black" points="445.98,-122 276.02,-122 276.02,-86 445.98,-86 445.98,-122"/>
<text text-anchor="middle" x="361" y="-99.8" font-family="Times,serif" font-size="14.00">HelpContextualComponent</text>
</g>
<!-- HelpContextualModule -->
<g id="node3" class="node">
<title>HelpContextualModule</title>
<polygon fill="#8dd3c7" stroke="black" points="330.2,-187 327.2,-191 306.2,-191 303.2,-187 181.8,-187 181.8,-151 330.2,-151 330.2,-187"/>
<text text-anchor="middle" x="256" y="-164.8" font-family="Times,serif" font-size="14.00">HelpContextualModule</text>
</g>
<!-- HelpContextualComponent&#45;&gt;HelpContextualModule -->
<g id="edge1" class="edge">
<title>HelpContextualComponent&#45;&gt;HelpContextualModule</title>
<path fill="none" stroke="black" d="M303.05,-122.11C303.05,-122.11 303.05,-140.99 303.05,-140.99"/>
<polygon fill="black" stroke="black" points="299.55,-140.99 303.05,-150.99 306.55,-140.99 299.55,-140.99"/>
</g>
<!-- HelpContextualDialogComponent -->
<g id="node2" class="node">
<title>HelpContextualDialogComponent</title>
<polygon fill="#ffffb3" stroke="black" points="258.08,-122 49.92,-122 49.92,-86 258.08,-86 258.08,-122"/>
<text text-anchor="middle" x="154" y="-99.8" font-family="Times,serif" font-size="14.00">HelpContextualDialogComponent</text>
</g>
<!-- HelpContextualDialogComponent&#45;&gt;HelpContextualModule -->
<g id="edge2" class="edge">
<title>HelpContextualDialogComponent&#45;&gt;HelpContextualModule</title>
<path fill="none" stroke="black" d="M219.97,-122.11C219.97,-122.11 219.97,-140.99 219.97,-140.99"/>
<polygon fill="black" stroke="black" points="216.47,-140.99 219.97,-150.99 223.47,-140.99 216.47,-140.99"/>
</g>
<!-- HelpContextualComponent  -->
<g id="node4" class="node">
<title>HelpContextualComponent </title>
<polygon fill="#fb8072" stroke="black" points="342.98,-252 169.02,-252 169.02,-216 342.98,-216 342.98,-252"/>
<text text-anchor="middle" x="256" y="-229.8" font-family="Times,serif" font-size="14.00">HelpContextualComponent </text>
</g>
<!-- HelpContextualModule&#45;&gt;HelpContextualComponent  -->
<g id="edge3" class="edge">
<title>HelpContextualModule&#45;&gt;HelpContextualComponent </title>
<path fill="none" stroke="black" stroke-dasharray="5,2" d="M256,-187.11C256,-187.11 256,-205.99 256,-205.99"/>
<polygon fill="black" stroke="black" points="252.5,-205.99 256,-215.99 259.5,-205.99 252.5,-205.99"/>
</g>
</g>
</svg>
