<?xml version="1.0" encoding="UTF-8" standalone="no"?>
<!DOCTYPE svg PUBLIC "-//W3C//DTD SVG 1.1//EN"
 "http://www.w3.org/Graphics/SVG/1.1/DTD/svg11.dtd">
<!-- Generated by graphviz version 2.47.0 (20210316.0004)
 -->
<!-- Title: dependencies Pages: 1 -->
<svg width="504pt" height="284pt"
 viewBox="0.00 0.00 504.00 284.00" xmlns="http://www.w3.org/2000/svg" xmlns:xlink="http://www.w3.org/1999/xlink">
<g id="graph0" class="graph" transform="scale(1 1) rotate(0) translate(4 280)">
<title>dependencies</title>
<polygon fill="white" stroke="transparent" points="-4,4 -4,-280 500,-280 500,4 -4,4"/>
<text text-anchor="start" x="227.01" y="-42.4" font-family="Times-12" font-weight="bold" font-size="14.00">Legend</text>
<polygon fill="#ffffb3" stroke="transparent" points="14,-10 14,-30 34,-30 34,-10 14,-10"/>
<text text-anchor="start" x="37.63" y="-15.4" font-family="Times-12" font-size="14.00"> &#160;Declarations</text>
<polygon fill="#8dd3c7" stroke="transparent" points="127,-10 127,-30 147,-30 147,-10 127,-10"/>
<text text-anchor="start" x="150.73" y="-15.4" font-family="Times-12" font-size="14.00"> &#160;Module</text>
<polygon fill="#80b1d3" stroke="transparent" points="213,-10 213,-30 233,-30 233,-10 213,-10"/>
<text text-anchor="start" x="236.78" y="-15.4" font-family="Times-12" font-size="14.00"> &#160;Bootstrap</text>
<polygon fill="#fdb462" stroke="transparent" points="310,-10 310,-30 330,-30 330,-10 310,-10"/>
<text text-anchor="start" x="333.67" y="-15.4" font-family="Times-12" font-size="14.00"> &#160;Providers</text>
<polygon fill="#fb8072" stroke="transparent" points="406,-10 406,-30 426,-30 426,-10 406,-10"/>
<text text-anchor="start" x="429.73" y="-15.4" font-family="Times-12" font-size="14.00"> &#160;Exports</text>
<g id="clust1" class="cluster">
<title>cluster_UserMessageModule</title>
<polygon fill="none" stroke="black" stroke-dasharray="1,5" points="50,-70 50,-268 446,-268 446,-70 50,-70"/>
</g>
<g id="clust5" class="cluster">
<title>cluster_UserMessageModule_exports</title>
<polygon fill="none" stroke="black" points="154,-208 154,-260 330,-260 330,-208 154,-208"/>
</g>
<g id="clust7" class="cluster">
<title>cluster_UserMessageModule_providers</title>
<polygon fill="none" stroke="black" points="238,-78 238,-130 438,-130 438,-78 238,-78"/>
</g>
<g id="clust2" class="cluster">
<title>cluster_UserMessageModule_declarations</title>
<polygon fill="none" stroke="black" points="58,-78 58,-130 230,-130 230,-78 58,-78"/>
</g>
<!-- UserMessageComponent -->
<g id="node1" class="node">
<title>UserMessageComponent</title>
<polygon fill="#ffffb3" stroke="black" points="222.24,-122 65.76,-122 65.76,-86 222.24,-86 222.24,-122"/>
<text text-anchor="middle" x="144" y="-99.8" font-family="Times,serif" font-size="14.00">UserMessageComponent</text>
</g>
<!-- UserMessageModule -->
<g id="node2" class="node">
<title>UserMessageModule</title>
<polygon fill="#8dd3c7" stroke="black" points="309.45,-187 306.45,-191 285.45,-191 282.45,-187 174.55,-187 174.55,-151 309.45,-151 309.45,-187"/>
<text text-anchor="middle" x="242" y="-164.8" font-family="Times,serif" font-size="14.00">UserMessageModule</text>
</g>
<!-- UserMessageComponent&#45;&gt;UserMessageModule -->
<g id="edge1" class="edge">
<title>UserMessageComponent&#45;&gt;UserMessageModule</title>
<path fill="none" stroke="black" d="M198.45,-122.11C198.45,-122.11 198.45,-140.99 198.45,-140.99"/>
<polygon fill="black" stroke="black" points="194.95,-140.99 198.45,-150.99 201.95,-140.99 194.95,-140.99"/>
</g>
<!-- UserMessageComponent  -->
<g id="node3" class="node">
<title>UserMessageComponent </title>
<polygon fill="#fb8072" stroke="black" points="322.24,-252 161.76,-252 161.76,-216 322.24,-216 322.24,-252"/>
<text text-anchor="middle" x="242" y="-229.8" font-family="Times,serif" font-size="14.00">UserMessageComponent </text>
</g>
<!-- UserMessageModule&#45;&gt;UserMessageComponent  -->
<g id="edge2" class="edge">
<title>UserMessageModule&#45;&gt;UserMessageComponent </title>
<path fill="none" stroke="black" stroke-dasharray="5,2" d="M242,-187.11C242,-187.11 242,-205.99 242,-205.99"/>
<polygon fill="black" stroke="black" points="238.5,-205.99 242,-215.99 245.5,-205.99 238.5,-205.99"/>
</g>
<!-- UserMessageService -->
<g id="node4" class="node">
<title>UserMessageService</title>
<ellipse fill="#fdb462" stroke="black" cx="338" cy="-104" rx="92.01" ry="18"/>
<text text-anchor="middle" x="338" y="-99.8" font-family="Times,serif" font-size="14.00">UserMessageService</text>
</g>
<!-- UserMessageService&#45;&gt;UserMessageModule -->
<g id="edge3" class="edge">
<title>UserMessageService&#45;&gt;UserMessageModule</title>
<path fill="none" stroke="black" d="M277.74,-117.78C277.74,-117.78 277.74,-140.55 277.74,-140.55"/>
<polygon fill="black" stroke="black" points="274.24,-140.55 277.74,-150.55 281.24,-140.55 274.24,-140.55"/>
</g>
</g>
</svg>
