<?xml version="1.0" encoding="UTF-8" standalone="no"?>
<!DOCTYPE svg PUBLIC "-//W3C//DTD SVG 1.1//EN"
 "http://www.w3.org/Graphics/SVG/1.1/DTD/svg11.dtd">
<!-- Generated by graphviz version 2.47.0 (20210316.0004)
 -->
<!-- Title: dependencies Pages: 1 -->
<svg width="734pt" height="284pt"
 viewBox="0.00 0.00 734.00 284.00" xmlns="http://www.w3.org/2000/svg" xmlns:xlink="http://www.w3.org/1999/xlink">
<g id="graph0" class="graph" transform="scale(1 1) rotate(0) translate(4 280)">
<title>dependencies</title>
<polygon fill="white" stroke="transparent" points="-4,4 -4,-280 730,-280 730,4 -4,4"/>
<text text-anchor="start" x="342.01" y="-42.4" font-family="Times-12" font-weight="bold" font-size="14.00">Legend</text>
<polygon fill="#ffffb3" stroke="transparent" points="129,-10 129,-30 149,-30 149,-10 129,-10"/>
<text text-anchor="start" x="152.63" y="-15.4" font-family="Times-12" font-size="14.00"> &#160;Declarations</text>
<polygon fill="#8dd3c7" stroke="transparent" points="242,-10 242,-30 262,-30 262,-10 242,-10"/>
<text text-anchor="start" x="265.73" y="-15.4" font-family="Times-12" font-size="14.00"> &#160;Module</text>
<polygon fill="#80b1d3" stroke="transparent" points="328,-10 328,-30 348,-30 348,-10 328,-10"/>
<text text-anchor="start" x="351.78" y="-15.4" font-family="Times-12" font-size="14.00"> &#160;Bootstrap</text>
<polygon fill="#fdb462" stroke="transparent" points="425,-10 425,-30 445,-30 445,-10 425,-10"/>
<text text-anchor="start" x="448.67" y="-15.4" font-family="Times-12" font-size="14.00"> &#160;Providers</text>
<polygon fill="#fb8072" stroke="transparent" points="521,-10 521,-30 541,-30 541,-10 521,-10"/>
<text text-anchor="start" x="544.73" y="-15.4" font-family="Times-12" font-size="14.00"> &#160;Exports</text>
<g id="clust1" class="cluster">
<title>cluster_DateModule</title>
<polygon fill="none" stroke="black" stroke-dasharray="1,5" points="8,-70 8,-268 718,-268 718,-70 8,-70"/>
</g>
<g id="clust9" class="cluster">
<title>cluster_DateModule_exports</title>
<polygon fill="none" stroke="black" points="174,-208 174,-260 566,-260 566,-208 174,-208"/>
</g>
<g id="clust2" class="cluster">
<title>cluster_DateModule_declarations</title>
<polygon fill="none" stroke="black" points="16,-78 16,-130 710,-130 710,-78 16,-78"/>
</g>
<!-- CalendarComponent -->
<g id="node1" class="node">
<title>CalendarComponent</title>
<polygon fill="#ffffb3" stroke="black" points="701.86,-122 570.14,-122 570.14,-86 701.86,-86 701.86,-122"/>
<text text-anchor="middle" x="636" y="-99.8" font-family="Times,serif" font-size="14.00">CalendarComponent</text>
</g>
<!-- DateModule -->
<g id="node6" class="node">
<title>DateModule</title>
<polygon fill="#8dd3c7" stroke="black" points="407.98,-187 404.98,-191 383.98,-191 380.98,-187 322.02,-187 322.02,-151 407.98,-151 407.98,-187"/>
<text text-anchor="middle" x="365" y="-164.8" font-family="Times,serif" font-size="14.00">DateModule</text>
</g>
<!-- CalendarComponent&#45;&gt;DateModule -->
<g id="edge1" class="edge">
<title>CalendarComponent&#45;&gt;DateModule</title>
<path fill="none" stroke="black" d="M636,-122.11C636,-141.34 636,-169 636,-169 636,-169 418.24,-169 418.24,-169"/>
<polygon fill="black" stroke="black" points="418.24,-165.5 408.24,-169 418.24,-172.5 418.24,-165.5"/>
</g>
<!-- DateComponent -->
<g id="node2" class="node">
<title>DateComponent</title>
<polygon fill="#ffffb3" stroke="black" points="551.76,-122 444.24,-122 444.24,-86 551.76,-86 551.76,-122"/>
<text text-anchor="middle" x="498" y="-99.8" font-family="Times,serif" font-size="14.00">DateComponent</text>
</g>
<!-- DateComponent&#45;&gt;DateModule -->
<g id="edge2" class="edge">
<title>DateComponent&#45;&gt;DateModule</title>
<path fill="none" stroke="black" d="M516.71,-122.03C516.71,-138.4 516.71,-160 516.71,-160 516.71,-160 418.07,-160 418.07,-160"/>
<polygon fill="black" stroke="black" points="418.07,-156.5 408.07,-160 418.07,-163.5 418.07,-156.5"/>
</g>
<!-- LocalizedDatePipe -->
<g id="node3" class="node">
<title>LocalizedDatePipe</title>
<polygon fill="#ffffb3" stroke="black" points="426.01,-122 303.99,-122 303.99,-86 426.01,-86 426.01,-122"/>
<text text-anchor="middle" x="365" y="-99.8" font-family="Times,serif" font-size="14.00">LocalizedDatePipe</text>
</g>
<!-- LocalizedDatePipe&#45;&gt;DateModule -->
<g id="edge3" class="edge">
<title>LocalizedDatePipe&#45;&gt;DateModule</title>
<path fill="none" stroke="black" d="M365,-122.11C365,-122.11 365,-140.99 365,-140.99"/>
<polygon fill="black" stroke="black" points="361.5,-140.99 365,-150.99 368.5,-140.99 361.5,-140.99"/>
</g>
<!-- ShortDatePipe -->
<g id="node4" class="node">
<title>ShortDatePipe</title>
<polygon fill="#ffffb3" stroke="black" points="285.65,-122 188.35,-122 188.35,-86 285.65,-86 285.65,-122"/>
<text text-anchor="middle" x="237" y="-99.8" font-family="Times,serif" font-size="14.00">ShortDatePipe</text>
</g>
<!-- ShortDatePipe&#45;&gt;DateModule -->
<g id="edge4" class="edge">
<title>ShortDatePipe&#45;&gt;DateModule</title>
<path fill="none" stroke="black" d="M251.77,-122.03C251.77,-138.4 251.77,-160 251.77,-160 251.77,-160 311.87,-160 311.87,-160"/>
<polygon fill="black" stroke="black" points="311.87,-163.5 321.87,-160 311.87,-156.5 311.87,-163.5"/>
</g>
<!-- TimePickerComponent -->
<g id="node5" class="node">
<title>TimePickerComponent</title>
<polygon fill="#ffffb3" stroke="black" points="170.14,-122 23.86,-122 23.86,-86 170.14,-86 170.14,-122"/>
<text text-anchor="middle" x="97" y="-99.8" font-family="Times,serif" font-size="14.00">TimePickerComponent</text>
</g>
<!-- TimePickerComponent&#45;&gt;DateModule -->
<g id="edge5" class="edge">
<title>TimePickerComponent&#45;&gt;DateModule</title>
<path fill="none" stroke="black" d="M97,-122.11C97,-141.34 97,-169 97,-169 97,-169 311.94,-169 311.94,-169"/>
<polygon fill="black" stroke="black" points="311.94,-172.5 321.94,-169 311.94,-165.5 311.94,-172.5"/>
</g>
<!-- DateComponent  -->
<g id="node7" class="node">
<title>DateComponent </title>
<polygon fill="#fb8072" stroke="black" points="557.76,-252 446.24,-252 446.24,-216 557.76,-216 557.76,-252"/>
<text text-anchor="middle" x="502" y="-229.8" font-family="Times,serif" font-size="14.00">DateComponent </text>
</g>
<!-- DateModule&#45;&gt;DateComponent  -->
<g id="edge6" class="edge">
<title>DateModule&#45;&gt;DateComponent </title>
<path fill="none" stroke="black" stroke-dasharray="5,2" d="M408.06,-178C441.26,-178 481.54,-178 481.54,-178 481.54,-178 481.54,-205.97 481.54,-205.97"/>
<polygon fill="black" stroke="black" points="478.04,-205.97 481.54,-215.97 485.04,-205.97 478.04,-205.97"/>
</g>
<!-- LocalizedDatePipe  -->
<g id="node8" class="node">
<title>LocalizedDatePipe </title>
<polygon fill="#fb8072" stroke="black" points="428.01,-252 301.99,-252 301.99,-216 428.01,-216 428.01,-252"/>
<text text-anchor="middle" x="365" y="-229.8" font-family="Times,serif" font-size="14.00">LocalizedDatePipe </text>
</g>
<!-- DateModule&#45;&gt;LocalizedDatePipe  -->
<g id="edge7" class="edge">
<title>DateModule&#45;&gt;LocalizedDatePipe </title>
<path fill="none" stroke="black" stroke-dasharray="5,2" d="M365,-187.11C365,-187.11 365,-205.99 365,-205.99"/>
<polygon fill="black" stroke="black" points="361.5,-205.99 365,-215.99 368.5,-205.99 361.5,-205.99"/>
</g>
<!-- ShortDatePipe  -->
<g id="node9" class="node">
<title>ShortDatePipe </title>
<polygon fill="#fb8072" stroke="black" points="283.65,-252 182.35,-252 182.35,-216 283.65,-216 283.65,-252"/>
<text text-anchor="middle" x="233" y="-229.8" font-family="Times,serif" font-size="14.00">ShortDatePipe </text>
</g>
<!-- DateModule&#45;&gt;ShortDatePipe  -->
<g id="edge8" class="edge">
<title>DateModule&#45;&gt;ShortDatePipe </title>
<path fill="none" stroke="black" stroke-dasharray="5,2" d="M321.88,-178C279.13,-178 219.98,-178 219.98,-178 219.98,-178 219.98,-205.97 219.98,-205.97"/>
<polygon fill="black" stroke="black" points="216.48,-205.97 219.98,-215.97 223.48,-205.97 216.48,-205.97"/>
</g>
</g>
</svg>
