<?xml version="1.0" encoding="UTF-8" standalone="no"?>
<!DOCTYPE svg PUBLIC "-//W3C//DTD SVG 1.1//EN"
 "http://www.w3.org/Graphics/SVG/1.1/DTD/svg11.dtd">
<!-- Generated by graphviz version 2.47.0 (20210316.0004)
 -->
<!-- Title: dependencies Pages: 1 -->
<svg width="616pt" height="284pt"
 viewBox="0.00 0.00 616.00 284.00" xmlns="http://www.w3.org/2000/svg" xmlns:xlink="http://www.w3.org/1999/xlink">
<g id="graph0" class="graph" transform="scale(1 1) rotate(0) translate(4 280)">
<title>dependencies</title>
<polygon fill="white" stroke="transparent" points="-4,4 -4,-280 612,-280 612,4 -4,4"/>
<text text-anchor="start" x="283.01" y="-42.4" font-family="Times-12" font-weight="bold" font-size="14.00">Legend</text>
<polygon fill="#ffffb3" stroke="transparent" points="70,-10 70,-30 90,-30 90,-10 70,-10"/>
<text text-anchor="start" x="93.63" y="-15.4" font-family="Times-12" font-size="14.00"> &#160;Declarations</text>
<polygon fill="#8dd3c7" stroke="transparent" points="183,-10 183,-30 203,-30 203,-10 183,-10"/>
<text text-anchor="start" x="206.73" y="-15.4" font-family="Times-12" font-size="14.00"> &#160;Module</text>
<polygon fill="#80b1d3" stroke="transparent" points="269,-10 269,-30 289,-30 289,-10 269,-10"/>
<text text-anchor="start" x="292.78" y="-15.4" font-family="Times-12" font-size="14.00"> &#160;Bootstrap</text>
<polygon fill="#fdb462" stroke="transparent" points="366,-10 366,-30 386,-30 386,-10 366,-10"/>
<text text-anchor="start" x="389.67" y="-15.4" font-family="Times-12" font-size="14.00"> &#160;Providers</text>
<polygon fill="#fb8072" stroke="transparent" points="462,-10 462,-30 482,-30 482,-10 462,-10"/>
<text text-anchor="start" x="485.73" y="-15.4" font-family="Times-12" font-size="14.00"> &#160;Exports</text>
<g id="clust1" class="cluster">
<title>cluster_BulkPropertyEditorModule</title>
<polygon fill="none" stroke="black" stroke-dasharray="1,5" points="8,-70 8,-268 600,-268 600,-70 8,-70"/>
</g>
<g id="clust6" class="cluster">
<title>cluster_BulkPropertyEditorModule_exports</title>
<polygon fill="none" stroke="black" points="150,-208 150,-260 362,-260 362,-208 150,-208"/>
</g>
<g id="clust2" class="cluster">
<title>cluster_BulkPropertyEditorModule_declarations</title>
<polygon fill="none" stroke="black" points="232,-78 232,-130 592,-130 592,-78 232,-78"/>
</g>
<g id="clust5" class="cluster">
<title>cluster_BulkPropertyEditorModule_imports</title>
<polygon fill="none" stroke="black" points="16,-78 16,-130 224,-130 224,-78 16,-78"/>
</g>
<!-- BulkItemComponent -->
<g id="node1" class="node">
<title>BulkItemComponent</title>
<polygon fill="#ffffb3" stroke="black" points="584.22,-122 449.78,-122 449.78,-86 584.22,-86 584.22,-122"/>
<text text-anchor="middle" x="517" y="-99.8" font-family="Times,serif" font-size="14.00">BulkItemComponent</text>
</g>
<!-- BulkPropertyEditorModule -->
<g id="node3" class="node">
<title>BulkPropertyEditorModule</title>
<polygon fill="#8dd3c7" stroke="black" points="340.98,-187 337.98,-191 316.98,-191 313.98,-187 171.02,-187 171.02,-151 340.98,-151 340.98,-187"/>
<text text-anchor="middle" x="256" y="-164.8" font-family="Times,serif" font-size="14.00">BulkPropertyEditorModule</text>
</g>
<!-- BulkItemComponent&#45;&gt;BulkPropertyEditorModule -->
<g id="edge1" class="edge">
<title>BulkItemComponent&#45;&gt;BulkPropertyEditorModule</title>
<path fill="none" stroke="black" d="M517,-122.11C517,-141.34 517,-169 517,-169 517,-169 351.1,-169 351.1,-169"/>
<polygon fill="black" stroke="black" points="351.1,-165.5 341.1,-169 351.1,-172.5 351.1,-165.5"/>
</g>
<!-- BulkPropertyEditorComponent -->
<g id="node2" class="node">
<title>BulkPropertyEditorComponent</title>
<polygon fill="#ffffb3" stroke="black" points="431.76,-122 240.24,-122 240.24,-86 431.76,-86 431.76,-122"/>
<text text-anchor="middle" x="336" y="-99.8" font-family="Times,serif" font-size="14.00">BulkPropertyEditorComponent</text>
</g>
<!-- BulkPropertyEditorComponent&#45;&gt;BulkPropertyEditorModule -->
<g id="edge2" class="edge">
<title>BulkPropertyEditorComponent&#45;&gt;BulkPropertyEditorModule</title>
<path fill="none" stroke="black" d="M290.55,-122.11C290.55,-122.11 290.55,-140.99 290.55,-140.99"/>
<polygon fill="black" stroke="black" points="287.05,-140.99 290.55,-150.99 294.05,-140.99 287.05,-140.99"/>
</g>
<!-- BulkPropertyEditorComponent  -->
<g id="node6" class="node">
<title>BulkPropertyEditorComponent </title>
<polygon fill="#fb8072" stroke="black" points="353.76,-252 158.24,-252 158.24,-216 353.76,-216 353.76,-252"/>
<text text-anchor="middle" x="256" y="-229.8" font-family="Times,serif" font-size="14.00">BulkPropertyEditorComponent </text>
</g>
<!-- BulkPropertyEditorModule&#45;&gt;BulkPropertyEditorComponent  -->
<g id="edge5" class="edge">
<title>BulkPropertyEditorModule&#45;&gt;BulkPropertyEditorComponent </title>
<path fill="none" stroke="black" stroke-dasharray="5,2" d="M256,-187.11C256,-187.11 256,-205.99 256,-205.99"/>
<polygon fill="black" stroke="black" points="252.5,-205.99 256,-215.99 259.5,-205.99 252.5,-205.99"/>
</g>
<!-- CdrModule -->
<g id="node4" class="node">
<title>CdrModule</title>
<polygon fill="#8dd3c7" stroke="black" points="216.05,-122 213.05,-126 192.05,-126 189.05,-122 135.95,-122 135.95,-86 216.05,-86 216.05,-122"/>
<text text-anchor="middle" x="176" y="-99.8" font-family="Times,serif" font-size="14.00">CdrModule</text>
</g>
<!-- CdrModule&#45;&gt;BulkPropertyEditorModule -->
<g id="edge3" class="edge">
<title>CdrModule&#45;&gt;BulkPropertyEditorModule</title>
<path fill="none" stroke="black" d="M193.64,-122.11C193.64,-122.11 193.64,-140.99 193.64,-140.99"/>
<polygon fill="black" stroke="black" points="190.14,-140.99 193.64,-150.99 197.14,-140.99 190.14,-140.99"/>
</g>
<!-- EntityModule -->
<g id="node5" class="node">
<title>EntityModule</title>
<polygon fill="#8dd3c7" stroke="black" points="117.77,-122 114.77,-126 93.77,-126 90.77,-122 24.23,-122 24.23,-86 117.77,-86 117.77,-122"/>
<text text-anchor="middle" x="71" y="-99.8" font-family="Times,serif" font-size="14.00">EntityModule</text>
</g>
<!-- EntityModule&#45;&gt;BulkPropertyEditorModule -->
<g id="edge4" class="edge">
<title>EntityModule&#45;&gt;BulkPropertyEditorModule</title>
<path fill="none" stroke="black" d="M71,-122.11C71,-141.34 71,-169 71,-169 71,-169 160.81,-169 160.81,-169"/>
<polygon fill="black" stroke="black" points="160.81,-172.5 170.81,-169 160.81,-165.5 160.81,-172.5"/>
</g>
</g>
</svg>
